G04 #@! TF.GenerationSoftware,KiCad,Pcbnew,(5.1.10)-1*
G04 #@! TF.CreationDate,2023-01-28T17:58:28+01:00*
G04 #@! TF.ProjectId,servo_board,73657276-6f5f-4626-9f61-72642e6b6963,1.0*
G04 #@! TF.SameCoordinates,Original*
G04 #@! TF.FileFunction,Soldermask,Bot*
G04 #@! TF.FilePolarity,Negative*
%FSLAX46Y46*%
G04 Gerber Fmt 4.6, Leading zero omitted, Abs format (unit mm)*
G04 Created by KiCad (PCBNEW (5.1.10)-1) date 2023-01-28 17:58:28*
%MOMM*%
%LPD*%
G01*
G04 APERTURE LIST*
%ADD10O,1.700000X1.700000*%
%ADD11R,1.700000X1.700000*%
%ADD12O,3.600000X1.800000*%
G04 APERTURE END LIST*
D10*
X84264500Y-100317300D03*
X86804500Y-100317300D03*
X89344500Y-100317300D03*
X91884500Y-100317300D03*
X94424500Y-100317300D03*
X96964500Y-100317300D03*
X99504500Y-100317300D03*
X102044500Y-100317300D03*
X104584500Y-100317300D03*
X107124500Y-100317300D03*
D11*
X109664500Y-100317300D03*
D10*
X97802700Y-178803300D03*
X97802700Y-176263300D03*
D11*
X97802700Y-173723300D03*
D10*
X115785900Y-178828700D03*
X115785900Y-176288700D03*
D11*
X115785900Y-173748700D03*
D10*
X108597700Y-178803300D03*
X108597700Y-176263300D03*
D11*
X108597700Y-173723300D03*
D10*
X119380000Y-178816000D03*
X119380000Y-176276000D03*
D11*
X119380000Y-173736000D03*
D10*
X104990900Y-178790600D03*
X104990900Y-176250600D03*
D11*
X104990900Y-173710600D03*
D10*
X94208600Y-178803300D03*
X94208600Y-176263300D03*
D11*
X94208600Y-173723300D03*
D10*
X140957300Y-178803300D03*
X140957300Y-176263300D03*
D11*
X140957300Y-173723300D03*
D10*
X137363200Y-178803300D03*
X137363200Y-176263300D03*
D11*
X137363200Y-173723300D03*
D10*
X83451700Y-178803300D03*
X83451700Y-176263300D03*
D11*
X83451700Y-173723300D03*
D10*
X112191800Y-178816000D03*
X112191800Y-176276000D03*
D11*
X112191800Y-173736000D03*
D10*
X122974100Y-178816000D03*
X122974100Y-176276000D03*
D11*
X122974100Y-173736000D03*
D10*
X101409500Y-178790600D03*
X101409500Y-176250600D03*
D11*
X101409500Y-173710600D03*
D10*
X90614500Y-178803300D03*
X90614500Y-176263300D03*
D11*
X90614500Y-173723300D03*
D10*
X126542800Y-178816000D03*
X126542800Y-176276000D03*
D11*
X126542800Y-173736000D03*
D10*
X130149600Y-178816000D03*
X130149600Y-176276000D03*
D11*
X130149600Y-173736000D03*
D10*
X133756400Y-178816000D03*
X133756400Y-176276000D03*
D11*
X133756400Y-173736000D03*
D10*
X79857600Y-178803300D03*
X79857600Y-176263300D03*
D11*
X79857600Y-173723300D03*
D10*
X87033100Y-178803300D03*
X87033100Y-176263300D03*
D11*
X87033100Y-173723300D03*
D10*
X103987600Y-143979900D03*
D11*
X106527600Y-143979900D03*
D10*
X84264500Y-103987600D03*
X86804500Y-103987600D03*
X89344500Y-103987600D03*
X91884500Y-103987600D03*
X94424500Y-103987600D03*
X96964500Y-103987600D03*
X99504500Y-103987600D03*
X102044500Y-103987600D03*
X104584500Y-103987600D03*
X107124500Y-103987600D03*
D11*
X109664500Y-103987600D03*
D10*
X139750800Y-137033000D03*
X139750800Y-134493000D03*
X139750800Y-131953000D03*
X139750800Y-129413000D03*
X139750800Y-126873000D03*
X139750800Y-124333000D03*
X139750800Y-121793000D03*
X139750800Y-119253000D03*
X139750800Y-116713000D03*
X139750800Y-114173000D03*
X139750800Y-111633000D03*
X139750800Y-109093000D03*
X139750800Y-106553000D03*
X139750800Y-104013000D03*
D11*
X139750800Y-101473000D03*
X114515900Y-101511100D03*
D10*
X114515900Y-104051100D03*
X114515900Y-106591100D03*
X114515900Y-109131100D03*
X114515900Y-111671100D03*
X114515900Y-114211100D03*
X114515900Y-116751100D03*
X114515900Y-119291100D03*
X114515900Y-121831100D03*
X114515900Y-124371100D03*
X114515900Y-126911100D03*
X114515900Y-129451100D03*
X114515900Y-131991100D03*
X114515900Y-134531100D03*
X114515900Y-137071100D03*
D12*
X86702900Y-116255800D03*
G36*
G01*
X88252900Y-120965800D02*
X85152900Y-120965800D01*
G75*
G02*
X84902900Y-120715800I0J250000D01*
G01*
X84902900Y-119415800D01*
G75*
G02*
X85152900Y-119165800I250000J0D01*
G01*
X88252900Y-119165800D01*
G75*
G02*
X88502900Y-119415800I0J-250000D01*
G01*
X88502900Y-120715800D01*
G75*
G02*
X88252900Y-120965800I-250000J0D01*
G01*
G37*
M02*
