%FSLAX45Y45*%
G04 Gerber Fmt 4.5, Leading zero omitted, Abs format (unit mm)*
G04 Created by KiCad (PCBNEW (5.1.10)-1) date 2023-01-28 17:59:57*
%MOMM*%
%LPD*%
G01*
G04 APERTURE LIST*
%TA.AperFunction,Profile*%
%ADD10C,0.050000*%
%TD*%
%TA.AperFunction,Profile*%
%ADD11C,0.100000*%
%TD*%
%ADD12C,0.200000*%
%ADD13C,0.300000*%
G04 APERTURE END LIST*
D10*
X15095561Y-18250154D02*
G75*
G03*
X15095561Y-18250154I-250023J0D01*
G01*
X7775789Y-18242534D02*
G75*
G03*
X7775789Y-18242534I-250023J0D01*
G01*
X7726005Y-9354566D02*
G75*
G03*
X7726005Y-9354566I-250023J0D01*
G01*
X15144329Y-9358122D02*
G75*
G03*
X15144329Y-9358122I-250023J0D01*
G01*
D11*
X7122414Y-9002014D02*
X15268194Y-9007094D01*
X7127494Y-18651982D02*
X7122414Y-9002014D01*
X7127494Y-18652490D02*
X7127494Y-18651982D01*
X15250922Y-18649442D02*
X7127494Y-18652490D01*
X15268194Y-9007094D02*
X15250922Y-18649442D01*
D12*
D13*
X7403842Y-19123204D02*
X7403842Y-18823204D01*
X7475271Y-18823204D01*
X7518128Y-18837490D01*
X7546700Y-18866062D01*
X7560985Y-18894633D01*
X7575271Y-18951776D01*
X7575271Y-18994633D01*
X7560985Y-19051776D01*
X7546700Y-19080347D01*
X7518128Y-19108919D01*
X7475271Y-19123204D01*
X7403842Y-19123204D01*
X7703842Y-19123204D02*
X7703842Y-18923204D01*
X7703842Y-18980347D02*
X7718128Y-18951776D01*
X7732414Y-18937490D01*
X7760985Y-18923204D01*
X7789557Y-18923204D01*
X7889557Y-19123204D02*
X7889557Y-18923204D01*
X7889557Y-18823204D02*
X7875271Y-18837490D01*
X7889557Y-18851776D01*
X7903842Y-18837490D01*
X7889557Y-18823204D01*
X7889557Y-18851776D01*
X8075271Y-19123204D02*
X8046700Y-19108919D01*
X8032414Y-19080347D01*
X8032414Y-18823204D01*
X8232414Y-19123204D02*
X8203842Y-19108919D01*
X8189557Y-19080347D01*
X8189557Y-18823204D01*
X8575271Y-19123204D02*
X8575271Y-18823204D01*
X8675271Y-19037490D01*
X8775271Y-18823204D01*
X8775271Y-19123204D01*
X9046700Y-19123204D02*
X9046700Y-18966062D01*
X9032414Y-18937490D01*
X9003842Y-18923204D01*
X8946700Y-18923204D01*
X8918128Y-18937490D01*
X9046700Y-19108919D02*
X9018128Y-19123204D01*
X8946700Y-19123204D01*
X8918128Y-19108919D01*
X8903842Y-19080347D01*
X8903842Y-19051776D01*
X8918128Y-19023204D01*
X8946700Y-19008919D01*
X9018128Y-19008919D01*
X9046700Y-18994633D01*
X9189557Y-18923204D02*
X9189557Y-19223204D01*
X9189557Y-18937490D02*
X9218128Y-18923204D01*
X9275271Y-18923204D01*
X9303842Y-18937490D01*
X9318128Y-18951776D01*
X9332414Y-18980347D01*
X9332414Y-19066062D01*
X9318128Y-19094633D01*
X9303842Y-19108919D01*
X9275271Y-19123204D01*
X9218128Y-19123204D01*
X9189557Y-19108919D01*
X9460985Y-19094633D02*
X9475271Y-19108919D01*
X9460985Y-19123204D01*
X9446700Y-19108919D01*
X9460985Y-19094633D01*
X9460985Y-19123204D01*
X9460985Y-18937490D02*
X9475271Y-18951776D01*
X9460985Y-18966062D01*
X9446700Y-18951776D01*
X9460985Y-18937490D01*
X9460985Y-18966062D01*
M02*
