%FSLAX45Y45*%
G04 Gerber Fmt 4.5, Leading zero omitted, Abs format (unit mm)*
G04 Created by KiCad (PCBNEW (5.1.10)-1) date 2023-01-28 17:59:57*
%MOMM*%
%LPD*%
G01*
G04 APERTURE LIST*
%TA.AperFunction,Profile*%
%ADD10C,0.050000*%
%TD*%
%TA.AperFunction,Profile*%
%ADD11C,0.100000*%
%TD*%
%ADD12C,0.200000*%
%ADD13C,0.300000*%
G04 APERTURE END LIST*
D10*
X15095561Y-18250154D02*
G75*
G03*
X15095561Y-18250154I-250023J0D01*
G01*
X7775789Y-18242534D02*
G75*
G03*
X7775789Y-18242534I-250023J0D01*
G01*
X7726005Y-9354566D02*
G75*
G03*
X7726005Y-9354566I-250023J0D01*
G01*
X15144329Y-9358122D02*
G75*
G03*
X15144329Y-9358122I-250023J0D01*
G01*
D11*
X7122414Y-9002014D02*
X15268194Y-9007094D01*
X7127494Y-18651982D02*
X7122414Y-9002014D01*
X7127494Y-18652490D02*
X7127494Y-18651982D01*
X15250922Y-18649442D02*
X7127494Y-18652490D01*
X15268194Y-9007094D02*
X15250922Y-18649442D01*
D12*
X7935760Y-17322330D02*
X8035760Y-17422330D01*
X8035760Y-17322330D02*
X7935760Y-17422330D01*
X7935760Y-17576330D02*
X8035760Y-17676330D01*
X8035760Y-17576330D02*
X7935760Y-17676330D01*
X7935760Y-17830330D02*
X8035760Y-17930330D01*
X8035760Y-17830330D02*
X7935760Y-17930330D01*
X8295170Y-17322330D02*
X8395170Y-17422330D01*
X8395170Y-17322330D02*
X8295170Y-17422330D01*
X8295170Y-17576330D02*
X8395170Y-17676330D01*
X8395170Y-17576330D02*
X8295170Y-17676330D01*
X8295170Y-17830330D02*
X8395170Y-17930330D01*
X8395170Y-17830330D02*
X8295170Y-17930330D01*
X8376450Y-9981730D02*
X8476450Y-10081730D01*
X8476450Y-9981730D02*
X8376450Y-10081730D01*
X8376450Y-10348760D02*
X8476450Y-10448760D01*
X8476450Y-10348760D02*
X8376450Y-10448760D01*
X8630450Y-9981730D02*
X8730450Y-10081730D01*
X8730450Y-9981730D02*
X8630450Y-10081730D01*
X8630450Y-10348760D02*
X8730450Y-10448760D01*
X8730450Y-10348760D02*
X8630450Y-10448760D01*
X8653310Y-17322330D02*
X8753310Y-17422330D01*
X8753310Y-17322330D02*
X8653310Y-17422330D01*
X8653310Y-17576330D02*
X8753310Y-17676330D01*
X8753310Y-17576330D02*
X8653310Y-17676330D01*
X8653310Y-17830330D02*
X8753310Y-17930330D01*
X8753310Y-17830330D02*
X8653310Y-17930330D01*
X8884450Y-9981730D02*
X8984450Y-10081730D01*
X8984450Y-9981730D02*
X8884450Y-10081730D01*
X8884450Y-10348760D02*
X8984450Y-10448760D01*
X8984450Y-10348760D02*
X8884450Y-10448760D01*
X9011450Y-17322330D02*
X9111450Y-17422330D01*
X9111450Y-17322330D02*
X9011450Y-17422330D01*
X9011450Y-17576330D02*
X9111450Y-17676330D01*
X9111450Y-17576330D02*
X9011450Y-17676330D01*
X9011450Y-17830330D02*
X9111450Y-17930330D01*
X9111450Y-17830330D02*
X9011450Y-17930330D01*
X9138450Y-9981730D02*
X9238450Y-10081730D01*
X9238450Y-9981730D02*
X9138450Y-10081730D01*
X9138450Y-10348760D02*
X9238450Y-10448760D01*
X9238450Y-10348760D02*
X9138450Y-10448760D01*
X9370860Y-17322330D02*
X9470860Y-17422330D01*
X9470860Y-17322330D02*
X9370860Y-17422330D01*
X9370860Y-17576330D02*
X9470860Y-17676330D01*
X9470860Y-17576330D02*
X9370860Y-17676330D01*
X9370860Y-17830330D02*
X9470860Y-17930330D01*
X9470860Y-17830330D02*
X9370860Y-17930330D01*
X9392450Y-9981730D02*
X9492450Y-10081730D01*
X9492450Y-9981730D02*
X9392450Y-10081730D01*
X9392450Y-10348760D02*
X9492450Y-10448760D01*
X9492450Y-10348760D02*
X9392450Y-10448760D01*
X9646450Y-9981730D02*
X9746450Y-10081730D01*
X9746450Y-9981730D02*
X9646450Y-10081730D01*
X9646450Y-10348760D02*
X9746450Y-10448760D01*
X9746450Y-10348760D02*
X9646450Y-10448760D01*
X9730270Y-17322330D02*
X9830270Y-17422330D01*
X9830270Y-17322330D02*
X9730270Y-17422330D01*
X9730270Y-17576330D02*
X9830270Y-17676330D01*
X9830270Y-17576330D02*
X9730270Y-17676330D01*
X9730270Y-17830330D02*
X9830270Y-17930330D01*
X9830270Y-17830330D02*
X9730270Y-17930330D01*
X9900450Y-9981730D02*
X10000450Y-10081730D01*
X10000450Y-9981730D02*
X9900450Y-10081730D01*
X9900450Y-10348760D02*
X10000450Y-10448760D01*
X10000450Y-10348760D02*
X9900450Y-10448760D01*
X10090950Y-17321060D02*
X10190950Y-17421060D01*
X10190950Y-17321060D02*
X10090950Y-17421060D01*
X10090950Y-17575060D02*
X10190950Y-17675060D01*
X10190950Y-17575060D02*
X10090950Y-17675060D01*
X10090950Y-17829060D02*
X10190950Y-17929060D01*
X10190950Y-17829060D02*
X10090950Y-17929060D01*
X10154450Y-9981730D02*
X10254450Y-10081730D01*
X10254450Y-9981730D02*
X10154450Y-10081730D01*
X10154450Y-10348760D02*
X10254450Y-10448760D01*
X10254450Y-10348760D02*
X10154450Y-10448760D01*
X10348760Y-14347990D02*
X10448760Y-14447990D01*
X10448760Y-14347990D02*
X10348760Y-14447990D01*
X10408450Y-9981730D02*
X10508450Y-10081730D01*
X10508450Y-9981730D02*
X10408450Y-10081730D01*
X10408450Y-10348760D02*
X10508450Y-10448760D01*
X10508450Y-10348760D02*
X10408450Y-10448760D01*
X10449090Y-17321060D02*
X10549090Y-17421060D01*
X10549090Y-17321060D02*
X10449090Y-17421060D01*
X10449090Y-17575060D02*
X10549090Y-17675060D01*
X10549090Y-17575060D02*
X10449090Y-17675060D01*
X10449090Y-17829060D02*
X10549090Y-17929060D01*
X10549090Y-17829060D02*
X10449090Y-17929060D01*
X10602760Y-14347990D02*
X10702760Y-14447990D01*
X10702760Y-14347990D02*
X10602760Y-14447990D01*
X10662450Y-9981730D02*
X10762450Y-10081730D01*
X10762450Y-9981730D02*
X10662450Y-10081730D01*
X10662450Y-10348760D02*
X10762450Y-10448760D01*
X10762450Y-10348760D02*
X10662450Y-10448760D01*
X10809770Y-17322330D02*
X10909770Y-17422330D01*
X10909770Y-17322330D02*
X10809770Y-17422330D01*
X10809770Y-17576330D02*
X10909770Y-17676330D01*
X10909770Y-17576330D02*
X10809770Y-17676330D01*
X10809770Y-17830330D02*
X10909770Y-17930330D01*
X10909770Y-17830330D02*
X10809770Y-17930330D01*
X10916450Y-9981730D02*
X11016450Y-10081730D01*
X11016450Y-9981730D02*
X10916450Y-10081730D01*
X10916450Y-10348760D02*
X11016450Y-10448760D01*
X11016450Y-10348760D02*
X10916450Y-10448760D01*
X11169180Y-17323600D02*
X11269180Y-17423600D01*
X11269180Y-17323600D02*
X11169180Y-17423600D01*
X11169180Y-17577600D02*
X11269180Y-17677600D01*
X11269180Y-17577600D02*
X11169180Y-17677600D01*
X11169180Y-17831600D02*
X11269180Y-17931600D01*
X11269180Y-17831600D02*
X11169180Y-17931600D01*
X11401590Y-10101110D02*
X11501590Y-10201110D01*
X11501590Y-10101110D02*
X11401590Y-10201110D01*
X11401590Y-10355110D02*
X11501590Y-10455110D01*
X11501590Y-10355110D02*
X11401590Y-10455110D01*
X11401590Y-10609110D02*
X11501590Y-10709110D01*
X11501590Y-10609110D02*
X11401590Y-10709110D01*
X11401590Y-10863110D02*
X11501590Y-10963110D01*
X11501590Y-10863110D02*
X11401590Y-10963110D01*
X11401590Y-11117110D02*
X11501590Y-11217110D01*
X11501590Y-11117110D02*
X11401590Y-11217110D01*
X11401590Y-11371110D02*
X11501590Y-11471110D01*
X11501590Y-11371110D02*
X11401590Y-11471110D01*
X11401590Y-11625110D02*
X11501590Y-11725110D01*
X11501590Y-11625110D02*
X11401590Y-11725110D01*
X11401590Y-11879110D02*
X11501590Y-11979110D01*
X11501590Y-11879110D02*
X11401590Y-11979110D01*
X11401590Y-12133110D02*
X11501590Y-12233110D01*
X11501590Y-12133110D02*
X11401590Y-12233110D01*
X11401590Y-12387110D02*
X11501590Y-12487110D01*
X11501590Y-12387110D02*
X11401590Y-12487110D01*
X11401590Y-12641110D02*
X11501590Y-12741110D01*
X11501590Y-12641110D02*
X11401590Y-12741110D01*
X11401590Y-12895110D02*
X11501590Y-12995110D01*
X11501590Y-12895110D02*
X11401590Y-12995110D01*
X11401590Y-13149110D02*
X11501590Y-13249110D01*
X11501590Y-13149110D02*
X11401590Y-13249110D01*
X11401590Y-13403110D02*
X11501590Y-13503110D01*
X11501590Y-13403110D02*
X11401590Y-13503110D01*
X11401590Y-13657110D02*
X11501590Y-13757110D01*
X11501590Y-13657110D02*
X11401590Y-13757110D01*
X11528590Y-17324870D02*
X11628590Y-17424870D01*
X11628590Y-17324870D02*
X11528590Y-17424870D01*
X11528590Y-17578870D02*
X11628590Y-17678870D01*
X11628590Y-17578870D02*
X11528590Y-17678870D01*
X11528590Y-17832870D02*
X11628590Y-17932870D01*
X11628590Y-17832870D02*
X11528590Y-17932870D01*
X11888000Y-17323600D02*
X11988000Y-17423600D01*
X11988000Y-17323600D02*
X11888000Y-17423600D01*
X11888000Y-17577600D02*
X11988000Y-17677600D01*
X11988000Y-17577600D02*
X11888000Y-17677600D01*
X11888000Y-17831600D02*
X11988000Y-17931600D01*
X11988000Y-17831600D02*
X11888000Y-17931600D01*
X12247410Y-17323600D02*
X12347410Y-17423600D01*
X12347410Y-17323600D02*
X12247410Y-17423600D01*
X12247410Y-17577600D02*
X12347410Y-17677600D01*
X12347410Y-17577600D02*
X12247410Y-17677600D01*
X12247410Y-17831600D02*
X12347410Y-17931600D01*
X12347410Y-17831600D02*
X12247410Y-17931600D01*
X12604280Y-17323600D02*
X12704280Y-17423600D01*
X12704280Y-17323600D02*
X12604280Y-17423600D01*
X12604280Y-17577600D02*
X12704280Y-17677600D01*
X12704280Y-17577600D02*
X12604280Y-17677600D01*
X12604280Y-17831600D02*
X12704280Y-17931600D01*
X12704280Y-17831600D02*
X12604280Y-17931600D01*
X12964960Y-17323600D02*
X13064960Y-17423600D01*
X13064960Y-17323600D02*
X12964960Y-17423600D01*
X12964960Y-17577600D02*
X13064960Y-17677600D01*
X13064960Y-17577600D02*
X12964960Y-17677600D01*
X12964960Y-17831600D02*
X13064960Y-17931600D01*
X13064960Y-17831600D02*
X12964960Y-17931600D01*
X13325640Y-17323600D02*
X13425640Y-17423600D01*
X13425640Y-17323600D02*
X13325640Y-17423600D01*
X13325640Y-17577600D02*
X13425640Y-17677600D01*
X13425640Y-17577600D02*
X13325640Y-17677600D01*
X13325640Y-17831600D02*
X13425640Y-17931600D01*
X13425640Y-17831600D02*
X13325640Y-17931600D01*
X13686320Y-17322330D02*
X13786320Y-17422330D01*
X13786320Y-17322330D02*
X13686320Y-17422330D01*
X13686320Y-17576330D02*
X13786320Y-17676330D01*
X13786320Y-17576330D02*
X13686320Y-17676330D01*
X13686320Y-17830330D02*
X13786320Y-17930330D01*
X13786320Y-17830330D02*
X13686320Y-17930330D01*
X13925080Y-10097300D02*
X14025080Y-10197300D01*
X14025080Y-10097300D02*
X13925080Y-10197300D01*
X13925080Y-10351300D02*
X14025080Y-10451300D01*
X14025080Y-10351300D02*
X13925080Y-10451300D01*
X13925080Y-10605300D02*
X14025080Y-10705300D01*
X14025080Y-10605300D02*
X13925080Y-10705300D01*
X13925080Y-10859300D02*
X14025080Y-10959300D01*
X14025080Y-10859300D02*
X13925080Y-10959300D01*
X13925080Y-11113300D02*
X14025080Y-11213300D01*
X14025080Y-11113300D02*
X13925080Y-11213300D01*
X13925080Y-11367300D02*
X14025080Y-11467300D01*
X14025080Y-11367300D02*
X13925080Y-11467300D01*
X13925080Y-11621300D02*
X14025080Y-11721300D01*
X14025080Y-11621300D02*
X13925080Y-11721300D01*
X13925080Y-11875300D02*
X14025080Y-11975300D01*
X14025080Y-11875300D02*
X13925080Y-11975300D01*
X13925080Y-12129300D02*
X14025080Y-12229300D01*
X14025080Y-12129300D02*
X13925080Y-12229300D01*
X13925080Y-12383300D02*
X14025080Y-12483300D01*
X14025080Y-12383300D02*
X13925080Y-12483300D01*
X13925080Y-12637300D02*
X14025080Y-12737300D01*
X14025080Y-12637300D02*
X13925080Y-12737300D01*
X13925080Y-12891300D02*
X14025080Y-12991300D01*
X14025080Y-12891300D02*
X13925080Y-12991300D01*
X13925080Y-13145300D02*
X14025080Y-13245300D01*
X14025080Y-13145300D02*
X13925080Y-13245300D01*
X13925080Y-13399300D02*
X14025080Y-13499300D01*
X14025080Y-13399300D02*
X13925080Y-13499300D01*
X13925080Y-13653300D02*
X14025080Y-13753300D01*
X14025080Y-13653300D02*
X13925080Y-13753300D01*
X14045730Y-17322330D02*
X14145730Y-17422330D01*
X14145730Y-17322330D02*
X14045730Y-17422330D01*
X14045730Y-17576330D02*
X14145730Y-17676330D01*
X14145730Y-17576330D02*
X14045730Y-17676330D01*
X14045730Y-17830330D02*
X14145730Y-17930330D01*
X14145730Y-17830330D02*
X14045730Y-17930330D01*
X8730290Y-11625580D02*
G75*
G03*
X8730290Y-11625580I-60000J0D01*
G01*
X8730290Y-12006580D02*
G75*
G03*
X8730290Y-12006580I-60000J0D01*
G01*
D13*
X7403842Y-19123204D02*
X7403842Y-18823204D01*
X7475271Y-18823204D01*
X7518128Y-18837490D01*
X7546700Y-18866062D01*
X7560985Y-18894633D01*
X7575271Y-18951776D01*
X7575271Y-18994633D01*
X7560985Y-19051776D01*
X7546700Y-19080347D01*
X7518128Y-19108919D01*
X7475271Y-19123204D01*
X7403842Y-19123204D01*
X7703842Y-19123204D02*
X7703842Y-18923204D01*
X7703842Y-18980347D02*
X7718128Y-18951776D01*
X7732414Y-18937490D01*
X7760985Y-18923204D01*
X7789557Y-18923204D01*
X7889557Y-19123204D02*
X7889557Y-18923204D01*
X7889557Y-18823204D02*
X7875271Y-18837490D01*
X7889557Y-18851776D01*
X7903842Y-18837490D01*
X7889557Y-18823204D01*
X7889557Y-18851776D01*
X8075271Y-19123204D02*
X8046700Y-19108919D01*
X8032414Y-19080347D01*
X8032414Y-18823204D01*
X8232414Y-19123204D02*
X8203842Y-19108919D01*
X8189557Y-19080347D01*
X8189557Y-18823204D01*
X8575271Y-19123204D02*
X8575271Y-18823204D01*
X8675271Y-19037490D01*
X8775271Y-18823204D01*
X8775271Y-19123204D01*
X9046700Y-19123204D02*
X9046700Y-18966062D01*
X9032414Y-18937490D01*
X9003842Y-18923204D01*
X8946700Y-18923204D01*
X8918128Y-18937490D01*
X9046700Y-19108919D02*
X9018128Y-19123204D01*
X8946700Y-19123204D01*
X8918128Y-19108919D01*
X8903842Y-19080347D01*
X8903842Y-19051776D01*
X8918128Y-19023204D01*
X8946700Y-19008919D01*
X9018128Y-19008919D01*
X9046700Y-18994633D01*
X9189557Y-18923204D02*
X9189557Y-19223204D01*
X9189557Y-18937490D02*
X9218128Y-18923204D01*
X9275271Y-18923204D01*
X9303842Y-18937490D01*
X9318128Y-18951776D01*
X9332414Y-18980347D01*
X9332414Y-19066062D01*
X9318128Y-19094633D01*
X9303842Y-19108919D01*
X9275271Y-19123204D01*
X9218128Y-19123204D01*
X9189557Y-19108919D01*
X9460985Y-19094633D02*
X9475271Y-19108919D01*
X9460985Y-19123204D01*
X9446700Y-19108919D01*
X9460985Y-19094633D01*
X9460985Y-19123204D01*
X9460985Y-18937490D02*
X9475271Y-18951776D01*
X9460985Y-18966062D01*
X9446700Y-18951776D01*
X9460985Y-18937490D01*
X9460985Y-18966062D01*
X7017414Y-19567490D02*
X7117414Y-19667490D01*
X7117414Y-19567490D02*
X7017414Y-19667490D01*
X7560985Y-19753204D02*
X7389557Y-19753204D01*
X7475271Y-19753204D02*
X7475271Y-19453204D01*
X7446700Y-19496062D01*
X7418128Y-19524633D01*
X7389557Y-19538919D01*
X7689557Y-19724633D02*
X7703842Y-19738919D01*
X7689557Y-19753204D01*
X7675271Y-19738919D01*
X7689557Y-19724633D01*
X7689557Y-19753204D01*
X7889557Y-19453204D02*
X7918128Y-19453204D01*
X7946700Y-19467490D01*
X7960985Y-19481776D01*
X7975271Y-19510347D01*
X7989557Y-19567490D01*
X7989557Y-19638919D01*
X7975271Y-19696062D01*
X7960985Y-19724633D01*
X7946700Y-19738919D01*
X7918128Y-19753204D01*
X7889557Y-19753204D01*
X7860985Y-19738919D01*
X7846700Y-19724633D01*
X7832414Y-19696062D01*
X7818128Y-19638919D01*
X7818128Y-19567490D01*
X7832414Y-19510347D01*
X7846700Y-19481776D01*
X7860985Y-19467490D01*
X7889557Y-19453204D01*
X8175271Y-19453204D02*
X8203842Y-19453204D01*
X8232414Y-19467490D01*
X8246700Y-19481776D01*
X8260985Y-19510347D01*
X8275271Y-19567490D01*
X8275271Y-19638919D01*
X8260985Y-19696062D01*
X8246700Y-19724633D01*
X8232414Y-19738919D01*
X8203842Y-19753204D01*
X8175271Y-19753204D01*
X8146700Y-19738919D01*
X8132414Y-19724633D01*
X8118128Y-19696062D01*
X8103842Y-19638919D01*
X8103842Y-19567490D01*
X8118128Y-19510347D01*
X8132414Y-19481776D01*
X8146700Y-19467490D01*
X8175271Y-19453204D01*
X8460985Y-19453204D02*
X8489557Y-19453204D01*
X8518128Y-19467490D01*
X8532414Y-19481776D01*
X8546700Y-19510347D01*
X8560985Y-19567490D01*
X8560985Y-19638919D01*
X8546700Y-19696062D01*
X8532414Y-19724633D01*
X8518128Y-19738919D01*
X8489557Y-19753204D01*
X8460985Y-19753204D01*
X8432414Y-19738919D01*
X8418128Y-19724633D01*
X8403842Y-19696062D01*
X8389557Y-19638919D01*
X8389557Y-19567490D01*
X8403842Y-19510347D01*
X8418128Y-19481776D01*
X8432414Y-19467490D01*
X8460985Y-19453204D01*
X8689557Y-19753204D02*
X8689557Y-19553204D01*
X8689557Y-19581776D02*
X8703842Y-19567490D01*
X8732414Y-19553204D01*
X8775271Y-19553204D01*
X8803842Y-19567490D01*
X8818128Y-19596062D01*
X8818128Y-19753204D01*
X8818128Y-19596062D02*
X8832414Y-19567490D01*
X8860985Y-19553204D01*
X8903842Y-19553204D01*
X8932414Y-19567490D01*
X8946700Y-19596062D01*
X8946700Y-19753204D01*
X9089557Y-19753204D02*
X9089557Y-19553204D01*
X9089557Y-19581776D02*
X9103842Y-19567490D01*
X9132414Y-19553204D01*
X9175271Y-19553204D01*
X9203842Y-19567490D01*
X9218128Y-19596062D01*
X9218128Y-19753204D01*
X9218128Y-19596062D02*
X9232414Y-19567490D01*
X9260985Y-19553204D01*
X9303842Y-19553204D01*
X9332414Y-19567490D01*
X9346700Y-19596062D01*
X9346700Y-19753204D01*
X9932414Y-19438919D02*
X9675271Y-19824633D01*
X10318128Y-19453204D02*
X10346700Y-19453204D01*
X10375271Y-19467490D01*
X10389557Y-19481776D01*
X10403842Y-19510347D01*
X10418128Y-19567490D01*
X10418128Y-19638919D01*
X10403842Y-19696062D01*
X10389557Y-19724633D01*
X10375271Y-19738919D01*
X10346700Y-19753204D01*
X10318128Y-19753204D01*
X10289557Y-19738919D01*
X10275271Y-19724633D01*
X10260985Y-19696062D01*
X10246700Y-19638919D01*
X10246700Y-19567490D01*
X10260985Y-19510347D01*
X10275271Y-19481776D01*
X10289557Y-19467490D01*
X10318128Y-19453204D01*
X10546700Y-19724633D02*
X10560985Y-19738919D01*
X10546700Y-19753204D01*
X10532414Y-19738919D01*
X10546700Y-19724633D01*
X10546700Y-19753204D01*
X10746700Y-19453204D02*
X10775271Y-19453204D01*
X10803842Y-19467490D01*
X10818128Y-19481776D01*
X10832414Y-19510347D01*
X10846700Y-19567490D01*
X10846700Y-19638919D01*
X10832414Y-19696062D01*
X10818128Y-19724633D01*
X10803842Y-19738919D01*
X10775271Y-19753204D01*
X10746700Y-19753204D01*
X10718128Y-19738919D01*
X10703842Y-19724633D01*
X10689557Y-19696062D01*
X10675271Y-19638919D01*
X10675271Y-19567490D01*
X10689557Y-19510347D01*
X10703842Y-19481776D01*
X10718128Y-19467490D01*
X10746700Y-19453204D01*
X10946700Y-19453204D02*
X11132414Y-19453204D01*
X11032414Y-19567490D01*
X11075271Y-19567490D01*
X11103842Y-19581776D01*
X11118128Y-19596062D01*
X11132414Y-19624633D01*
X11132414Y-19696062D01*
X11118128Y-19724633D01*
X11103842Y-19738919D01*
X11075271Y-19753204D01*
X10989557Y-19753204D01*
X10960985Y-19738919D01*
X10946700Y-19724633D01*
X11275271Y-19753204D02*
X11332414Y-19753204D01*
X11360985Y-19738919D01*
X11375271Y-19724633D01*
X11403842Y-19681776D01*
X11418128Y-19624633D01*
X11418128Y-19510347D01*
X11403842Y-19481776D01*
X11389557Y-19467490D01*
X11360985Y-19453204D01*
X11303842Y-19453204D01*
X11275271Y-19467490D01*
X11260985Y-19481776D01*
X11246700Y-19510347D01*
X11246700Y-19581776D01*
X11260985Y-19610347D01*
X11275271Y-19624633D01*
X11303842Y-19638919D01*
X11360985Y-19638919D01*
X11389557Y-19624633D01*
X11403842Y-19610347D01*
X11418128Y-19581776D01*
X11675271Y-19553204D02*
X11675271Y-19753204D01*
X11603842Y-19438919D02*
X11532414Y-19653204D01*
X11718128Y-19653204D01*
X11818128Y-19453204D02*
X11818128Y-19510347D01*
X11932414Y-19453204D02*
X11932414Y-19510347D01*
X12375271Y-19867490D02*
X12360985Y-19853204D01*
X12332414Y-19810347D01*
X12318128Y-19781776D01*
X12303842Y-19738919D01*
X12289557Y-19667490D01*
X12289557Y-19610347D01*
X12303842Y-19538919D01*
X12318128Y-19496062D01*
X12332414Y-19467490D01*
X12360985Y-19424633D01*
X12375271Y-19410347D01*
X12646700Y-19753204D02*
X12475271Y-19753204D01*
X12560985Y-19753204D02*
X12560985Y-19453204D01*
X12532414Y-19496062D01*
X12503842Y-19524633D01*
X12475271Y-19538919D01*
X12832414Y-19453204D02*
X12860985Y-19453204D01*
X12889557Y-19467490D01*
X12903842Y-19481776D01*
X12918128Y-19510347D01*
X12932414Y-19567490D01*
X12932414Y-19638919D01*
X12918128Y-19696062D01*
X12903842Y-19724633D01*
X12889557Y-19738919D01*
X12860985Y-19753204D01*
X12832414Y-19753204D01*
X12803842Y-19738919D01*
X12789557Y-19724633D01*
X12775271Y-19696062D01*
X12760985Y-19638919D01*
X12760985Y-19567490D01*
X12775271Y-19510347D01*
X12789557Y-19481776D01*
X12803842Y-19467490D01*
X12832414Y-19453204D01*
X13103842Y-19581776D02*
X13075271Y-19567490D01*
X13060985Y-19553204D01*
X13046700Y-19524633D01*
X13046700Y-19510347D01*
X13060985Y-19481776D01*
X13075271Y-19467490D01*
X13103842Y-19453204D01*
X13160985Y-19453204D01*
X13189557Y-19467490D01*
X13203842Y-19481776D01*
X13218128Y-19510347D01*
X13218128Y-19524633D01*
X13203842Y-19553204D01*
X13189557Y-19567490D01*
X13160985Y-19581776D01*
X13103842Y-19581776D01*
X13075271Y-19596062D01*
X13060985Y-19610347D01*
X13046700Y-19638919D01*
X13046700Y-19696062D01*
X13060985Y-19724633D01*
X13075271Y-19738919D01*
X13103842Y-19753204D01*
X13160985Y-19753204D01*
X13189557Y-19738919D01*
X13203842Y-19724633D01*
X13218128Y-19696062D01*
X13218128Y-19638919D01*
X13203842Y-19610347D01*
X13189557Y-19596062D01*
X13160985Y-19581776D01*
X13575271Y-19753204D02*
X13575271Y-19453204D01*
X13703842Y-19753204D02*
X13703842Y-19596062D01*
X13689557Y-19567490D01*
X13660985Y-19553204D01*
X13618128Y-19553204D01*
X13589557Y-19567490D01*
X13575271Y-19581776D01*
X13889557Y-19753204D02*
X13860985Y-19738919D01*
X13846700Y-19724633D01*
X13832414Y-19696062D01*
X13832414Y-19610347D01*
X13846700Y-19581776D01*
X13860985Y-19567490D01*
X13889557Y-19553204D01*
X13932414Y-19553204D01*
X13960985Y-19567490D01*
X13975271Y-19581776D01*
X13989557Y-19610347D01*
X13989557Y-19696062D01*
X13975271Y-19724633D01*
X13960985Y-19738919D01*
X13932414Y-19753204D01*
X13889557Y-19753204D01*
X14160985Y-19753204D02*
X14132414Y-19738919D01*
X14118128Y-19710347D01*
X14118128Y-19453204D01*
X14389557Y-19738919D02*
X14360985Y-19753204D01*
X14303842Y-19753204D01*
X14275271Y-19738919D01*
X14260985Y-19710347D01*
X14260985Y-19596062D01*
X14275271Y-19567490D01*
X14303842Y-19553204D01*
X14360985Y-19553204D01*
X14389557Y-19567490D01*
X14403842Y-19596062D01*
X14403842Y-19624633D01*
X14260985Y-19653204D01*
X14518128Y-19738919D02*
X14546700Y-19753204D01*
X14603842Y-19753204D01*
X14632414Y-19738919D01*
X14646700Y-19710347D01*
X14646700Y-19696062D01*
X14632414Y-19667490D01*
X14603842Y-19653204D01*
X14560985Y-19653204D01*
X14532414Y-19638919D01*
X14518128Y-19610347D01*
X14518128Y-19596062D01*
X14532414Y-19567490D01*
X14560985Y-19553204D01*
X14603842Y-19553204D01*
X14632414Y-19567490D01*
X14746700Y-19867490D02*
X14760985Y-19853204D01*
X14789557Y-19810347D01*
X14803842Y-19781776D01*
X14818128Y-19738919D01*
X14832414Y-19667490D01*
X14832414Y-19610347D01*
X14818128Y-19538919D01*
X14803842Y-19496062D01*
X14789557Y-19467490D01*
X14760985Y-19424633D01*
X14746700Y-19410347D01*
X7117414Y-20013490D02*
G75*
G03*
X7117414Y-20013490I-60000J0D01*
G01*
X7560985Y-20149204D02*
X7389557Y-20149204D01*
X7475271Y-20149204D02*
X7475271Y-19849204D01*
X7446700Y-19892062D01*
X7418128Y-19920633D01*
X7389557Y-19934919D01*
X7689557Y-20120633D02*
X7703842Y-20134919D01*
X7689557Y-20149204D01*
X7675271Y-20134919D01*
X7689557Y-20120633D01*
X7689557Y-20149204D01*
X7818128Y-19877776D02*
X7832414Y-19863490D01*
X7860985Y-19849204D01*
X7932414Y-19849204D01*
X7960985Y-19863490D01*
X7975271Y-19877776D01*
X7989557Y-19906347D01*
X7989557Y-19934919D01*
X7975271Y-19977776D01*
X7803842Y-20149204D01*
X7989557Y-20149204D01*
X8175271Y-19849204D02*
X8203842Y-19849204D01*
X8232414Y-19863490D01*
X8246700Y-19877776D01*
X8260985Y-19906347D01*
X8275271Y-19963490D01*
X8275271Y-20034919D01*
X8260985Y-20092062D01*
X8246700Y-20120633D01*
X8232414Y-20134919D01*
X8203842Y-20149204D01*
X8175271Y-20149204D01*
X8146700Y-20134919D01*
X8132414Y-20120633D01*
X8118128Y-20092062D01*
X8103842Y-20034919D01*
X8103842Y-19963490D01*
X8118128Y-19906347D01*
X8132414Y-19877776D01*
X8146700Y-19863490D01*
X8175271Y-19849204D01*
X8460985Y-19849204D02*
X8489557Y-19849204D01*
X8518128Y-19863490D01*
X8532414Y-19877776D01*
X8546700Y-19906347D01*
X8560985Y-19963490D01*
X8560985Y-20034919D01*
X8546700Y-20092062D01*
X8532414Y-20120633D01*
X8518128Y-20134919D01*
X8489557Y-20149204D01*
X8460985Y-20149204D01*
X8432414Y-20134919D01*
X8418128Y-20120633D01*
X8403842Y-20092062D01*
X8389557Y-20034919D01*
X8389557Y-19963490D01*
X8403842Y-19906347D01*
X8418128Y-19877776D01*
X8432414Y-19863490D01*
X8460985Y-19849204D01*
X8689557Y-20149204D02*
X8689557Y-19949204D01*
X8689557Y-19977776D02*
X8703842Y-19963490D01*
X8732414Y-19949204D01*
X8775271Y-19949204D01*
X8803842Y-19963490D01*
X8818128Y-19992062D01*
X8818128Y-20149204D01*
X8818128Y-19992062D02*
X8832414Y-19963490D01*
X8860985Y-19949204D01*
X8903842Y-19949204D01*
X8932414Y-19963490D01*
X8946700Y-19992062D01*
X8946700Y-20149204D01*
X9089557Y-20149204D02*
X9089557Y-19949204D01*
X9089557Y-19977776D02*
X9103842Y-19963490D01*
X9132414Y-19949204D01*
X9175271Y-19949204D01*
X9203842Y-19963490D01*
X9218128Y-19992062D01*
X9218128Y-20149204D01*
X9218128Y-19992062D02*
X9232414Y-19963490D01*
X9260985Y-19949204D01*
X9303842Y-19949204D01*
X9332414Y-19963490D01*
X9346700Y-19992062D01*
X9346700Y-20149204D01*
X9932414Y-19834919D02*
X9675271Y-20220633D01*
X10318128Y-19849204D02*
X10346700Y-19849204D01*
X10375271Y-19863490D01*
X10389557Y-19877776D01*
X10403842Y-19906347D01*
X10418128Y-19963490D01*
X10418128Y-20034919D01*
X10403842Y-20092062D01*
X10389557Y-20120633D01*
X10375271Y-20134919D01*
X10346700Y-20149204D01*
X10318128Y-20149204D01*
X10289557Y-20134919D01*
X10275271Y-20120633D01*
X10260985Y-20092062D01*
X10246700Y-20034919D01*
X10246700Y-19963490D01*
X10260985Y-19906347D01*
X10275271Y-19877776D01*
X10289557Y-19863490D01*
X10318128Y-19849204D01*
X10546700Y-20120633D02*
X10560985Y-20134919D01*
X10546700Y-20149204D01*
X10532414Y-20134919D01*
X10546700Y-20120633D01*
X10546700Y-20149204D01*
X10746700Y-19849204D02*
X10775271Y-19849204D01*
X10803842Y-19863490D01*
X10818128Y-19877776D01*
X10832414Y-19906347D01*
X10846700Y-19963490D01*
X10846700Y-20034919D01*
X10832414Y-20092062D01*
X10818128Y-20120633D01*
X10803842Y-20134919D01*
X10775271Y-20149204D01*
X10746700Y-20149204D01*
X10718128Y-20134919D01*
X10703842Y-20120633D01*
X10689557Y-20092062D01*
X10675271Y-20034919D01*
X10675271Y-19963490D01*
X10689557Y-19906347D01*
X10703842Y-19877776D01*
X10718128Y-19863490D01*
X10746700Y-19849204D01*
X11103842Y-19949204D02*
X11103842Y-20149204D01*
X11032414Y-19834919D02*
X10960985Y-20049204D01*
X11146700Y-20049204D01*
X11232414Y-19849204D02*
X11432414Y-19849204D01*
X11303842Y-20149204D01*
X11532414Y-19877776D02*
X11546700Y-19863490D01*
X11575271Y-19849204D01*
X11646700Y-19849204D01*
X11675271Y-19863490D01*
X11689557Y-19877776D01*
X11703842Y-19906347D01*
X11703842Y-19934919D01*
X11689557Y-19977776D01*
X11518128Y-20149204D01*
X11703842Y-20149204D01*
X11818128Y-19849204D02*
X11818128Y-19906347D01*
X11932414Y-19849204D02*
X11932414Y-19906347D01*
X12375271Y-20263490D02*
X12360985Y-20249204D01*
X12332414Y-20206347D01*
X12318128Y-20177776D01*
X12303842Y-20134919D01*
X12289557Y-20063490D01*
X12289557Y-20006347D01*
X12303842Y-19934919D01*
X12318128Y-19892062D01*
X12332414Y-19863490D01*
X12360985Y-19820633D01*
X12375271Y-19806347D01*
X12475271Y-19877776D02*
X12489557Y-19863490D01*
X12518128Y-19849204D01*
X12589557Y-19849204D01*
X12618128Y-19863490D01*
X12632414Y-19877776D01*
X12646700Y-19906347D01*
X12646700Y-19934919D01*
X12632414Y-19977776D01*
X12460985Y-20149204D01*
X12646700Y-20149204D01*
X13003842Y-20149204D02*
X13003842Y-19849204D01*
X13132414Y-20149204D02*
X13132414Y-19992062D01*
X13118128Y-19963490D01*
X13089557Y-19949204D01*
X13046700Y-19949204D01*
X13018128Y-19963490D01*
X13003842Y-19977776D01*
X13318128Y-20149204D02*
X13289557Y-20134919D01*
X13275271Y-20120633D01*
X13260985Y-20092062D01*
X13260985Y-20006347D01*
X13275271Y-19977776D01*
X13289557Y-19963490D01*
X13318128Y-19949204D01*
X13360985Y-19949204D01*
X13389557Y-19963490D01*
X13403842Y-19977776D01*
X13418128Y-20006347D01*
X13418128Y-20092062D01*
X13403842Y-20120633D01*
X13389557Y-20134919D01*
X13360985Y-20149204D01*
X13318128Y-20149204D01*
X13589557Y-20149204D02*
X13560985Y-20134919D01*
X13546700Y-20106347D01*
X13546700Y-19849204D01*
X13818128Y-20134919D02*
X13789557Y-20149204D01*
X13732414Y-20149204D01*
X13703842Y-20134919D01*
X13689557Y-20106347D01*
X13689557Y-19992062D01*
X13703842Y-19963490D01*
X13732414Y-19949204D01*
X13789557Y-19949204D01*
X13818128Y-19963490D01*
X13832414Y-19992062D01*
X13832414Y-20020633D01*
X13689557Y-20049204D01*
X13946700Y-20134919D02*
X13975271Y-20149204D01*
X14032414Y-20149204D01*
X14060985Y-20134919D01*
X14075271Y-20106347D01*
X14075271Y-20092062D01*
X14060985Y-20063490D01*
X14032414Y-20049204D01*
X13989557Y-20049204D01*
X13960985Y-20034919D01*
X13946700Y-20006347D01*
X13946700Y-19992062D01*
X13960985Y-19963490D01*
X13989557Y-19949204D01*
X14032414Y-19949204D01*
X14060985Y-19963490D01*
X14175271Y-20263490D02*
X14189557Y-20249204D01*
X14218128Y-20206347D01*
X14232414Y-20177776D01*
X14246700Y-20134919D01*
X14260985Y-20063490D01*
X14260985Y-20006347D01*
X14246700Y-19934919D01*
X14232414Y-19892062D01*
X14218128Y-19863490D01*
X14189557Y-19820633D01*
X14175271Y-19806347D01*
M02*
