M48
; DRILL file {KiCad (5.1.10)-1} date 01/28/23 17:59:29
; FORMAT={-:-/ absolute / metric / decimal}
; #@! TF.CreationDate,2023-01-28T17:59:29+01:00
; #@! TF.GenerationSoftware,Kicad,Pcbnew,(5.1.10)-1
; #@! TF.FileFunction,Plated,1,2,PTH
FMAT,2
METRIC
T1C1.000
T2C1.200
%
G90
G05
T1
X79.858Y-173.723
X79.858Y-176.263
X79.858Y-178.803
X83.452Y-173.723
X83.452Y-176.263
X83.452Y-178.803
X84.264Y-100.317
X84.264Y-103.988
X86.804Y-100.317
X86.804Y-103.988
X87.033Y-173.723
X87.033Y-176.263
X87.033Y-178.803
X89.344Y-100.317
X89.344Y-103.988
X90.614Y-173.723
X90.614Y-176.263
X90.614Y-178.803
X91.885Y-100.317
X91.885Y-103.988
X94.209Y-173.723
X94.209Y-176.263
X94.209Y-178.803
X94.424Y-100.317
X94.424Y-103.988
X96.965Y-100.317
X96.965Y-103.988
X97.803Y-173.723
X97.803Y-176.263
X97.803Y-178.803
X99.504Y-100.317
X99.504Y-103.988
X101.409Y-173.711
X101.409Y-176.251
X101.409Y-178.791
X102.044Y-100.317
X102.044Y-103.988
X103.988Y-143.98
X104.584Y-100.317
X104.584Y-103.988
X104.991Y-173.711
X104.991Y-176.251
X104.991Y-178.791
X106.528Y-143.98
X107.124Y-100.317
X107.124Y-103.988
X108.598Y-173.723
X108.598Y-176.263
X108.598Y-178.803
X109.664Y-100.317
X109.664Y-103.988
X112.192Y-173.736
X112.192Y-176.276
X112.192Y-178.816
X114.516Y-101.511
X114.516Y-104.051
X114.516Y-106.591
X114.516Y-109.131
X114.516Y-111.671
X114.516Y-114.211
X114.516Y-116.751
X114.516Y-119.291
X114.516Y-121.831
X114.516Y-124.371
X114.516Y-126.911
X114.516Y-129.451
X114.516Y-131.991
X114.516Y-134.531
X114.516Y-137.071
X115.786Y-173.749
X115.786Y-176.289
X115.786Y-178.829
X119.38Y-173.736
X119.38Y-176.276
X119.38Y-178.816
X122.974Y-173.736
X122.974Y-176.276
X122.974Y-178.816
X126.543Y-173.736
X126.543Y-176.276
X126.543Y-178.816
X130.15Y-173.736
X130.15Y-176.276
X130.15Y-178.816
X133.756Y-173.736
X133.756Y-176.276
X133.756Y-178.816
X137.363Y-173.723
X137.363Y-176.263
X137.363Y-178.803
X139.751Y-101.473
X139.751Y-104.013
X139.751Y-106.553
X139.751Y-109.093
X139.751Y-111.633
X139.751Y-114.173
X139.751Y-116.713
X139.751Y-119.253
X139.751Y-121.793
X139.751Y-124.333
X139.751Y-126.873
X139.751Y-129.413
X139.751Y-131.953
X139.751Y-134.493
X139.751Y-137.033
X140.957Y-173.723
X140.957Y-176.263
X140.957Y-178.803
T2
X86.703Y-116.256
X86.703Y-120.066
T0
M30
