G04 #@! TF.GenerationSoftware,KiCad,Pcbnew,(5.1.10)-1*
G04 #@! TF.CreationDate,2023-01-28T17:58:28+01:00*
G04 #@! TF.ProjectId,servo_board,73657276-6f5f-4626-9f61-72642e6b6963,1.0*
G04 #@! TF.SameCoordinates,Original*
G04 #@! TF.FileFunction,Copper,L2,Bot*
G04 #@! TF.FilePolarity,Positive*
%FSLAX46Y46*%
G04 Gerber Fmt 4.6, Leading zero omitted, Abs format (unit mm)*
G04 Created by KiCad (PCBNEW (5.1.10)-1) date 2023-01-28 17:58:28*
%MOMM*%
%LPD*%
G01*
G04 APERTURE LIST*
G04 #@! TA.AperFunction,ComponentPad*
%ADD10O,1.700000X1.700000*%
G04 #@! TD*
G04 #@! TA.AperFunction,ComponentPad*
%ADD11R,1.700000X1.700000*%
G04 #@! TD*
G04 #@! TA.AperFunction,ComponentPad*
%ADD12O,3.600000X1.800000*%
G04 #@! TD*
G04 #@! TA.AperFunction,Conductor*
%ADD13C,0.500000*%
G04 #@! TD*
G04 #@! TA.AperFunction,Conductor*
%ADD14C,0.250000*%
G04 #@! TD*
G04 #@! TA.AperFunction,Conductor*
%ADD15C,0.254000*%
G04 #@! TD*
G04 #@! TA.AperFunction,Conductor*
%ADD16C,0.100000*%
G04 #@! TD*
G04 APERTURE END LIST*
D10*
X84264500Y-100317300D03*
X86804500Y-100317300D03*
X89344500Y-100317300D03*
X91884500Y-100317300D03*
X94424500Y-100317300D03*
X96964500Y-100317300D03*
X99504500Y-100317300D03*
X102044500Y-100317300D03*
X104584500Y-100317300D03*
X107124500Y-100317300D03*
D11*
X109664500Y-100317300D03*
D10*
X97802700Y-178803300D03*
X97802700Y-176263300D03*
D11*
X97802700Y-173723300D03*
D10*
X115785900Y-178828700D03*
X115785900Y-176288700D03*
D11*
X115785900Y-173748700D03*
D10*
X108597700Y-178803300D03*
X108597700Y-176263300D03*
D11*
X108597700Y-173723300D03*
D10*
X119380000Y-178816000D03*
X119380000Y-176276000D03*
D11*
X119380000Y-173736000D03*
D10*
X104990900Y-178790600D03*
X104990900Y-176250600D03*
D11*
X104990900Y-173710600D03*
D10*
X94208600Y-178803300D03*
X94208600Y-176263300D03*
D11*
X94208600Y-173723300D03*
D10*
X140957300Y-178803300D03*
X140957300Y-176263300D03*
D11*
X140957300Y-173723300D03*
D10*
X137363200Y-178803300D03*
X137363200Y-176263300D03*
D11*
X137363200Y-173723300D03*
D10*
X83451700Y-178803300D03*
X83451700Y-176263300D03*
D11*
X83451700Y-173723300D03*
D10*
X112191800Y-178816000D03*
X112191800Y-176276000D03*
D11*
X112191800Y-173736000D03*
D10*
X122974100Y-178816000D03*
X122974100Y-176276000D03*
D11*
X122974100Y-173736000D03*
D10*
X101409500Y-178790600D03*
X101409500Y-176250600D03*
D11*
X101409500Y-173710600D03*
D10*
X90614500Y-178803300D03*
X90614500Y-176263300D03*
D11*
X90614500Y-173723300D03*
D10*
X126542800Y-178816000D03*
X126542800Y-176276000D03*
D11*
X126542800Y-173736000D03*
D10*
X130149600Y-178816000D03*
X130149600Y-176276000D03*
D11*
X130149600Y-173736000D03*
D10*
X133756400Y-178816000D03*
X133756400Y-176276000D03*
D11*
X133756400Y-173736000D03*
D10*
X79857600Y-178803300D03*
X79857600Y-176263300D03*
D11*
X79857600Y-173723300D03*
D10*
X87033100Y-178803300D03*
X87033100Y-176263300D03*
D11*
X87033100Y-173723300D03*
D10*
X103987600Y-143979900D03*
D11*
X106527600Y-143979900D03*
D10*
X84264500Y-103987600D03*
X86804500Y-103987600D03*
X89344500Y-103987600D03*
X91884500Y-103987600D03*
X94424500Y-103987600D03*
X96964500Y-103987600D03*
X99504500Y-103987600D03*
X102044500Y-103987600D03*
X104584500Y-103987600D03*
X107124500Y-103987600D03*
D11*
X109664500Y-103987600D03*
D10*
X139750800Y-137033000D03*
X139750800Y-134493000D03*
X139750800Y-131953000D03*
X139750800Y-129413000D03*
X139750800Y-126873000D03*
X139750800Y-124333000D03*
X139750800Y-121793000D03*
X139750800Y-119253000D03*
X139750800Y-116713000D03*
X139750800Y-114173000D03*
X139750800Y-111633000D03*
X139750800Y-109093000D03*
X139750800Y-106553000D03*
X139750800Y-104013000D03*
D11*
X139750800Y-101473000D03*
X114515900Y-101511100D03*
D10*
X114515900Y-104051100D03*
X114515900Y-106591100D03*
X114515900Y-109131100D03*
X114515900Y-111671100D03*
X114515900Y-114211100D03*
X114515900Y-116751100D03*
X114515900Y-119291100D03*
X114515900Y-121831100D03*
X114515900Y-124371100D03*
X114515900Y-126911100D03*
X114515900Y-129451100D03*
X114515900Y-131991100D03*
X114515900Y-134531100D03*
X114515900Y-137071100D03*
D12*
X86702900Y-116255800D03*
G04 #@! TA.AperFunction,ComponentPad*
G36*
G01*
X88252900Y-120965800D02*
X85152900Y-120965800D01*
G75*
G02*
X84902900Y-120715800I0J250000D01*
G01*
X84902900Y-119415800D01*
G75*
G02*
X85152900Y-119165800I250000J0D01*
G01*
X88252900Y-119165800D01*
G75*
G02*
X88502900Y-119415800I0J-250000D01*
G01*
X88502900Y-120715800D01*
G75*
G02*
X88252900Y-120965800I-250000J0D01*
G01*
G37*
G04 #@! TD.AperFunction*
D13*
X79857600Y-176263300D02*
X140957300Y-176263300D01*
X82964499Y-101617301D02*
X84264500Y-100317300D01*
X82964499Y-107443701D02*
X82964499Y-101617301D01*
X113891899Y-138371101D02*
X82964499Y-107443701D01*
X138412699Y-138371101D02*
X113891899Y-138371101D01*
X139750800Y-137033000D02*
X138412699Y-138371101D01*
X142257301Y-177503299D02*
X140957300Y-178803300D01*
X142257301Y-136999501D02*
X142257301Y-177503299D01*
X139750800Y-134493000D02*
X142257301Y-136999501D01*
D14*
X112268000Y-109131100D02*
X107124500Y-103987600D01*
X114515900Y-109131100D02*
X112268000Y-109131100D01*
X114515900Y-111671100D02*
X113880900Y-111671100D01*
X113880900Y-111671100D02*
X108216700Y-106006900D01*
X106603800Y-106006900D02*
X104584500Y-103987600D01*
X108216700Y-106006900D02*
X106603800Y-106006900D01*
X114515900Y-114211100D02*
X112598200Y-112293400D01*
X112598200Y-112293400D02*
X112598200Y-111024810D01*
X104513810Y-106456910D02*
X102044500Y-103987600D01*
X108030300Y-106456910D02*
X104513810Y-106456910D01*
X112598200Y-111024810D02*
X108030300Y-106456910D01*
X105658220Y-106940920D02*
X102457820Y-106940920D01*
X102457820Y-106940920D02*
X99504500Y-103987600D01*
X112148190Y-113430890D02*
X105658220Y-106940920D01*
X112148190Y-114383390D02*
X112148190Y-113430890D01*
X114515900Y-116751100D02*
X112148190Y-114383390D01*
X114515900Y-119291100D02*
X111429800Y-116205000D01*
X100367830Y-107390930D02*
X96964500Y-103987600D01*
X103657130Y-107390930D02*
X100367830Y-107390930D01*
X111429800Y-115163600D02*
X103657130Y-107390930D01*
X111429800Y-116205000D02*
X111429800Y-115163600D01*
X99903440Y-107840940D02*
X97364550Y-105302050D01*
X103078440Y-107840940D02*
X99903440Y-107840940D01*
X110540800Y-115303300D02*
X103078440Y-107840940D01*
X110540800Y-117856000D02*
X110540800Y-115303300D01*
X95738950Y-105302050D02*
X94424500Y-103987600D01*
X97364550Y-105302050D02*
X95738950Y-105302050D01*
X114515900Y-121831100D02*
X110540800Y-117856000D01*
X114515900Y-124371100D02*
X110045500Y-119900700D01*
X110045500Y-119900700D02*
X110045500Y-115444410D01*
X110045500Y-115444410D02*
X102906690Y-108305600D01*
X102906690Y-108305600D02*
X99663385Y-108305600D01*
X93648960Y-105752060D02*
X91884500Y-103987600D01*
X97109845Y-105752060D02*
X93648960Y-105752060D01*
X99663385Y-108305600D02*
X97109845Y-105752060D01*
X91558970Y-106202070D02*
X89344500Y-103987600D01*
X96923445Y-106202070D02*
X91558970Y-106202070D01*
X101732510Y-108755610D02*
X99476984Y-108755609D01*
X102727480Y-108762800D02*
X101739700Y-108762800D01*
X99476984Y-108755609D02*
X96923445Y-106202070D01*
X109499400Y-115534720D02*
X102727480Y-108762800D01*
X101739700Y-108762800D02*
X101732510Y-108755610D01*
X109499400Y-124434600D02*
X109499400Y-115534720D01*
X114515900Y-129451100D02*
X109499400Y-124434600D01*
X86804500Y-103987600D02*
X89547700Y-106730800D01*
X96815765Y-106730800D02*
X99330365Y-109245400D01*
X89547700Y-106730800D02*
X96815765Y-106730800D01*
X99330365Y-109245400D02*
X102501700Y-109245400D01*
X102501700Y-109245400D02*
X109049390Y-115793090D01*
X109049390Y-126524590D02*
X109049390Y-125494210D01*
X114515900Y-131991100D02*
X109049390Y-126524590D01*
X109049390Y-125494210D02*
X109049390Y-125723592D01*
X109049390Y-115793090D02*
X109049390Y-125494210D01*
X109651800Y-104090198D02*
X109651800Y-104241600D01*
X117970300Y-133616700D02*
X114515900Y-137071100D01*
X117970300Y-110846498D02*
X117970300Y-133616700D01*
X115079901Y-107956099D02*
X117970300Y-110846498D01*
X113632999Y-107956099D02*
X115079901Y-107956099D01*
X109664500Y-103987600D02*
X113632999Y-107956099D01*
X143078321Y-95542221D02*
X145455246Y-97919146D01*
X91579579Y-95542221D02*
X143078321Y-95542221D01*
X86804500Y-100317300D02*
X91579579Y-95542221D01*
X145455246Y-126248554D02*
X139750800Y-131953000D01*
X145455246Y-97919146D02*
X145455246Y-126248554D01*
X145005236Y-98714744D02*
X142282722Y-95992230D01*
X145005236Y-124158564D02*
X145005236Y-98714744D01*
X139750800Y-129413000D02*
X145005236Y-124158564D01*
X93669570Y-95992230D02*
X89344500Y-100317300D01*
X142282722Y-95992230D02*
X93669570Y-95992230D01*
X95759560Y-96442240D02*
X91884500Y-100317300D01*
X142096322Y-96442240D02*
X95759560Y-96442240D01*
X144555227Y-98901145D02*
X142096322Y-96442240D01*
X144555228Y-117624982D02*
X144555227Y-98901145D01*
X144555227Y-119528573D02*
X144555228Y-117624982D01*
X139750800Y-124333000D02*
X144555227Y-119528573D01*
X97849550Y-96892250D02*
X94424500Y-100317300D01*
X141909922Y-96892250D02*
X97849550Y-96892250D01*
X144105218Y-99087546D02*
X141909922Y-96892250D01*
X144105218Y-117438582D02*
X144105218Y-99087546D01*
X139750800Y-121793000D02*
X144105218Y-117438582D01*
X99939540Y-97342260D02*
X96964500Y-100317300D01*
X141723522Y-97342260D02*
X99939540Y-97342260D01*
X143655209Y-99273947D02*
X141723522Y-97342260D01*
X143655210Y-115348590D02*
X143655209Y-99273947D01*
X139750800Y-119253000D02*
X143655210Y-115348590D01*
X139750800Y-116713000D02*
X143205200Y-113258600D01*
X143205200Y-99460348D02*
X141537122Y-97792270D01*
X143205200Y-113258600D02*
X143205200Y-99460348D01*
X102029530Y-97792270D02*
X99504500Y-100317300D01*
X141537122Y-97792270D02*
X102029530Y-97792270D01*
X142725837Y-99617395D02*
X141350722Y-98242280D01*
X142725837Y-111197963D02*
X142725837Y-99617395D01*
X139750800Y-114173000D02*
X142725837Y-111197963D01*
X104119520Y-98242280D02*
X102044500Y-100317300D01*
X141350722Y-98242280D02*
X104119520Y-98242280D01*
X106209511Y-98692289D02*
X104584500Y-100317300D01*
X141164321Y-98692289D02*
X106209511Y-98692289D01*
X142275828Y-99803796D02*
X141164321Y-98692289D01*
X142275828Y-108306974D02*
X142275828Y-99803796D01*
X139750800Y-110832002D02*
X142275828Y-108306974D01*
X139750800Y-111633000D02*
X139750800Y-110832002D01*
X108299501Y-99142299D02*
X107124500Y-100317300D01*
X140977921Y-99142299D02*
X108299501Y-99142299D01*
X141825819Y-99990197D02*
X140977921Y-99142299D01*
X141825819Y-107017981D02*
X141825819Y-99990197D01*
X139750800Y-109093000D02*
X141825819Y-107017981D01*
X110133811Y-99847989D02*
X109664500Y-100317300D01*
X141375810Y-100176598D02*
X141047201Y-99847989D01*
X141375810Y-104927990D02*
X141375810Y-100176598D01*
X141047201Y-99847989D02*
X110133811Y-99847989D01*
X139750800Y-106553000D02*
X141375810Y-104927990D01*
X140860801Y-100297999D02*
X113443999Y-100297999D01*
X140925801Y-100362999D02*
X140860801Y-100297999D01*
X140925801Y-102837999D02*
X140925801Y-100362999D01*
X139750800Y-104013000D02*
X140925801Y-102837999D01*
X85439501Y-102812599D02*
X84264500Y-103987600D01*
X110929399Y-102812599D02*
X85439501Y-102812599D01*
X113443999Y-100297999D02*
X110929399Y-102812599D01*
D15*
X146204732Y-95797089D02*
X146198665Y-97751751D01*
X146160792Y-97626899D01*
X146090220Y-97494870D01*
X146019045Y-97408143D01*
X145995247Y-97379145D01*
X145966250Y-97355348D01*
X143642125Y-95031224D01*
X143618322Y-95002220D01*
X143502597Y-94907247D01*
X143370568Y-94836675D01*
X143227307Y-94793218D01*
X143115654Y-94782221D01*
X143115643Y-94782221D01*
X143078321Y-94778545D01*
X143040999Y-94782221D01*
X91616901Y-94782221D01*
X91579578Y-94778545D01*
X91542255Y-94782221D01*
X91542246Y-94782221D01*
X91430593Y-94793218D01*
X91287332Y-94836675D01*
X91155303Y-94907247D01*
X91155301Y-94907248D01*
X91155302Y-94907248D01*
X91068575Y-94978422D01*
X91068571Y-94978426D01*
X91039578Y-95002220D01*
X91015784Y-95031213D01*
X87170908Y-98876091D01*
X86950760Y-98832300D01*
X86658240Y-98832300D01*
X86371342Y-98889368D01*
X86101089Y-99001310D01*
X85857868Y-99163825D01*
X85651025Y-99370668D01*
X85534500Y-99545060D01*
X85417975Y-99370668D01*
X85211132Y-99163825D01*
X84967911Y-99001310D01*
X84697658Y-98889368D01*
X84410760Y-98832300D01*
X84118240Y-98832300D01*
X83831342Y-98889368D01*
X83561089Y-99001310D01*
X83317868Y-99163825D01*
X83111025Y-99370668D01*
X82948510Y-99613889D01*
X82836568Y-99884142D01*
X82779500Y-100171040D01*
X82779500Y-100463560D01*
X82793961Y-100536261D01*
X82369450Y-100960772D01*
X82335683Y-100988484D01*
X82307970Y-101022252D01*
X82307967Y-101022255D01*
X82225089Y-101123242D01*
X82142911Y-101276988D01*
X82092304Y-101443811D01*
X82075218Y-101617301D01*
X82079500Y-101660780D01*
X82079499Y-107400232D01*
X82075218Y-107443701D01*
X82079499Y-107487170D01*
X82079499Y-107487177D01*
X82092304Y-107617190D01*
X82142910Y-107784013D01*
X82225088Y-107937759D01*
X82335682Y-108072518D01*
X82369455Y-108100235D01*
X113235369Y-138966150D01*
X113263082Y-138999918D01*
X113296850Y-139027631D01*
X113296852Y-139027633D01*
X113397840Y-139110512D01*
X113551585Y-139192690D01*
X113718409Y-139243296D01*
X113848422Y-139256101D01*
X113848430Y-139256101D01*
X113891899Y-139260382D01*
X113935368Y-139256101D01*
X138369230Y-139256101D01*
X138412699Y-139260382D01*
X138456168Y-139256101D01*
X138456176Y-139256101D01*
X138586189Y-139243296D01*
X138753012Y-139192690D01*
X138906758Y-139110512D01*
X139041516Y-138999918D01*
X139069233Y-138966145D01*
X139531840Y-138503539D01*
X139604540Y-138518000D01*
X139897060Y-138518000D01*
X140183958Y-138460932D01*
X140454211Y-138348990D01*
X140697432Y-138186475D01*
X140904275Y-137979632D01*
X141066790Y-137736411D01*
X141178732Y-137466158D01*
X141235800Y-137179260D01*
X141235800Y-136886740D01*
X141178732Y-136599842D01*
X141066790Y-136329589D01*
X140904275Y-136086368D01*
X140697432Y-135879525D01*
X140515266Y-135757805D01*
X140632155Y-135688178D01*
X140848388Y-135493269D01*
X141022441Y-135259920D01*
X141147625Y-134997099D01*
X141192276Y-134849890D01*
X141070955Y-134620000D01*
X139877800Y-134620000D01*
X139877800Y-134640000D01*
X139623800Y-134640000D01*
X139623800Y-134620000D01*
X138430645Y-134620000D01*
X138309324Y-134849890D01*
X138353975Y-134997099D01*
X138479159Y-135259920D01*
X138653212Y-135493269D01*
X138869445Y-135688178D01*
X138986334Y-135757805D01*
X138804168Y-135879525D01*
X138597325Y-136086368D01*
X138434810Y-136329589D01*
X138322868Y-136599842D01*
X138265800Y-136886740D01*
X138265800Y-137179260D01*
X138280261Y-137251960D01*
X138046121Y-137486101D01*
X115947444Y-137486101D01*
X116000900Y-137217360D01*
X116000900Y-136924840D01*
X115957109Y-136704692D01*
X118481303Y-134180499D01*
X118510301Y-134156701D01*
X118605274Y-134040976D01*
X118675846Y-133908947D01*
X118719303Y-133765686D01*
X118730300Y-133654033D01*
X118730300Y-133654024D01*
X118733976Y-133616701D01*
X118730300Y-133579378D01*
X118730300Y-110883820D01*
X118733976Y-110846497D01*
X118730300Y-110809174D01*
X118730300Y-110809165D01*
X118719303Y-110697512D01*
X118675846Y-110554251D01*
X118605274Y-110422222D01*
X118550197Y-110355110D01*
X118534099Y-110335494D01*
X118534095Y-110335490D01*
X118510301Y-110306497D01*
X118481309Y-110282704D01*
X115696195Y-107497592D01*
X115831890Y-107294511D01*
X115943832Y-107024258D01*
X116000900Y-106737360D01*
X116000900Y-106444840D01*
X115943832Y-106157942D01*
X115831890Y-105887689D01*
X115669375Y-105644468D01*
X115462532Y-105437625D01*
X115280366Y-105315905D01*
X115397255Y-105246278D01*
X115613488Y-105051369D01*
X115787541Y-104818020D01*
X115912725Y-104555199D01*
X115957376Y-104407990D01*
X115836055Y-104178100D01*
X114642900Y-104178100D01*
X114642900Y-104198100D01*
X114388900Y-104198100D01*
X114388900Y-104178100D01*
X113195745Y-104178100D01*
X113074424Y-104407990D01*
X113119075Y-104555199D01*
X113244259Y-104818020D01*
X113418312Y-105051369D01*
X113634545Y-105246278D01*
X113751434Y-105315905D01*
X113569268Y-105437625D01*
X113362425Y-105644468D01*
X113199910Y-105887689D01*
X113087968Y-106157942D01*
X113058382Y-106306680D01*
X111152572Y-104400871D01*
X111152572Y-103539098D01*
X111221646Y-103518145D01*
X111353675Y-103447573D01*
X111469400Y-103352600D01*
X111493203Y-103323596D01*
X113027828Y-101788972D01*
X113027828Y-102361100D01*
X113040088Y-102485582D01*
X113076398Y-102605280D01*
X113135363Y-102715594D01*
X113214715Y-102812285D01*
X113311406Y-102891637D01*
X113421720Y-102950602D01*
X113502366Y-102975066D01*
X113418312Y-103050831D01*
X113244259Y-103284180D01*
X113119075Y-103547001D01*
X113074424Y-103694210D01*
X113195745Y-103924100D01*
X114388900Y-103924100D01*
X114388900Y-103904100D01*
X114642900Y-103904100D01*
X114642900Y-103924100D01*
X115836055Y-103924100D01*
X115957376Y-103694210D01*
X115912725Y-103547001D01*
X115787541Y-103284180D01*
X115613488Y-103050831D01*
X115529434Y-102975066D01*
X115610080Y-102950602D01*
X115720394Y-102891637D01*
X115817085Y-102812285D01*
X115896437Y-102715594D01*
X115955402Y-102605280D01*
X115991712Y-102485582D01*
X116003972Y-102361100D01*
X116003972Y-101057999D01*
X138262728Y-101057999D01*
X138262728Y-102323000D01*
X138274988Y-102447482D01*
X138311298Y-102567180D01*
X138370263Y-102677494D01*
X138449615Y-102774185D01*
X138546306Y-102853537D01*
X138656620Y-102912502D01*
X138729180Y-102934513D01*
X138597325Y-103066368D01*
X138434810Y-103309589D01*
X138322868Y-103579842D01*
X138265800Y-103866740D01*
X138265800Y-104159260D01*
X138322868Y-104446158D01*
X138434810Y-104716411D01*
X138597325Y-104959632D01*
X138804168Y-105166475D01*
X138978560Y-105283000D01*
X138804168Y-105399525D01*
X138597325Y-105606368D01*
X138434810Y-105849589D01*
X138322868Y-106119842D01*
X138265800Y-106406740D01*
X138265800Y-106699260D01*
X138322868Y-106986158D01*
X138434810Y-107256411D01*
X138597325Y-107499632D01*
X138804168Y-107706475D01*
X138978560Y-107823000D01*
X138804168Y-107939525D01*
X138597325Y-108146368D01*
X138434810Y-108389589D01*
X138322868Y-108659842D01*
X138265800Y-108946740D01*
X138265800Y-109239260D01*
X138322868Y-109526158D01*
X138434810Y-109796411D01*
X138597325Y-110039632D01*
X138804168Y-110246475D01*
X138978560Y-110363000D01*
X138804168Y-110479525D01*
X138597325Y-110686368D01*
X138434810Y-110929589D01*
X138322868Y-111199842D01*
X138265800Y-111486740D01*
X138265800Y-111779260D01*
X138322868Y-112066158D01*
X138434810Y-112336411D01*
X138597325Y-112579632D01*
X138804168Y-112786475D01*
X138978560Y-112903000D01*
X138804168Y-113019525D01*
X138597325Y-113226368D01*
X138434810Y-113469589D01*
X138322868Y-113739842D01*
X138265800Y-114026740D01*
X138265800Y-114319260D01*
X138322868Y-114606158D01*
X138434810Y-114876411D01*
X138597325Y-115119632D01*
X138804168Y-115326475D01*
X138978560Y-115443000D01*
X138804168Y-115559525D01*
X138597325Y-115766368D01*
X138434810Y-116009589D01*
X138322868Y-116279842D01*
X138265800Y-116566740D01*
X138265800Y-116859260D01*
X138322868Y-117146158D01*
X138434810Y-117416411D01*
X138597325Y-117659632D01*
X138804168Y-117866475D01*
X138978560Y-117983000D01*
X138804168Y-118099525D01*
X138597325Y-118306368D01*
X138434810Y-118549589D01*
X138322868Y-118819842D01*
X138265800Y-119106740D01*
X138265800Y-119399260D01*
X138322868Y-119686158D01*
X138434810Y-119956411D01*
X138597325Y-120199632D01*
X138804168Y-120406475D01*
X138978560Y-120523000D01*
X138804168Y-120639525D01*
X138597325Y-120846368D01*
X138434810Y-121089589D01*
X138322868Y-121359842D01*
X138265800Y-121646740D01*
X138265800Y-121939260D01*
X138322868Y-122226158D01*
X138434810Y-122496411D01*
X138597325Y-122739632D01*
X138804168Y-122946475D01*
X138978560Y-123063000D01*
X138804168Y-123179525D01*
X138597325Y-123386368D01*
X138434810Y-123629589D01*
X138322868Y-123899842D01*
X138265800Y-124186740D01*
X138265800Y-124479260D01*
X138322868Y-124766158D01*
X138434810Y-125036411D01*
X138597325Y-125279632D01*
X138804168Y-125486475D01*
X138978560Y-125603000D01*
X138804168Y-125719525D01*
X138597325Y-125926368D01*
X138434810Y-126169589D01*
X138322868Y-126439842D01*
X138265800Y-126726740D01*
X138265800Y-127019260D01*
X138322868Y-127306158D01*
X138434810Y-127576411D01*
X138597325Y-127819632D01*
X138804168Y-128026475D01*
X138978560Y-128143000D01*
X138804168Y-128259525D01*
X138597325Y-128466368D01*
X138434810Y-128709589D01*
X138322868Y-128979842D01*
X138265800Y-129266740D01*
X138265800Y-129559260D01*
X138322868Y-129846158D01*
X138434810Y-130116411D01*
X138597325Y-130359632D01*
X138804168Y-130566475D01*
X138978560Y-130683000D01*
X138804168Y-130799525D01*
X138597325Y-131006368D01*
X138434810Y-131249589D01*
X138322868Y-131519842D01*
X138265800Y-131806740D01*
X138265800Y-132099260D01*
X138322868Y-132386158D01*
X138434810Y-132656411D01*
X138597325Y-132899632D01*
X138804168Y-133106475D01*
X138986334Y-133228195D01*
X138869445Y-133297822D01*
X138653212Y-133492731D01*
X138479159Y-133726080D01*
X138353975Y-133988901D01*
X138309324Y-134136110D01*
X138430645Y-134366000D01*
X139623800Y-134366000D01*
X139623800Y-134346000D01*
X139877800Y-134346000D01*
X139877800Y-134366000D01*
X141070955Y-134366000D01*
X141192276Y-134136110D01*
X141147625Y-133988901D01*
X141022441Y-133726080D01*
X140848388Y-133492731D01*
X140632155Y-133297822D01*
X140515266Y-133228195D01*
X140697432Y-133106475D01*
X140904275Y-132899632D01*
X141066790Y-132656411D01*
X141178732Y-132386158D01*
X141235800Y-132099260D01*
X141235800Y-131806740D01*
X141192009Y-131586592D01*
X145966249Y-126812353D01*
X145995247Y-126788555D01*
X146021578Y-126756471D01*
X146041095Y-126732690D01*
X143406586Y-183009540D01*
X78368378Y-183009540D01*
X78422578Y-182737057D01*
X78422578Y-182113623D01*
X78300952Y-181502167D01*
X78137813Y-181108315D01*
X78049661Y-179160190D01*
X78416124Y-179160190D01*
X78460775Y-179307399D01*
X78585959Y-179570220D01*
X78760012Y-179803569D01*
X78976245Y-179998478D01*
X79226348Y-180147457D01*
X79500709Y-180244781D01*
X79730600Y-180124114D01*
X79730600Y-178930300D01*
X79984600Y-178930300D01*
X79984600Y-180124114D01*
X80214491Y-180244781D01*
X80488852Y-180147457D01*
X80738955Y-179998478D01*
X80955188Y-179803569D01*
X81129241Y-179570220D01*
X81254425Y-179307399D01*
X81299076Y-179160190D01*
X82010224Y-179160190D01*
X82054875Y-179307399D01*
X82180059Y-179570220D01*
X82354112Y-179803569D01*
X82570345Y-179998478D01*
X82820448Y-180147457D01*
X83094809Y-180244781D01*
X83324700Y-180124114D01*
X83324700Y-178930300D01*
X83578700Y-178930300D01*
X83578700Y-180124114D01*
X83808591Y-180244781D01*
X84082952Y-180147457D01*
X84333055Y-179998478D01*
X84549288Y-179803569D01*
X84723341Y-179570220D01*
X84848525Y-179307399D01*
X84893176Y-179160190D01*
X85591624Y-179160190D01*
X85636275Y-179307399D01*
X85761459Y-179570220D01*
X85935512Y-179803569D01*
X86151745Y-179998478D01*
X86401848Y-180147457D01*
X86676209Y-180244781D01*
X86906100Y-180124114D01*
X86906100Y-178930300D01*
X87160100Y-178930300D01*
X87160100Y-180124114D01*
X87389991Y-180244781D01*
X87664352Y-180147457D01*
X87914455Y-179998478D01*
X88130688Y-179803569D01*
X88304741Y-179570220D01*
X88429925Y-179307399D01*
X88474576Y-179160190D01*
X89173024Y-179160190D01*
X89217675Y-179307399D01*
X89342859Y-179570220D01*
X89516912Y-179803569D01*
X89733145Y-179998478D01*
X89983248Y-180147457D01*
X90257609Y-180244781D01*
X90487500Y-180124114D01*
X90487500Y-178930300D01*
X90741500Y-178930300D01*
X90741500Y-180124114D01*
X90971391Y-180244781D01*
X91245752Y-180147457D01*
X91495855Y-179998478D01*
X91712088Y-179803569D01*
X91886141Y-179570220D01*
X92011325Y-179307399D01*
X92055976Y-179160190D01*
X92767124Y-179160190D01*
X92811775Y-179307399D01*
X92936959Y-179570220D01*
X93111012Y-179803569D01*
X93327245Y-179998478D01*
X93577348Y-180147457D01*
X93851709Y-180244781D01*
X94081600Y-180124114D01*
X94081600Y-178930300D01*
X94335600Y-178930300D01*
X94335600Y-180124114D01*
X94565491Y-180244781D01*
X94839852Y-180147457D01*
X95089955Y-179998478D01*
X95306188Y-179803569D01*
X95480241Y-179570220D01*
X95605425Y-179307399D01*
X95650076Y-179160190D01*
X96361224Y-179160190D01*
X96405875Y-179307399D01*
X96531059Y-179570220D01*
X96705112Y-179803569D01*
X96921345Y-179998478D01*
X97171448Y-180147457D01*
X97445809Y-180244781D01*
X97675700Y-180124114D01*
X97675700Y-178930300D01*
X97929700Y-178930300D01*
X97929700Y-180124114D01*
X98159591Y-180244781D01*
X98433952Y-180147457D01*
X98684055Y-179998478D01*
X98900288Y-179803569D01*
X99074341Y-179570220D01*
X99199525Y-179307399D01*
X99244176Y-179160190D01*
X99237474Y-179147490D01*
X99968024Y-179147490D01*
X100012675Y-179294699D01*
X100137859Y-179557520D01*
X100311912Y-179790869D01*
X100528145Y-179985778D01*
X100778248Y-180134757D01*
X101052609Y-180232081D01*
X101282500Y-180111414D01*
X101282500Y-178917600D01*
X101536500Y-178917600D01*
X101536500Y-180111414D01*
X101766391Y-180232081D01*
X102040752Y-180134757D01*
X102290855Y-179985778D01*
X102507088Y-179790869D01*
X102681141Y-179557520D01*
X102806325Y-179294699D01*
X102850976Y-179147490D01*
X103549424Y-179147490D01*
X103594075Y-179294699D01*
X103719259Y-179557520D01*
X103893312Y-179790869D01*
X104109545Y-179985778D01*
X104359648Y-180134757D01*
X104634009Y-180232081D01*
X104863900Y-180111414D01*
X104863900Y-178917600D01*
X105117900Y-178917600D01*
X105117900Y-180111414D01*
X105347791Y-180232081D01*
X105622152Y-180134757D01*
X105872255Y-179985778D01*
X106088488Y-179790869D01*
X106262541Y-179557520D01*
X106387725Y-179294699D01*
X106428523Y-179160190D01*
X107156224Y-179160190D01*
X107200875Y-179307399D01*
X107326059Y-179570220D01*
X107500112Y-179803569D01*
X107716345Y-179998478D01*
X107966448Y-180147457D01*
X108240809Y-180244781D01*
X108470700Y-180124114D01*
X108470700Y-178930300D01*
X108724700Y-178930300D01*
X108724700Y-180124114D01*
X108954591Y-180244781D01*
X109228952Y-180147457D01*
X109479055Y-179998478D01*
X109695288Y-179803569D01*
X109869341Y-179570220D01*
X109994525Y-179307399D01*
X110035323Y-179172890D01*
X110750324Y-179172890D01*
X110794975Y-179320099D01*
X110920159Y-179582920D01*
X111094212Y-179816269D01*
X111310445Y-180011178D01*
X111560548Y-180160157D01*
X111834909Y-180257481D01*
X112064800Y-180136814D01*
X112064800Y-178943000D01*
X112318800Y-178943000D01*
X112318800Y-180136814D01*
X112548691Y-180257481D01*
X112823052Y-180160157D01*
X113073155Y-180011178D01*
X113289388Y-179816269D01*
X113463441Y-179582920D01*
X113588625Y-179320099D01*
X113629423Y-179185590D01*
X114344424Y-179185590D01*
X114389075Y-179332799D01*
X114514259Y-179595620D01*
X114688312Y-179828969D01*
X114904545Y-180023878D01*
X115154648Y-180172857D01*
X115429009Y-180270181D01*
X115658900Y-180149514D01*
X115658900Y-178955700D01*
X115912900Y-178955700D01*
X115912900Y-180149514D01*
X116142791Y-180270181D01*
X116417152Y-180172857D01*
X116667255Y-180023878D01*
X116883488Y-179828969D01*
X117057541Y-179595620D01*
X117182725Y-179332799D01*
X117227376Y-179185590D01*
X117220674Y-179172890D01*
X117938524Y-179172890D01*
X117983175Y-179320099D01*
X118108359Y-179582920D01*
X118282412Y-179816269D01*
X118498645Y-180011178D01*
X118748748Y-180160157D01*
X119023109Y-180257481D01*
X119253000Y-180136814D01*
X119253000Y-178943000D01*
X119507000Y-178943000D01*
X119507000Y-180136814D01*
X119736891Y-180257481D01*
X120011252Y-180160157D01*
X120261355Y-180011178D01*
X120477588Y-179816269D01*
X120651641Y-179582920D01*
X120776825Y-179320099D01*
X120821476Y-179172890D01*
X121532624Y-179172890D01*
X121577275Y-179320099D01*
X121702459Y-179582920D01*
X121876512Y-179816269D01*
X122092745Y-180011178D01*
X122342848Y-180160157D01*
X122617209Y-180257481D01*
X122847100Y-180136814D01*
X122847100Y-178943000D01*
X123101100Y-178943000D01*
X123101100Y-180136814D01*
X123330991Y-180257481D01*
X123605352Y-180160157D01*
X123855455Y-180011178D01*
X124071688Y-179816269D01*
X124245741Y-179582920D01*
X124370925Y-179320099D01*
X124415576Y-179172890D01*
X125101324Y-179172890D01*
X125145975Y-179320099D01*
X125271159Y-179582920D01*
X125445212Y-179816269D01*
X125661445Y-180011178D01*
X125911548Y-180160157D01*
X126185909Y-180257481D01*
X126415800Y-180136814D01*
X126415800Y-178943000D01*
X126669800Y-178943000D01*
X126669800Y-180136814D01*
X126899691Y-180257481D01*
X127174052Y-180160157D01*
X127424155Y-180011178D01*
X127640388Y-179816269D01*
X127814441Y-179582920D01*
X127939625Y-179320099D01*
X127984276Y-179172890D01*
X128708124Y-179172890D01*
X128752775Y-179320099D01*
X128877959Y-179582920D01*
X129052012Y-179816269D01*
X129268245Y-180011178D01*
X129518348Y-180160157D01*
X129792709Y-180257481D01*
X130022600Y-180136814D01*
X130022600Y-178943000D01*
X130276600Y-178943000D01*
X130276600Y-180136814D01*
X130506491Y-180257481D01*
X130780852Y-180160157D01*
X131030955Y-180011178D01*
X131247188Y-179816269D01*
X131421241Y-179582920D01*
X131546425Y-179320099D01*
X131591076Y-179172890D01*
X132314924Y-179172890D01*
X132359575Y-179320099D01*
X132484759Y-179582920D01*
X132658812Y-179816269D01*
X132875045Y-180011178D01*
X133125148Y-180160157D01*
X133399509Y-180257481D01*
X133629400Y-180136814D01*
X133629400Y-178943000D01*
X133883400Y-178943000D01*
X133883400Y-180136814D01*
X134113291Y-180257481D01*
X134387652Y-180160157D01*
X134637755Y-180011178D01*
X134853988Y-179816269D01*
X135028041Y-179582920D01*
X135153225Y-179320099D01*
X135197876Y-179172890D01*
X135191174Y-179160190D01*
X135921724Y-179160190D01*
X135966375Y-179307399D01*
X136091559Y-179570220D01*
X136265612Y-179803569D01*
X136481845Y-179998478D01*
X136731948Y-180147457D01*
X137006309Y-180244781D01*
X137236200Y-180124114D01*
X137236200Y-178930300D01*
X137490200Y-178930300D01*
X137490200Y-180124114D01*
X137720091Y-180244781D01*
X137994452Y-180147457D01*
X138244555Y-179998478D01*
X138460788Y-179803569D01*
X138634841Y-179570220D01*
X138760025Y-179307399D01*
X138804676Y-179160190D01*
X139515824Y-179160190D01*
X139560475Y-179307399D01*
X139685659Y-179570220D01*
X139859712Y-179803569D01*
X140075945Y-179998478D01*
X140326048Y-180147457D01*
X140600409Y-180244781D01*
X140830300Y-180124114D01*
X140830300Y-178930300D01*
X141084300Y-178930300D01*
X141084300Y-180124114D01*
X141314191Y-180244781D01*
X141588552Y-180147457D01*
X141838655Y-179998478D01*
X142054888Y-179803569D01*
X142228941Y-179570220D01*
X142354125Y-179307399D01*
X142398776Y-179160190D01*
X142277455Y-178930300D01*
X141084300Y-178930300D01*
X140830300Y-178930300D01*
X139637145Y-178930300D01*
X139515824Y-179160190D01*
X138804676Y-179160190D01*
X138683355Y-178930300D01*
X137490200Y-178930300D01*
X137236200Y-178930300D01*
X136043045Y-178930300D01*
X135921724Y-179160190D01*
X135191174Y-179160190D01*
X135076555Y-178943000D01*
X133883400Y-178943000D01*
X133629400Y-178943000D01*
X132436245Y-178943000D01*
X132314924Y-179172890D01*
X131591076Y-179172890D01*
X131469755Y-178943000D01*
X130276600Y-178943000D01*
X130022600Y-178943000D01*
X128829445Y-178943000D01*
X128708124Y-179172890D01*
X127984276Y-179172890D01*
X127862955Y-178943000D01*
X126669800Y-178943000D01*
X126415800Y-178943000D01*
X125222645Y-178943000D01*
X125101324Y-179172890D01*
X124415576Y-179172890D01*
X124294255Y-178943000D01*
X123101100Y-178943000D01*
X122847100Y-178943000D01*
X121653945Y-178943000D01*
X121532624Y-179172890D01*
X120821476Y-179172890D01*
X120700155Y-178943000D01*
X119507000Y-178943000D01*
X119253000Y-178943000D01*
X118059845Y-178943000D01*
X117938524Y-179172890D01*
X117220674Y-179172890D01*
X117106055Y-178955700D01*
X115912900Y-178955700D01*
X115658900Y-178955700D01*
X114465745Y-178955700D01*
X114344424Y-179185590D01*
X113629423Y-179185590D01*
X113633276Y-179172890D01*
X113511955Y-178943000D01*
X112318800Y-178943000D01*
X112064800Y-178943000D01*
X110871645Y-178943000D01*
X110750324Y-179172890D01*
X110035323Y-179172890D01*
X110039176Y-179160190D01*
X109917855Y-178930300D01*
X108724700Y-178930300D01*
X108470700Y-178930300D01*
X107277545Y-178930300D01*
X107156224Y-179160190D01*
X106428523Y-179160190D01*
X106432376Y-179147490D01*
X106311055Y-178917600D01*
X105117900Y-178917600D01*
X104863900Y-178917600D01*
X103670745Y-178917600D01*
X103549424Y-179147490D01*
X102850976Y-179147490D01*
X102729655Y-178917600D01*
X101536500Y-178917600D01*
X101282500Y-178917600D01*
X100089345Y-178917600D01*
X99968024Y-179147490D01*
X99237474Y-179147490D01*
X99122855Y-178930300D01*
X97929700Y-178930300D01*
X97675700Y-178930300D01*
X96482545Y-178930300D01*
X96361224Y-179160190D01*
X95650076Y-179160190D01*
X95528755Y-178930300D01*
X94335600Y-178930300D01*
X94081600Y-178930300D01*
X92888445Y-178930300D01*
X92767124Y-179160190D01*
X92055976Y-179160190D01*
X91934655Y-178930300D01*
X90741500Y-178930300D01*
X90487500Y-178930300D01*
X89294345Y-178930300D01*
X89173024Y-179160190D01*
X88474576Y-179160190D01*
X88353255Y-178930300D01*
X87160100Y-178930300D01*
X86906100Y-178930300D01*
X85712945Y-178930300D01*
X85591624Y-179160190D01*
X84893176Y-179160190D01*
X84771855Y-178930300D01*
X83578700Y-178930300D01*
X83324700Y-178930300D01*
X82131545Y-178930300D01*
X82010224Y-179160190D01*
X81299076Y-179160190D01*
X81177755Y-178930300D01*
X79984600Y-178930300D01*
X79730600Y-178930300D01*
X78537445Y-178930300D01*
X78416124Y-179160190D01*
X78049661Y-179160190D01*
X77765181Y-172873300D01*
X78369528Y-172873300D01*
X78369528Y-174573300D01*
X78381788Y-174697782D01*
X78418098Y-174817480D01*
X78477063Y-174927794D01*
X78556415Y-175024485D01*
X78653106Y-175103837D01*
X78763420Y-175162802D01*
X78835980Y-175184813D01*
X78704125Y-175316668D01*
X78541610Y-175559889D01*
X78429668Y-175830142D01*
X78372600Y-176117040D01*
X78372600Y-176409560D01*
X78429668Y-176696458D01*
X78541610Y-176966711D01*
X78704125Y-177209932D01*
X78910968Y-177416775D01*
X79093134Y-177538495D01*
X78976245Y-177608122D01*
X78760012Y-177803031D01*
X78585959Y-178036380D01*
X78460775Y-178299201D01*
X78416124Y-178446410D01*
X78537445Y-178676300D01*
X79730600Y-178676300D01*
X79730600Y-178656300D01*
X79984600Y-178656300D01*
X79984600Y-178676300D01*
X81177755Y-178676300D01*
X81299076Y-178446410D01*
X81254425Y-178299201D01*
X81129241Y-178036380D01*
X80955188Y-177803031D01*
X80738955Y-177608122D01*
X80622066Y-177538495D01*
X80804232Y-177416775D01*
X81011075Y-177209932D01*
X81052256Y-177148300D01*
X82257044Y-177148300D01*
X82298225Y-177209932D01*
X82505068Y-177416775D01*
X82687234Y-177538495D01*
X82570345Y-177608122D01*
X82354112Y-177803031D01*
X82180059Y-178036380D01*
X82054875Y-178299201D01*
X82010224Y-178446410D01*
X82131545Y-178676300D01*
X83324700Y-178676300D01*
X83324700Y-178656300D01*
X83578700Y-178656300D01*
X83578700Y-178676300D01*
X84771855Y-178676300D01*
X84893176Y-178446410D01*
X84848525Y-178299201D01*
X84723341Y-178036380D01*
X84549288Y-177803031D01*
X84333055Y-177608122D01*
X84216166Y-177538495D01*
X84398332Y-177416775D01*
X84605175Y-177209932D01*
X84646356Y-177148300D01*
X85838444Y-177148300D01*
X85879625Y-177209932D01*
X86086468Y-177416775D01*
X86268634Y-177538495D01*
X86151745Y-177608122D01*
X85935512Y-177803031D01*
X85761459Y-178036380D01*
X85636275Y-178299201D01*
X85591624Y-178446410D01*
X85712945Y-178676300D01*
X86906100Y-178676300D01*
X86906100Y-178656300D01*
X87160100Y-178656300D01*
X87160100Y-178676300D01*
X88353255Y-178676300D01*
X88474576Y-178446410D01*
X88429925Y-178299201D01*
X88304741Y-178036380D01*
X88130688Y-177803031D01*
X87914455Y-177608122D01*
X87797566Y-177538495D01*
X87979732Y-177416775D01*
X88186575Y-177209932D01*
X88227756Y-177148300D01*
X89419844Y-177148300D01*
X89461025Y-177209932D01*
X89667868Y-177416775D01*
X89850034Y-177538495D01*
X89733145Y-177608122D01*
X89516912Y-177803031D01*
X89342859Y-178036380D01*
X89217675Y-178299201D01*
X89173024Y-178446410D01*
X89294345Y-178676300D01*
X90487500Y-178676300D01*
X90487500Y-178656300D01*
X90741500Y-178656300D01*
X90741500Y-178676300D01*
X91934655Y-178676300D01*
X92055976Y-178446410D01*
X92011325Y-178299201D01*
X91886141Y-178036380D01*
X91712088Y-177803031D01*
X91495855Y-177608122D01*
X91378966Y-177538495D01*
X91561132Y-177416775D01*
X91767975Y-177209932D01*
X91809156Y-177148300D01*
X93013944Y-177148300D01*
X93055125Y-177209932D01*
X93261968Y-177416775D01*
X93444134Y-177538495D01*
X93327245Y-177608122D01*
X93111012Y-177803031D01*
X92936959Y-178036380D01*
X92811775Y-178299201D01*
X92767124Y-178446410D01*
X92888445Y-178676300D01*
X94081600Y-178676300D01*
X94081600Y-178656300D01*
X94335600Y-178656300D01*
X94335600Y-178676300D01*
X95528755Y-178676300D01*
X95650076Y-178446410D01*
X95605425Y-178299201D01*
X95480241Y-178036380D01*
X95306188Y-177803031D01*
X95089955Y-177608122D01*
X94973066Y-177538495D01*
X95155232Y-177416775D01*
X95362075Y-177209932D01*
X95403256Y-177148300D01*
X96608044Y-177148300D01*
X96649225Y-177209932D01*
X96856068Y-177416775D01*
X97038234Y-177538495D01*
X96921345Y-177608122D01*
X96705112Y-177803031D01*
X96531059Y-178036380D01*
X96405875Y-178299201D01*
X96361224Y-178446410D01*
X96482545Y-178676300D01*
X97675700Y-178676300D01*
X97675700Y-178656300D01*
X97929700Y-178656300D01*
X97929700Y-178676300D01*
X99122855Y-178676300D01*
X99244176Y-178446410D01*
X99199525Y-178299201D01*
X99074341Y-178036380D01*
X98900288Y-177803031D01*
X98684055Y-177608122D01*
X98567166Y-177538495D01*
X98749332Y-177416775D01*
X98956175Y-177209932D01*
X98997356Y-177148300D01*
X100223330Y-177148300D01*
X100256025Y-177197232D01*
X100462868Y-177404075D01*
X100645034Y-177525795D01*
X100528145Y-177595422D01*
X100311912Y-177790331D01*
X100137859Y-178023680D01*
X100012675Y-178286501D01*
X99968024Y-178433710D01*
X100089345Y-178663600D01*
X101282500Y-178663600D01*
X101282500Y-178643600D01*
X101536500Y-178643600D01*
X101536500Y-178663600D01*
X102729655Y-178663600D01*
X102850976Y-178433710D01*
X102806325Y-178286501D01*
X102681141Y-178023680D01*
X102507088Y-177790331D01*
X102290855Y-177595422D01*
X102173966Y-177525795D01*
X102356132Y-177404075D01*
X102562975Y-177197232D01*
X102595670Y-177148300D01*
X103804730Y-177148300D01*
X103837425Y-177197232D01*
X104044268Y-177404075D01*
X104226434Y-177525795D01*
X104109545Y-177595422D01*
X103893312Y-177790331D01*
X103719259Y-178023680D01*
X103594075Y-178286501D01*
X103549424Y-178433710D01*
X103670745Y-178663600D01*
X104863900Y-178663600D01*
X104863900Y-178643600D01*
X105117900Y-178643600D01*
X105117900Y-178663600D01*
X106311055Y-178663600D01*
X106432376Y-178433710D01*
X106387725Y-178286501D01*
X106262541Y-178023680D01*
X106088488Y-177790331D01*
X105872255Y-177595422D01*
X105755366Y-177525795D01*
X105937532Y-177404075D01*
X106144375Y-177197232D01*
X106177070Y-177148300D01*
X107403044Y-177148300D01*
X107444225Y-177209932D01*
X107651068Y-177416775D01*
X107833234Y-177538495D01*
X107716345Y-177608122D01*
X107500112Y-177803031D01*
X107326059Y-178036380D01*
X107200875Y-178299201D01*
X107156224Y-178446410D01*
X107277545Y-178676300D01*
X108470700Y-178676300D01*
X108470700Y-178656300D01*
X108724700Y-178656300D01*
X108724700Y-178676300D01*
X109917855Y-178676300D01*
X110039176Y-178446410D01*
X109994525Y-178299201D01*
X109869341Y-178036380D01*
X109695288Y-177803031D01*
X109479055Y-177608122D01*
X109362166Y-177538495D01*
X109544332Y-177416775D01*
X109751175Y-177209932D01*
X109792356Y-177148300D01*
X110988658Y-177148300D01*
X111038325Y-177222632D01*
X111245168Y-177429475D01*
X111427334Y-177551195D01*
X111310445Y-177620822D01*
X111094212Y-177815731D01*
X110920159Y-178049080D01*
X110794975Y-178311901D01*
X110750324Y-178459110D01*
X110871645Y-178689000D01*
X112064800Y-178689000D01*
X112064800Y-178669000D01*
X112318800Y-178669000D01*
X112318800Y-178689000D01*
X113511955Y-178689000D01*
X113633276Y-178459110D01*
X113588625Y-178311901D01*
X113463441Y-178049080D01*
X113289388Y-177815731D01*
X113073155Y-177620822D01*
X112956266Y-177551195D01*
X113138432Y-177429475D01*
X113345275Y-177222632D01*
X113394942Y-177148300D01*
X114574272Y-177148300D01*
X114632425Y-177235332D01*
X114839268Y-177442175D01*
X115021434Y-177563895D01*
X114904545Y-177633522D01*
X114688312Y-177828431D01*
X114514259Y-178061780D01*
X114389075Y-178324601D01*
X114344424Y-178471810D01*
X114465745Y-178701700D01*
X115658900Y-178701700D01*
X115658900Y-178681700D01*
X115912900Y-178681700D01*
X115912900Y-178701700D01*
X117106055Y-178701700D01*
X117227376Y-178471810D01*
X117182725Y-178324601D01*
X117057541Y-178061780D01*
X116883488Y-177828431D01*
X116667255Y-177633522D01*
X116550366Y-177563895D01*
X116732532Y-177442175D01*
X116939375Y-177235332D01*
X116997528Y-177148300D01*
X118176858Y-177148300D01*
X118226525Y-177222632D01*
X118433368Y-177429475D01*
X118615534Y-177551195D01*
X118498645Y-177620822D01*
X118282412Y-177815731D01*
X118108359Y-178049080D01*
X117983175Y-178311901D01*
X117938524Y-178459110D01*
X118059845Y-178689000D01*
X119253000Y-178689000D01*
X119253000Y-178669000D01*
X119507000Y-178669000D01*
X119507000Y-178689000D01*
X120700155Y-178689000D01*
X120821476Y-178459110D01*
X120776825Y-178311901D01*
X120651641Y-178049080D01*
X120477588Y-177815731D01*
X120261355Y-177620822D01*
X120144466Y-177551195D01*
X120326632Y-177429475D01*
X120533475Y-177222632D01*
X120583142Y-177148300D01*
X121770958Y-177148300D01*
X121820625Y-177222632D01*
X122027468Y-177429475D01*
X122209634Y-177551195D01*
X122092745Y-177620822D01*
X121876512Y-177815731D01*
X121702459Y-178049080D01*
X121577275Y-178311901D01*
X121532624Y-178459110D01*
X121653945Y-178689000D01*
X122847100Y-178689000D01*
X122847100Y-178669000D01*
X123101100Y-178669000D01*
X123101100Y-178689000D01*
X124294255Y-178689000D01*
X124415576Y-178459110D01*
X124370925Y-178311901D01*
X124245741Y-178049080D01*
X124071688Y-177815731D01*
X123855455Y-177620822D01*
X123738566Y-177551195D01*
X123920732Y-177429475D01*
X124127575Y-177222632D01*
X124177242Y-177148300D01*
X125339658Y-177148300D01*
X125389325Y-177222632D01*
X125596168Y-177429475D01*
X125778334Y-177551195D01*
X125661445Y-177620822D01*
X125445212Y-177815731D01*
X125271159Y-178049080D01*
X125145975Y-178311901D01*
X125101324Y-178459110D01*
X125222645Y-178689000D01*
X126415800Y-178689000D01*
X126415800Y-178669000D01*
X126669800Y-178669000D01*
X126669800Y-178689000D01*
X127862955Y-178689000D01*
X127984276Y-178459110D01*
X127939625Y-178311901D01*
X127814441Y-178049080D01*
X127640388Y-177815731D01*
X127424155Y-177620822D01*
X127307266Y-177551195D01*
X127489432Y-177429475D01*
X127696275Y-177222632D01*
X127745942Y-177148300D01*
X128946458Y-177148300D01*
X128996125Y-177222632D01*
X129202968Y-177429475D01*
X129385134Y-177551195D01*
X129268245Y-177620822D01*
X129052012Y-177815731D01*
X128877959Y-178049080D01*
X128752775Y-178311901D01*
X128708124Y-178459110D01*
X128829445Y-178689000D01*
X130022600Y-178689000D01*
X130022600Y-178669000D01*
X130276600Y-178669000D01*
X130276600Y-178689000D01*
X131469755Y-178689000D01*
X131591076Y-178459110D01*
X131546425Y-178311901D01*
X131421241Y-178049080D01*
X131247188Y-177815731D01*
X131030955Y-177620822D01*
X130914066Y-177551195D01*
X131096232Y-177429475D01*
X131303075Y-177222632D01*
X131352742Y-177148300D01*
X132553258Y-177148300D01*
X132602925Y-177222632D01*
X132809768Y-177429475D01*
X132991934Y-177551195D01*
X132875045Y-177620822D01*
X132658812Y-177815731D01*
X132484759Y-178049080D01*
X132359575Y-178311901D01*
X132314924Y-178459110D01*
X132436245Y-178689000D01*
X133629400Y-178689000D01*
X133629400Y-178669000D01*
X133883400Y-178669000D01*
X133883400Y-178689000D01*
X135076555Y-178689000D01*
X135197876Y-178459110D01*
X135153225Y-178311901D01*
X135028041Y-178049080D01*
X134853988Y-177815731D01*
X134637755Y-177620822D01*
X134520866Y-177551195D01*
X134703032Y-177429475D01*
X134909875Y-177222632D01*
X134959542Y-177148300D01*
X136168544Y-177148300D01*
X136209725Y-177209932D01*
X136416568Y-177416775D01*
X136598734Y-177538495D01*
X136481845Y-177608122D01*
X136265612Y-177803031D01*
X136091559Y-178036380D01*
X135966375Y-178299201D01*
X135921724Y-178446410D01*
X136043045Y-178676300D01*
X137236200Y-178676300D01*
X137236200Y-178656300D01*
X137490200Y-178656300D01*
X137490200Y-178676300D01*
X138683355Y-178676300D01*
X138804676Y-178446410D01*
X138760025Y-178299201D01*
X138634841Y-178036380D01*
X138460788Y-177803031D01*
X138244555Y-177608122D01*
X138127666Y-177538495D01*
X138309832Y-177416775D01*
X138516675Y-177209932D01*
X138557856Y-177148300D01*
X139762644Y-177148300D01*
X139803825Y-177209932D01*
X140010668Y-177416775D01*
X140192834Y-177538495D01*
X140075945Y-177608122D01*
X139859712Y-177803031D01*
X139685659Y-178036380D01*
X139560475Y-178299201D01*
X139515824Y-178446410D01*
X139637145Y-178676300D01*
X140830300Y-178676300D01*
X140830300Y-178656300D01*
X141084300Y-178656300D01*
X141084300Y-178676300D01*
X142277455Y-178676300D01*
X142398776Y-178446410D01*
X142354125Y-178299201D01*
X142228941Y-178036380D01*
X142054888Y-177803031D01*
X141838655Y-177608122D01*
X141721766Y-177538495D01*
X141903932Y-177416775D01*
X142110775Y-177209932D01*
X142273290Y-176966711D01*
X142385232Y-176696458D01*
X142442300Y-176409560D01*
X142442300Y-176117040D01*
X142385232Y-175830142D01*
X142273290Y-175559889D01*
X142110775Y-175316668D01*
X141978920Y-175184813D01*
X142051480Y-175162802D01*
X142161794Y-175103837D01*
X142258485Y-175024485D01*
X142337837Y-174927794D01*
X142396802Y-174817480D01*
X142433112Y-174697782D01*
X142445372Y-174573300D01*
X142445372Y-172873300D01*
X142433112Y-172748818D01*
X142396802Y-172629120D01*
X142337837Y-172518806D01*
X142258485Y-172422115D01*
X142161794Y-172342763D01*
X142051480Y-172283798D01*
X141931782Y-172247488D01*
X141807300Y-172235228D01*
X140107300Y-172235228D01*
X139982818Y-172247488D01*
X139863120Y-172283798D01*
X139752806Y-172342763D01*
X139656115Y-172422115D01*
X139576763Y-172518806D01*
X139517798Y-172629120D01*
X139481488Y-172748818D01*
X139469228Y-172873300D01*
X139469228Y-174573300D01*
X139481488Y-174697782D01*
X139517798Y-174817480D01*
X139576763Y-174927794D01*
X139656115Y-175024485D01*
X139752806Y-175103837D01*
X139863120Y-175162802D01*
X139935680Y-175184813D01*
X139803825Y-175316668D01*
X139762644Y-175378300D01*
X138557856Y-175378300D01*
X138516675Y-175316668D01*
X138384820Y-175184813D01*
X138457380Y-175162802D01*
X138567694Y-175103837D01*
X138664385Y-175024485D01*
X138743737Y-174927794D01*
X138802702Y-174817480D01*
X138839012Y-174697782D01*
X138851272Y-174573300D01*
X138851272Y-172873300D01*
X138839012Y-172748818D01*
X138802702Y-172629120D01*
X138743737Y-172518806D01*
X138664385Y-172422115D01*
X138567694Y-172342763D01*
X138457380Y-172283798D01*
X138337682Y-172247488D01*
X138213200Y-172235228D01*
X136513200Y-172235228D01*
X136388718Y-172247488D01*
X136269020Y-172283798D01*
X136158706Y-172342763D01*
X136062015Y-172422115D01*
X135982663Y-172518806D01*
X135923698Y-172629120D01*
X135887388Y-172748818D01*
X135875128Y-172873300D01*
X135875128Y-174573300D01*
X135887388Y-174697782D01*
X135923698Y-174817480D01*
X135982663Y-174927794D01*
X136062015Y-175024485D01*
X136158706Y-175103837D01*
X136269020Y-175162802D01*
X136341580Y-175184813D01*
X136209725Y-175316668D01*
X136168544Y-175378300D01*
X134942570Y-175378300D01*
X134909875Y-175329368D01*
X134778020Y-175197513D01*
X134850580Y-175175502D01*
X134960894Y-175116537D01*
X135057585Y-175037185D01*
X135136937Y-174940494D01*
X135195902Y-174830180D01*
X135232212Y-174710482D01*
X135244472Y-174586000D01*
X135244472Y-172886000D01*
X135232212Y-172761518D01*
X135195902Y-172641820D01*
X135136937Y-172531506D01*
X135057585Y-172434815D01*
X134960894Y-172355463D01*
X134850580Y-172296498D01*
X134730882Y-172260188D01*
X134606400Y-172247928D01*
X132906400Y-172247928D01*
X132781918Y-172260188D01*
X132662220Y-172296498D01*
X132551906Y-172355463D01*
X132455215Y-172434815D01*
X132375863Y-172531506D01*
X132316898Y-172641820D01*
X132280588Y-172761518D01*
X132268328Y-172886000D01*
X132268328Y-174586000D01*
X132280588Y-174710482D01*
X132316898Y-174830180D01*
X132375863Y-174940494D01*
X132455215Y-175037185D01*
X132551906Y-175116537D01*
X132662220Y-175175502D01*
X132734780Y-175197513D01*
X132602925Y-175329368D01*
X132570230Y-175378300D01*
X131335770Y-175378300D01*
X131303075Y-175329368D01*
X131171220Y-175197513D01*
X131243780Y-175175502D01*
X131354094Y-175116537D01*
X131450785Y-175037185D01*
X131530137Y-174940494D01*
X131589102Y-174830180D01*
X131625412Y-174710482D01*
X131637672Y-174586000D01*
X131637672Y-172886000D01*
X131625412Y-172761518D01*
X131589102Y-172641820D01*
X131530137Y-172531506D01*
X131450785Y-172434815D01*
X131354094Y-172355463D01*
X131243780Y-172296498D01*
X131124082Y-172260188D01*
X130999600Y-172247928D01*
X129299600Y-172247928D01*
X129175118Y-172260188D01*
X129055420Y-172296498D01*
X128945106Y-172355463D01*
X128848415Y-172434815D01*
X128769063Y-172531506D01*
X128710098Y-172641820D01*
X128673788Y-172761518D01*
X128661528Y-172886000D01*
X128661528Y-174586000D01*
X128673788Y-174710482D01*
X128710098Y-174830180D01*
X128769063Y-174940494D01*
X128848415Y-175037185D01*
X128945106Y-175116537D01*
X129055420Y-175175502D01*
X129127980Y-175197513D01*
X128996125Y-175329368D01*
X128963430Y-175378300D01*
X127728970Y-175378300D01*
X127696275Y-175329368D01*
X127564420Y-175197513D01*
X127636980Y-175175502D01*
X127747294Y-175116537D01*
X127843985Y-175037185D01*
X127923337Y-174940494D01*
X127982302Y-174830180D01*
X128018612Y-174710482D01*
X128030872Y-174586000D01*
X128030872Y-172886000D01*
X128018612Y-172761518D01*
X127982302Y-172641820D01*
X127923337Y-172531506D01*
X127843985Y-172434815D01*
X127747294Y-172355463D01*
X127636980Y-172296498D01*
X127517282Y-172260188D01*
X127392800Y-172247928D01*
X125692800Y-172247928D01*
X125568318Y-172260188D01*
X125448620Y-172296498D01*
X125338306Y-172355463D01*
X125241615Y-172434815D01*
X125162263Y-172531506D01*
X125103298Y-172641820D01*
X125066988Y-172761518D01*
X125054728Y-172886000D01*
X125054728Y-174586000D01*
X125066988Y-174710482D01*
X125103298Y-174830180D01*
X125162263Y-174940494D01*
X125241615Y-175037185D01*
X125338306Y-175116537D01*
X125448620Y-175175502D01*
X125521180Y-175197513D01*
X125389325Y-175329368D01*
X125356630Y-175378300D01*
X124160270Y-175378300D01*
X124127575Y-175329368D01*
X123995720Y-175197513D01*
X124068280Y-175175502D01*
X124178594Y-175116537D01*
X124275285Y-175037185D01*
X124354637Y-174940494D01*
X124413602Y-174830180D01*
X124449912Y-174710482D01*
X124462172Y-174586000D01*
X124462172Y-172886000D01*
X124449912Y-172761518D01*
X124413602Y-172641820D01*
X124354637Y-172531506D01*
X124275285Y-172434815D01*
X124178594Y-172355463D01*
X124068280Y-172296498D01*
X123948582Y-172260188D01*
X123824100Y-172247928D01*
X122124100Y-172247928D01*
X121999618Y-172260188D01*
X121879920Y-172296498D01*
X121769606Y-172355463D01*
X121672915Y-172434815D01*
X121593563Y-172531506D01*
X121534598Y-172641820D01*
X121498288Y-172761518D01*
X121486028Y-172886000D01*
X121486028Y-174586000D01*
X121498288Y-174710482D01*
X121534598Y-174830180D01*
X121593563Y-174940494D01*
X121672915Y-175037185D01*
X121769606Y-175116537D01*
X121879920Y-175175502D01*
X121952480Y-175197513D01*
X121820625Y-175329368D01*
X121787930Y-175378300D01*
X120566170Y-175378300D01*
X120533475Y-175329368D01*
X120401620Y-175197513D01*
X120474180Y-175175502D01*
X120584494Y-175116537D01*
X120681185Y-175037185D01*
X120760537Y-174940494D01*
X120819502Y-174830180D01*
X120855812Y-174710482D01*
X120868072Y-174586000D01*
X120868072Y-172886000D01*
X120855812Y-172761518D01*
X120819502Y-172641820D01*
X120760537Y-172531506D01*
X120681185Y-172434815D01*
X120584494Y-172355463D01*
X120474180Y-172296498D01*
X120354482Y-172260188D01*
X120230000Y-172247928D01*
X118530000Y-172247928D01*
X118405518Y-172260188D01*
X118285820Y-172296498D01*
X118175506Y-172355463D01*
X118078815Y-172434815D01*
X117999463Y-172531506D01*
X117940498Y-172641820D01*
X117904188Y-172761518D01*
X117891928Y-172886000D01*
X117891928Y-174586000D01*
X117904188Y-174710482D01*
X117940498Y-174830180D01*
X117999463Y-174940494D01*
X118078815Y-175037185D01*
X118175506Y-175116537D01*
X118285820Y-175175502D01*
X118358380Y-175197513D01*
X118226525Y-175329368D01*
X118193830Y-175378300D01*
X116963584Y-175378300D01*
X116939375Y-175342068D01*
X116807520Y-175210213D01*
X116880080Y-175188202D01*
X116990394Y-175129237D01*
X117087085Y-175049885D01*
X117166437Y-174953194D01*
X117225402Y-174842880D01*
X117261712Y-174723182D01*
X117273972Y-174598700D01*
X117273972Y-172898700D01*
X117261712Y-172774218D01*
X117225402Y-172654520D01*
X117166437Y-172544206D01*
X117087085Y-172447515D01*
X116990394Y-172368163D01*
X116880080Y-172309198D01*
X116760382Y-172272888D01*
X116635900Y-172260628D01*
X114935900Y-172260628D01*
X114811418Y-172272888D01*
X114691720Y-172309198D01*
X114581406Y-172368163D01*
X114484715Y-172447515D01*
X114405363Y-172544206D01*
X114346398Y-172654520D01*
X114310088Y-172774218D01*
X114297828Y-172898700D01*
X114297828Y-174598700D01*
X114310088Y-174723182D01*
X114346398Y-174842880D01*
X114405363Y-174953194D01*
X114484715Y-175049885D01*
X114581406Y-175129237D01*
X114691720Y-175188202D01*
X114764280Y-175210213D01*
X114632425Y-175342068D01*
X114608216Y-175378300D01*
X113377970Y-175378300D01*
X113345275Y-175329368D01*
X113213420Y-175197513D01*
X113285980Y-175175502D01*
X113396294Y-175116537D01*
X113492985Y-175037185D01*
X113572337Y-174940494D01*
X113631302Y-174830180D01*
X113667612Y-174710482D01*
X113679872Y-174586000D01*
X113679872Y-172886000D01*
X113667612Y-172761518D01*
X113631302Y-172641820D01*
X113572337Y-172531506D01*
X113492985Y-172434815D01*
X113396294Y-172355463D01*
X113285980Y-172296498D01*
X113166282Y-172260188D01*
X113041800Y-172247928D01*
X111341800Y-172247928D01*
X111217318Y-172260188D01*
X111097620Y-172296498D01*
X110987306Y-172355463D01*
X110890615Y-172434815D01*
X110811263Y-172531506D01*
X110752298Y-172641820D01*
X110715988Y-172761518D01*
X110703728Y-172886000D01*
X110703728Y-174586000D01*
X110715988Y-174710482D01*
X110752298Y-174830180D01*
X110811263Y-174940494D01*
X110890615Y-175037185D01*
X110987306Y-175116537D01*
X111097620Y-175175502D01*
X111170180Y-175197513D01*
X111038325Y-175329368D01*
X111005630Y-175378300D01*
X109792356Y-175378300D01*
X109751175Y-175316668D01*
X109619320Y-175184813D01*
X109691880Y-175162802D01*
X109802194Y-175103837D01*
X109898885Y-175024485D01*
X109978237Y-174927794D01*
X110037202Y-174817480D01*
X110073512Y-174697782D01*
X110085772Y-174573300D01*
X110085772Y-172873300D01*
X110073512Y-172748818D01*
X110037202Y-172629120D01*
X109978237Y-172518806D01*
X109898885Y-172422115D01*
X109802194Y-172342763D01*
X109691880Y-172283798D01*
X109572182Y-172247488D01*
X109447700Y-172235228D01*
X107747700Y-172235228D01*
X107623218Y-172247488D01*
X107503520Y-172283798D01*
X107393206Y-172342763D01*
X107296515Y-172422115D01*
X107217163Y-172518806D01*
X107158198Y-172629120D01*
X107121888Y-172748818D01*
X107109628Y-172873300D01*
X107109628Y-174573300D01*
X107121888Y-174697782D01*
X107158198Y-174817480D01*
X107217163Y-174927794D01*
X107296515Y-175024485D01*
X107393206Y-175103837D01*
X107503520Y-175162802D01*
X107576080Y-175184813D01*
X107444225Y-175316668D01*
X107403044Y-175378300D01*
X106194042Y-175378300D01*
X106144375Y-175303968D01*
X106012520Y-175172113D01*
X106085080Y-175150102D01*
X106195394Y-175091137D01*
X106292085Y-175011785D01*
X106371437Y-174915094D01*
X106430402Y-174804780D01*
X106466712Y-174685082D01*
X106478972Y-174560600D01*
X106478972Y-172860600D01*
X106466712Y-172736118D01*
X106430402Y-172616420D01*
X106371437Y-172506106D01*
X106292085Y-172409415D01*
X106195394Y-172330063D01*
X106085080Y-172271098D01*
X105965382Y-172234788D01*
X105840900Y-172222528D01*
X104140900Y-172222528D01*
X104016418Y-172234788D01*
X103896720Y-172271098D01*
X103786406Y-172330063D01*
X103689715Y-172409415D01*
X103610363Y-172506106D01*
X103551398Y-172616420D01*
X103515088Y-172736118D01*
X103502828Y-172860600D01*
X103502828Y-174560600D01*
X103515088Y-174685082D01*
X103551398Y-174804780D01*
X103610363Y-174915094D01*
X103689715Y-175011785D01*
X103786406Y-175091137D01*
X103896720Y-175150102D01*
X103969280Y-175172113D01*
X103837425Y-175303968D01*
X103787758Y-175378300D01*
X102612642Y-175378300D01*
X102562975Y-175303968D01*
X102431120Y-175172113D01*
X102503680Y-175150102D01*
X102613994Y-175091137D01*
X102710685Y-175011785D01*
X102790037Y-174915094D01*
X102849002Y-174804780D01*
X102885312Y-174685082D01*
X102897572Y-174560600D01*
X102897572Y-172860600D01*
X102885312Y-172736118D01*
X102849002Y-172616420D01*
X102790037Y-172506106D01*
X102710685Y-172409415D01*
X102613994Y-172330063D01*
X102503680Y-172271098D01*
X102383982Y-172234788D01*
X102259500Y-172222528D01*
X100559500Y-172222528D01*
X100435018Y-172234788D01*
X100315320Y-172271098D01*
X100205006Y-172330063D01*
X100108315Y-172409415D01*
X100028963Y-172506106D01*
X99969998Y-172616420D01*
X99933688Y-172736118D01*
X99921428Y-172860600D01*
X99921428Y-174560600D01*
X99933688Y-174685082D01*
X99969998Y-174804780D01*
X100028963Y-174915094D01*
X100108315Y-175011785D01*
X100205006Y-175091137D01*
X100315320Y-175150102D01*
X100387880Y-175172113D01*
X100256025Y-175303968D01*
X100206358Y-175378300D01*
X98997356Y-175378300D01*
X98956175Y-175316668D01*
X98824320Y-175184813D01*
X98896880Y-175162802D01*
X99007194Y-175103837D01*
X99103885Y-175024485D01*
X99183237Y-174927794D01*
X99242202Y-174817480D01*
X99278512Y-174697782D01*
X99290772Y-174573300D01*
X99290772Y-172873300D01*
X99278512Y-172748818D01*
X99242202Y-172629120D01*
X99183237Y-172518806D01*
X99103885Y-172422115D01*
X99007194Y-172342763D01*
X98896880Y-172283798D01*
X98777182Y-172247488D01*
X98652700Y-172235228D01*
X96952700Y-172235228D01*
X96828218Y-172247488D01*
X96708520Y-172283798D01*
X96598206Y-172342763D01*
X96501515Y-172422115D01*
X96422163Y-172518806D01*
X96363198Y-172629120D01*
X96326888Y-172748818D01*
X96314628Y-172873300D01*
X96314628Y-174573300D01*
X96326888Y-174697782D01*
X96363198Y-174817480D01*
X96422163Y-174927794D01*
X96501515Y-175024485D01*
X96598206Y-175103837D01*
X96708520Y-175162802D01*
X96781080Y-175184813D01*
X96649225Y-175316668D01*
X96608044Y-175378300D01*
X95403256Y-175378300D01*
X95362075Y-175316668D01*
X95230220Y-175184813D01*
X95302780Y-175162802D01*
X95413094Y-175103837D01*
X95509785Y-175024485D01*
X95589137Y-174927794D01*
X95648102Y-174817480D01*
X95684412Y-174697782D01*
X95696672Y-174573300D01*
X95696672Y-172873300D01*
X95684412Y-172748818D01*
X95648102Y-172629120D01*
X95589137Y-172518806D01*
X95509785Y-172422115D01*
X95413094Y-172342763D01*
X95302780Y-172283798D01*
X95183082Y-172247488D01*
X95058600Y-172235228D01*
X93358600Y-172235228D01*
X93234118Y-172247488D01*
X93114420Y-172283798D01*
X93004106Y-172342763D01*
X92907415Y-172422115D01*
X92828063Y-172518806D01*
X92769098Y-172629120D01*
X92732788Y-172748818D01*
X92720528Y-172873300D01*
X92720528Y-174573300D01*
X92732788Y-174697782D01*
X92769098Y-174817480D01*
X92828063Y-174927794D01*
X92907415Y-175024485D01*
X93004106Y-175103837D01*
X93114420Y-175162802D01*
X93186980Y-175184813D01*
X93055125Y-175316668D01*
X93013944Y-175378300D01*
X91809156Y-175378300D01*
X91767975Y-175316668D01*
X91636120Y-175184813D01*
X91708680Y-175162802D01*
X91818994Y-175103837D01*
X91915685Y-175024485D01*
X91995037Y-174927794D01*
X92054002Y-174817480D01*
X92090312Y-174697782D01*
X92102572Y-174573300D01*
X92102572Y-172873300D01*
X92090312Y-172748818D01*
X92054002Y-172629120D01*
X91995037Y-172518806D01*
X91915685Y-172422115D01*
X91818994Y-172342763D01*
X91708680Y-172283798D01*
X91588982Y-172247488D01*
X91464500Y-172235228D01*
X89764500Y-172235228D01*
X89640018Y-172247488D01*
X89520320Y-172283798D01*
X89410006Y-172342763D01*
X89313315Y-172422115D01*
X89233963Y-172518806D01*
X89174998Y-172629120D01*
X89138688Y-172748818D01*
X89126428Y-172873300D01*
X89126428Y-174573300D01*
X89138688Y-174697782D01*
X89174998Y-174817480D01*
X89233963Y-174927794D01*
X89313315Y-175024485D01*
X89410006Y-175103837D01*
X89520320Y-175162802D01*
X89592880Y-175184813D01*
X89461025Y-175316668D01*
X89419844Y-175378300D01*
X88227756Y-175378300D01*
X88186575Y-175316668D01*
X88054720Y-175184813D01*
X88127280Y-175162802D01*
X88237594Y-175103837D01*
X88334285Y-175024485D01*
X88413637Y-174927794D01*
X88472602Y-174817480D01*
X88508912Y-174697782D01*
X88521172Y-174573300D01*
X88521172Y-172873300D01*
X88508912Y-172748818D01*
X88472602Y-172629120D01*
X88413637Y-172518806D01*
X88334285Y-172422115D01*
X88237594Y-172342763D01*
X88127280Y-172283798D01*
X88007582Y-172247488D01*
X87883100Y-172235228D01*
X86183100Y-172235228D01*
X86058618Y-172247488D01*
X85938920Y-172283798D01*
X85828606Y-172342763D01*
X85731915Y-172422115D01*
X85652563Y-172518806D01*
X85593598Y-172629120D01*
X85557288Y-172748818D01*
X85545028Y-172873300D01*
X85545028Y-174573300D01*
X85557288Y-174697782D01*
X85593598Y-174817480D01*
X85652563Y-174927794D01*
X85731915Y-175024485D01*
X85828606Y-175103837D01*
X85938920Y-175162802D01*
X86011480Y-175184813D01*
X85879625Y-175316668D01*
X85838444Y-175378300D01*
X84646356Y-175378300D01*
X84605175Y-175316668D01*
X84473320Y-175184813D01*
X84545880Y-175162802D01*
X84656194Y-175103837D01*
X84752885Y-175024485D01*
X84832237Y-174927794D01*
X84891202Y-174817480D01*
X84927512Y-174697782D01*
X84939772Y-174573300D01*
X84939772Y-172873300D01*
X84927512Y-172748818D01*
X84891202Y-172629120D01*
X84832237Y-172518806D01*
X84752885Y-172422115D01*
X84656194Y-172342763D01*
X84545880Y-172283798D01*
X84426182Y-172247488D01*
X84301700Y-172235228D01*
X82601700Y-172235228D01*
X82477218Y-172247488D01*
X82357520Y-172283798D01*
X82247206Y-172342763D01*
X82150515Y-172422115D01*
X82071163Y-172518806D01*
X82012198Y-172629120D01*
X81975888Y-172748818D01*
X81963628Y-172873300D01*
X81963628Y-174573300D01*
X81975888Y-174697782D01*
X82012198Y-174817480D01*
X82071163Y-174927794D01*
X82150515Y-175024485D01*
X82247206Y-175103837D01*
X82357520Y-175162802D01*
X82430080Y-175184813D01*
X82298225Y-175316668D01*
X82257044Y-175378300D01*
X81052256Y-175378300D01*
X81011075Y-175316668D01*
X80879220Y-175184813D01*
X80951780Y-175162802D01*
X81062094Y-175103837D01*
X81158785Y-175024485D01*
X81238137Y-174927794D01*
X81297102Y-174817480D01*
X81333412Y-174697782D01*
X81345672Y-174573300D01*
X81345672Y-172873300D01*
X81333412Y-172748818D01*
X81297102Y-172629120D01*
X81238137Y-172518806D01*
X81158785Y-172422115D01*
X81062094Y-172342763D01*
X80951780Y-172283798D01*
X80832082Y-172247488D01*
X80707600Y-172235228D01*
X79007600Y-172235228D01*
X78883118Y-172247488D01*
X78763420Y-172283798D01*
X78653106Y-172342763D01*
X78556415Y-172422115D01*
X78477063Y-172518806D01*
X78418098Y-172629120D01*
X78381788Y-172748818D01*
X78369528Y-172873300D01*
X77765181Y-172873300D01*
X77056038Y-157201544D01*
X77325103Y-143833640D01*
X102502600Y-143833640D01*
X102502600Y-144126160D01*
X102559668Y-144413058D01*
X102671610Y-144683311D01*
X102834125Y-144926532D01*
X103040968Y-145133375D01*
X103284189Y-145295890D01*
X103554442Y-145407832D01*
X103841340Y-145464900D01*
X104133860Y-145464900D01*
X104420758Y-145407832D01*
X104691011Y-145295890D01*
X104934232Y-145133375D01*
X105066087Y-145001520D01*
X105088098Y-145074080D01*
X105147063Y-145184394D01*
X105226415Y-145281085D01*
X105323106Y-145360437D01*
X105433420Y-145419402D01*
X105553118Y-145455712D01*
X105677600Y-145467972D01*
X107377600Y-145467972D01*
X107502082Y-145455712D01*
X107621780Y-145419402D01*
X107732094Y-145360437D01*
X107828785Y-145281085D01*
X107908137Y-145184394D01*
X107967102Y-145074080D01*
X108003412Y-144954382D01*
X108015672Y-144829900D01*
X108015672Y-143129900D01*
X108003412Y-143005418D01*
X107967102Y-142885720D01*
X107908137Y-142775406D01*
X107828785Y-142678715D01*
X107732094Y-142599363D01*
X107621780Y-142540398D01*
X107502082Y-142504088D01*
X107377600Y-142491828D01*
X105677600Y-142491828D01*
X105553118Y-142504088D01*
X105433420Y-142540398D01*
X105323106Y-142599363D01*
X105226415Y-142678715D01*
X105147063Y-142775406D01*
X105088098Y-142885720D01*
X105066087Y-142958280D01*
X104934232Y-142826425D01*
X104691011Y-142663910D01*
X104420758Y-142551968D01*
X104133860Y-142494900D01*
X103841340Y-142494900D01*
X103554442Y-142551968D01*
X103284189Y-142663910D01*
X103040968Y-142826425D01*
X102834125Y-143033268D01*
X102671610Y-143276489D01*
X102559668Y-143546742D01*
X102502600Y-143833640D01*
X77325103Y-143833640D01*
X77816578Y-119415800D01*
X84264828Y-119415800D01*
X84264828Y-120715800D01*
X84281892Y-120889054D01*
X84332428Y-121055650D01*
X84414495Y-121209186D01*
X84524938Y-121343762D01*
X84659514Y-121454205D01*
X84813050Y-121536272D01*
X84979646Y-121586808D01*
X85152900Y-121603872D01*
X88252900Y-121603872D01*
X88426154Y-121586808D01*
X88592750Y-121536272D01*
X88746286Y-121454205D01*
X88880862Y-121343762D01*
X88991305Y-121209186D01*
X89073372Y-121055650D01*
X89123908Y-120889054D01*
X89140972Y-120715800D01*
X89140972Y-119415800D01*
X89123908Y-119242546D01*
X89073372Y-119075950D01*
X88991305Y-118922414D01*
X88880862Y-118787838D01*
X88746286Y-118677395D01*
X88592750Y-118595328D01*
X88426154Y-118544792D01*
X88252900Y-118527728D01*
X85152900Y-118527728D01*
X84979646Y-118544792D01*
X84813050Y-118595328D01*
X84659514Y-118677395D01*
X84524938Y-118787838D01*
X84414495Y-118922414D01*
X84332428Y-119075950D01*
X84281892Y-119242546D01*
X84264828Y-119415800D01*
X77816578Y-119415800D01*
X77872840Y-116620540D01*
X84311864Y-116620540D01*
X84336145Y-116725887D01*
X84456038Y-117003004D01*
X84627690Y-117251406D01*
X84844504Y-117461548D01*
X85098149Y-117625354D01*
X85378877Y-117736529D01*
X85675900Y-117790800D01*
X86575900Y-117790800D01*
X86575900Y-116382800D01*
X86829900Y-116382800D01*
X86829900Y-117790800D01*
X87729900Y-117790800D01*
X88026923Y-117736529D01*
X88307651Y-117625354D01*
X88561296Y-117461548D01*
X88778110Y-117251406D01*
X88949762Y-117003004D01*
X89069655Y-116725887D01*
X89093936Y-116620540D01*
X88973278Y-116382800D01*
X86829900Y-116382800D01*
X86575900Y-116382800D01*
X84432522Y-116382800D01*
X84311864Y-116620540D01*
X77872840Y-116620540D01*
X77887522Y-115891060D01*
X84311864Y-115891060D01*
X84432522Y-116128800D01*
X86575900Y-116128800D01*
X86575900Y-114720800D01*
X86829900Y-114720800D01*
X86829900Y-116128800D01*
X88973278Y-116128800D01*
X89093936Y-115891060D01*
X89069655Y-115785713D01*
X88949762Y-115508596D01*
X88778110Y-115260194D01*
X88561296Y-115050052D01*
X88307651Y-114886246D01*
X88026923Y-114775071D01*
X87729900Y-114720800D01*
X86829900Y-114720800D01*
X86575900Y-114720800D01*
X85675900Y-114720800D01*
X85378877Y-114775071D01*
X85098149Y-114886246D01*
X84844504Y-115050052D01*
X84627690Y-115260194D01*
X84456038Y-115508596D01*
X84336145Y-115785713D01*
X84311864Y-115891060D01*
X77887522Y-115891060D01*
X78318376Y-94485144D01*
X144032354Y-94317920D01*
X146204732Y-95797089D01*
G04 #@! TA.AperFunction,Conductor*
D16*
G36*
X146204732Y-95797089D02*
G01*
X146198665Y-97751751D01*
X146160792Y-97626899D01*
X146090220Y-97494870D01*
X146019045Y-97408143D01*
X145995247Y-97379145D01*
X145966250Y-97355348D01*
X143642125Y-95031224D01*
X143618322Y-95002220D01*
X143502597Y-94907247D01*
X143370568Y-94836675D01*
X143227307Y-94793218D01*
X143115654Y-94782221D01*
X143115643Y-94782221D01*
X143078321Y-94778545D01*
X143040999Y-94782221D01*
X91616901Y-94782221D01*
X91579578Y-94778545D01*
X91542255Y-94782221D01*
X91542246Y-94782221D01*
X91430593Y-94793218D01*
X91287332Y-94836675D01*
X91155303Y-94907247D01*
X91155301Y-94907248D01*
X91155302Y-94907248D01*
X91068575Y-94978422D01*
X91068571Y-94978426D01*
X91039578Y-95002220D01*
X91015784Y-95031213D01*
X87170908Y-98876091D01*
X86950760Y-98832300D01*
X86658240Y-98832300D01*
X86371342Y-98889368D01*
X86101089Y-99001310D01*
X85857868Y-99163825D01*
X85651025Y-99370668D01*
X85534500Y-99545060D01*
X85417975Y-99370668D01*
X85211132Y-99163825D01*
X84967911Y-99001310D01*
X84697658Y-98889368D01*
X84410760Y-98832300D01*
X84118240Y-98832300D01*
X83831342Y-98889368D01*
X83561089Y-99001310D01*
X83317868Y-99163825D01*
X83111025Y-99370668D01*
X82948510Y-99613889D01*
X82836568Y-99884142D01*
X82779500Y-100171040D01*
X82779500Y-100463560D01*
X82793961Y-100536261D01*
X82369450Y-100960772D01*
X82335683Y-100988484D01*
X82307970Y-101022252D01*
X82307967Y-101022255D01*
X82225089Y-101123242D01*
X82142911Y-101276988D01*
X82092304Y-101443811D01*
X82075218Y-101617301D01*
X82079500Y-101660780D01*
X82079499Y-107400232D01*
X82075218Y-107443701D01*
X82079499Y-107487170D01*
X82079499Y-107487177D01*
X82092304Y-107617190D01*
X82142910Y-107784013D01*
X82225088Y-107937759D01*
X82335682Y-108072518D01*
X82369455Y-108100235D01*
X113235369Y-138966150D01*
X113263082Y-138999918D01*
X113296850Y-139027631D01*
X113296852Y-139027633D01*
X113397840Y-139110512D01*
X113551585Y-139192690D01*
X113718409Y-139243296D01*
X113848422Y-139256101D01*
X113848430Y-139256101D01*
X113891899Y-139260382D01*
X113935368Y-139256101D01*
X138369230Y-139256101D01*
X138412699Y-139260382D01*
X138456168Y-139256101D01*
X138456176Y-139256101D01*
X138586189Y-139243296D01*
X138753012Y-139192690D01*
X138906758Y-139110512D01*
X139041516Y-138999918D01*
X139069233Y-138966145D01*
X139531840Y-138503539D01*
X139604540Y-138518000D01*
X139897060Y-138518000D01*
X140183958Y-138460932D01*
X140454211Y-138348990D01*
X140697432Y-138186475D01*
X140904275Y-137979632D01*
X141066790Y-137736411D01*
X141178732Y-137466158D01*
X141235800Y-137179260D01*
X141235800Y-136886740D01*
X141178732Y-136599842D01*
X141066790Y-136329589D01*
X140904275Y-136086368D01*
X140697432Y-135879525D01*
X140515266Y-135757805D01*
X140632155Y-135688178D01*
X140848388Y-135493269D01*
X141022441Y-135259920D01*
X141147625Y-134997099D01*
X141192276Y-134849890D01*
X141070955Y-134620000D01*
X139877800Y-134620000D01*
X139877800Y-134640000D01*
X139623800Y-134640000D01*
X139623800Y-134620000D01*
X138430645Y-134620000D01*
X138309324Y-134849890D01*
X138353975Y-134997099D01*
X138479159Y-135259920D01*
X138653212Y-135493269D01*
X138869445Y-135688178D01*
X138986334Y-135757805D01*
X138804168Y-135879525D01*
X138597325Y-136086368D01*
X138434810Y-136329589D01*
X138322868Y-136599842D01*
X138265800Y-136886740D01*
X138265800Y-137179260D01*
X138280261Y-137251960D01*
X138046121Y-137486101D01*
X115947444Y-137486101D01*
X116000900Y-137217360D01*
X116000900Y-136924840D01*
X115957109Y-136704692D01*
X118481303Y-134180499D01*
X118510301Y-134156701D01*
X118605274Y-134040976D01*
X118675846Y-133908947D01*
X118719303Y-133765686D01*
X118730300Y-133654033D01*
X118730300Y-133654024D01*
X118733976Y-133616701D01*
X118730300Y-133579378D01*
X118730300Y-110883820D01*
X118733976Y-110846497D01*
X118730300Y-110809174D01*
X118730300Y-110809165D01*
X118719303Y-110697512D01*
X118675846Y-110554251D01*
X118605274Y-110422222D01*
X118550197Y-110355110D01*
X118534099Y-110335494D01*
X118534095Y-110335490D01*
X118510301Y-110306497D01*
X118481309Y-110282704D01*
X115696195Y-107497592D01*
X115831890Y-107294511D01*
X115943832Y-107024258D01*
X116000900Y-106737360D01*
X116000900Y-106444840D01*
X115943832Y-106157942D01*
X115831890Y-105887689D01*
X115669375Y-105644468D01*
X115462532Y-105437625D01*
X115280366Y-105315905D01*
X115397255Y-105246278D01*
X115613488Y-105051369D01*
X115787541Y-104818020D01*
X115912725Y-104555199D01*
X115957376Y-104407990D01*
X115836055Y-104178100D01*
X114642900Y-104178100D01*
X114642900Y-104198100D01*
X114388900Y-104198100D01*
X114388900Y-104178100D01*
X113195745Y-104178100D01*
X113074424Y-104407990D01*
X113119075Y-104555199D01*
X113244259Y-104818020D01*
X113418312Y-105051369D01*
X113634545Y-105246278D01*
X113751434Y-105315905D01*
X113569268Y-105437625D01*
X113362425Y-105644468D01*
X113199910Y-105887689D01*
X113087968Y-106157942D01*
X113058382Y-106306680D01*
X111152572Y-104400871D01*
X111152572Y-103539098D01*
X111221646Y-103518145D01*
X111353675Y-103447573D01*
X111469400Y-103352600D01*
X111493203Y-103323596D01*
X113027828Y-101788972D01*
X113027828Y-102361100D01*
X113040088Y-102485582D01*
X113076398Y-102605280D01*
X113135363Y-102715594D01*
X113214715Y-102812285D01*
X113311406Y-102891637D01*
X113421720Y-102950602D01*
X113502366Y-102975066D01*
X113418312Y-103050831D01*
X113244259Y-103284180D01*
X113119075Y-103547001D01*
X113074424Y-103694210D01*
X113195745Y-103924100D01*
X114388900Y-103924100D01*
X114388900Y-103904100D01*
X114642900Y-103904100D01*
X114642900Y-103924100D01*
X115836055Y-103924100D01*
X115957376Y-103694210D01*
X115912725Y-103547001D01*
X115787541Y-103284180D01*
X115613488Y-103050831D01*
X115529434Y-102975066D01*
X115610080Y-102950602D01*
X115720394Y-102891637D01*
X115817085Y-102812285D01*
X115896437Y-102715594D01*
X115955402Y-102605280D01*
X115991712Y-102485582D01*
X116003972Y-102361100D01*
X116003972Y-101057999D01*
X138262728Y-101057999D01*
X138262728Y-102323000D01*
X138274988Y-102447482D01*
X138311298Y-102567180D01*
X138370263Y-102677494D01*
X138449615Y-102774185D01*
X138546306Y-102853537D01*
X138656620Y-102912502D01*
X138729180Y-102934513D01*
X138597325Y-103066368D01*
X138434810Y-103309589D01*
X138322868Y-103579842D01*
X138265800Y-103866740D01*
X138265800Y-104159260D01*
X138322868Y-104446158D01*
X138434810Y-104716411D01*
X138597325Y-104959632D01*
X138804168Y-105166475D01*
X138978560Y-105283000D01*
X138804168Y-105399525D01*
X138597325Y-105606368D01*
X138434810Y-105849589D01*
X138322868Y-106119842D01*
X138265800Y-106406740D01*
X138265800Y-106699260D01*
X138322868Y-106986158D01*
X138434810Y-107256411D01*
X138597325Y-107499632D01*
X138804168Y-107706475D01*
X138978560Y-107823000D01*
X138804168Y-107939525D01*
X138597325Y-108146368D01*
X138434810Y-108389589D01*
X138322868Y-108659842D01*
X138265800Y-108946740D01*
X138265800Y-109239260D01*
X138322868Y-109526158D01*
X138434810Y-109796411D01*
X138597325Y-110039632D01*
X138804168Y-110246475D01*
X138978560Y-110363000D01*
X138804168Y-110479525D01*
X138597325Y-110686368D01*
X138434810Y-110929589D01*
X138322868Y-111199842D01*
X138265800Y-111486740D01*
X138265800Y-111779260D01*
X138322868Y-112066158D01*
X138434810Y-112336411D01*
X138597325Y-112579632D01*
X138804168Y-112786475D01*
X138978560Y-112903000D01*
X138804168Y-113019525D01*
X138597325Y-113226368D01*
X138434810Y-113469589D01*
X138322868Y-113739842D01*
X138265800Y-114026740D01*
X138265800Y-114319260D01*
X138322868Y-114606158D01*
X138434810Y-114876411D01*
X138597325Y-115119632D01*
X138804168Y-115326475D01*
X138978560Y-115443000D01*
X138804168Y-115559525D01*
X138597325Y-115766368D01*
X138434810Y-116009589D01*
X138322868Y-116279842D01*
X138265800Y-116566740D01*
X138265800Y-116859260D01*
X138322868Y-117146158D01*
X138434810Y-117416411D01*
X138597325Y-117659632D01*
X138804168Y-117866475D01*
X138978560Y-117983000D01*
X138804168Y-118099525D01*
X138597325Y-118306368D01*
X138434810Y-118549589D01*
X138322868Y-118819842D01*
X138265800Y-119106740D01*
X138265800Y-119399260D01*
X138322868Y-119686158D01*
X138434810Y-119956411D01*
X138597325Y-120199632D01*
X138804168Y-120406475D01*
X138978560Y-120523000D01*
X138804168Y-120639525D01*
X138597325Y-120846368D01*
X138434810Y-121089589D01*
X138322868Y-121359842D01*
X138265800Y-121646740D01*
X138265800Y-121939260D01*
X138322868Y-122226158D01*
X138434810Y-122496411D01*
X138597325Y-122739632D01*
X138804168Y-122946475D01*
X138978560Y-123063000D01*
X138804168Y-123179525D01*
X138597325Y-123386368D01*
X138434810Y-123629589D01*
X138322868Y-123899842D01*
X138265800Y-124186740D01*
X138265800Y-124479260D01*
X138322868Y-124766158D01*
X138434810Y-125036411D01*
X138597325Y-125279632D01*
X138804168Y-125486475D01*
X138978560Y-125603000D01*
X138804168Y-125719525D01*
X138597325Y-125926368D01*
X138434810Y-126169589D01*
X138322868Y-126439842D01*
X138265800Y-126726740D01*
X138265800Y-127019260D01*
X138322868Y-127306158D01*
X138434810Y-127576411D01*
X138597325Y-127819632D01*
X138804168Y-128026475D01*
X138978560Y-128143000D01*
X138804168Y-128259525D01*
X138597325Y-128466368D01*
X138434810Y-128709589D01*
X138322868Y-128979842D01*
X138265800Y-129266740D01*
X138265800Y-129559260D01*
X138322868Y-129846158D01*
X138434810Y-130116411D01*
X138597325Y-130359632D01*
X138804168Y-130566475D01*
X138978560Y-130683000D01*
X138804168Y-130799525D01*
X138597325Y-131006368D01*
X138434810Y-131249589D01*
X138322868Y-131519842D01*
X138265800Y-131806740D01*
X138265800Y-132099260D01*
X138322868Y-132386158D01*
X138434810Y-132656411D01*
X138597325Y-132899632D01*
X138804168Y-133106475D01*
X138986334Y-133228195D01*
X138869445Y-133297822D01*
X138653212Y-133492731D01*
X138479159Y-133726080D01*
X138353975Y-133988901D01*
X138309324Y-134136110D01*
X138430645Y-134366000D01*
X139623800Y-134366000D01*
X139623800Y-134346000D01*
X139877800Y-134346000D01*
X139877800Y-134366000D01*
X141070955Y-134366000D01*
X141192276Y-134136110D01*
X141147625Y-133988901D01*
X141022441Y-133726080D01*
X140848388Y-133492731D01*
X140632155Y-133297822D01*
X140515266Y-133228195D01*
X140697432Y-133106475D01*
X140904275Y-132899632D01*
X141066790Y-132656411D01*
X141178732Y-132386158D01*
X141235800Y-132099260D01*
X141235800Y-131806740D01*
X141192009Y-131586592D01*
X145966249Y-126812353D01*
X145995247Y-126788555D01*
X146021578Y-126756471D01*
X146041095Y-126732690D01*
X143406586Y-183009540D01*
X78368378Y-183009540D01*
X78422578Y-182737057D01*
X78422578Y-182113623D01*
X78300952Y-181502167D01*
X78137813Y-181108315D01*
X78049661Y-179160190D01*
X78416124Y-179160190D01*
X78460775Y-179307399D01*
X78585959Y-179570220D01*
X78760012Y-179803569D01*
X78976245Y-179998478D01*
X79226348Y-180147457D01*
X79500709Y-180244781D01*
X79730600Y-180124114D01*
X79730600Y-178930300D01*
X79984600Y-178930300D01*
X79984600Y-180124114D01*
X80214491Y-180244781D01*
X80488852Y-180147457D01*
X80738955Y-179998478D01*
X80955188Y-179803569D01*
X81129241Y-179570220D01*
X81254425Y-179307399D01*
X81299076Y-179160190D01*
X82010224Y-179160190D01*
X82054875Y-179307399D01*
X82180059Y-179570220D01*
X82354112Y-179803569D01*
X82570345Y-179998478D01*
X82820448Y-180147457D01*
X83094809Y-180244781D01*
X83324700Y-180124114D01*
X83324700Y-178930300D01*
X83578700Y-178930300D01*
X83578700Y-180124114D01*
X83808591Y-180244781D01*
X84082952Y-180147457D01*
X84333055Y-179998478D01*
X84549288Y-179803569D01*
X84723341Y-179570220D01*
X84848525Y-179307399D01*
X84893176Y-179160190D01*
X85591624Y-179160190D01*
X85636275Y-179307399D01*
X85761459Y-179570220D01*
X85935512Y-179803569D01*
X86151745Y-179998478D01*
X86401848Y-180147457D01*
X86676209Y-180244781D01*
X86906100Y-180124114D01*
X86906100Y-178930300D01*
X87160100Y-178930300D01*
X87160100Y-180124114D01*
X87389991Y-180244781D01*
X87664352Y-180147457D01*
X87914455Y-179998478D01*
X88130688Y-179803569D01*
X88304741Y-179570220D01*
X88429925Y-179307399D01*
X88474576Y-179160190D01*
X89173024Y-179160190D01*
X89217675Y-179307399D01*
X89342859Y-179570220D01*
X89516912Y-179803569D01*
X89733145Y-179998478D01*
X89983248Y-180147457D01*
X90257609Y-180244781D01*
X90487500Y-180124114D01*
X90487500Y-178930300D01*
X90741500Y-178930300D01*
X90741500Y-180124114D01*
X90971391Y-180244781D01*
X91245752Y-180147457D01*
X91495855Y-179998478D01*
X91712088Y-179803569D01*
X91886141Y-179570220D01*
X92011325Y-179307399D01*
X92055976Y-179160190D01*
X92767124Y-179160190D01*
X92811775Y-179307399D01*
X92936959Y-179570220D01*
X93111012Y-179803569D01*
X93327245Y-179998478D01*
X93577348Y-180147457D01*
X93851709Y-180244781D01*
X94081600Y-180124114D01*
X94081600Y-178930300D01*
X94335600Y-178930300D01*
X94335600Y-180124114D01*
X94565491Y-180244781D01*
X94839852Y-180147457D01*
X95089955Y-179998478D01*
X95306188Y-179803569D01*
X95480241Y-179570220D01*
X95605425Y-179307399D01*
X95650076Y-179160190D01*
X96361224Y-179160190D01*
X96405875Y-179307399D01*
X96531059Y-179570220D01*
X96705112Y-179803569D01*
X96921345Y-179998478D01*
X97171448Y-180147457D01*
X97445809Y-180244781D01*
X97675700Y-180124114D01*
X97675700Y-178930300D01*
X97929700Y-178930300D01*
X97929700Y-180124114D01*
X98159591Y-180244781D01*
X98433952Y-180147457D01*
X98684055Y-179998478D01*
X98900288Y-179803569D01*
X99074341Y-179570220D01*
X99199525Y-179307399D01*
X99244176Y-179160190D01*
X99237474Y-179147490D01*
X99968024Y-179147490D01*
X100012675Y-179294699D01*
X100137859Y-179557520D01*
X100311912Y-179790869D01*
X100528145Y-179985778D01*
X100778248Y-180134757D01*
X101052609Y-180232081D01*
X101282500Y-180111414D01*
X101282500Y-178917600D01*
X101536500Y-178917600D01*
X101536500Y-180111414D01*
X101766391Y-180232081D01*
X102040752Y-180134757D01*
X102290855Y-179985778D01*
X102507088Y-179790869D01*
X102681141Y-179557520D01*
X102806325Y-179294699D01*
X102850976Y-179147490D01*
X103549424Y-179147490D01*
X103594075Y-179294699D01*
X103719259Y-179557520D01*
X103893312Y-179790869D01*
X104109545Y-179985778D01*
X104359648Y-180134757D01*
X104634009Y-180232081D01*
X104863900Y-180111414D01*
X104863900Y-178917600D01*
X105117900Y-178917600D01*
X105117900Y-180111414D01*
X105347791Y-180232081D01*
X105622152Y-180134757D01*
X105872255Y-179985778D01*
X106088488Y-179790869D01*
X106262541Y-179557520D01*
X106387725Y-179294699D01*
X106428523Y-179160190D01*
X107156224Y-179160190D01*
X107200875Y-179307399D01*
X107326059Y-179570220D01*
X107500112Y-179803569D01*
X107716345Y-179998478D01*
X107966448Y-180147457D01*
X108240809Y-180244781D01*
X108470700Y-180124114D01*
X108470700Y-178930300D01*
X108724700Y-178930300D01*
X108724700Y-180124114D01*
X108954591Y-180244781D01*
X109228952Y-180147457D01*
X109479055Y-179998478D01*
X109695288Y-179803569D01*
X109869341Y-179570220D01*
X109994525Y-179307399D01*
X110035323Y-179172890D01*
X110750324Y-179172890D01*
X110794975Y-179320099D01*
X110920159Y-179582920D01*
X111094212Y-179816269D01*
X111310445Y-180011178D01*
X111560548Y-180160157D01*
X111834909Y-180257481D01*
X112064800Y-180136814D01*
X112064800Y-178943000D01*
X112318800Y-178943000D01*
X112318800Y-180136814D01*
X112548691Y-180257481D01*
X112823052Y-180160157D01*
X113073155Y-180011178D01*
X113289388Y-179816269D01*
X113463441Y-179582920D01*
X113588625Y-179320099D01*
X113629423Y-179185590D01*
X114344424Y-179185590D01*
X114389075Y-179332799D01*
X114514259Y-179595620D01*
X114688312Y-179828969D01*
X114904545Y-180023878D01*
X115154648Y-180172857D01*
X115429009Y-180270181D01*
X115658900Y-180149514D01*
X115658900Y-178955700D01*
X115912900Y-178955700D01*
X115912900Y-180149514D01*
X116142791Y-180270181D01*
X116417152Y-180172857D01*
X116667255Y-180023878D01*
X116883488Y-179828969D01*
X117057541Y-179595620D01*
X117182725Y-179332799D01*
X117227376Y-179185590D01*
X117220674Y-179172890D01*
X117938524Y-179172890D01*
X117983175Y-179320099D01*
X118108359Y-179582920D01*
X118282412Y-179816269D01*
X118498645Y-180011178D01*
X118748748Y-180160157D01*
X119023109Y-180257481D01*
X119253000Y-180136814D01*
X119253000Y-178943000D01*
X119507000Y-178943000D01*
X119507000Y-180136814D01*
X119736891Y-180257481D01*
X120011252Y-180160157D01*
X120261355Y-180011178D01*
X120477588Y-179816269D01*
X120651641Y-179582920D01*
X120776825Y-179320099D01*
X120821476Y-179172890D01*
X121532624Y-179172890D01*
X121577275Y-179320099D01*
X121702459Y-179582920D01*
X121876512Y-179816269D01*
X122092745Y-180011178D01*
X122342848Y-180160157D01*
X122617209Y-180257481D01*
X122847100Y-180136814D01*
X122847100Y-178943000D01*
X123101100Y-178943000D01*
X123101100Y-180136814D01*
X123330991Y-180257481D01*
X123605352Y-180160157D01*
X123855455Y-180011178D01*
X124071688Y-179816269D01*
X124245741Y-179582920D01*
X124370925Y-179320099D01*
X124415576Y-179172890D01*
X125101324Y-179172890D01*
X125145975Y-179320099D01*
X125271159Y-179582920D01*
X125445212Y-179816269D01*
X125661445Y-180011178D01*
X125911548Y-180160157D01*
X126185909Y-180257481D01*
X126415800Y-180136814D01*
X126415800Y-178943000D01*
X126669800Y-178943000D01*
X126669800Y-180136814D01*
X126899691Y-180257481D01*
X127174052Y-180160157D01*
X127424155Y-180011178D01*
X127640388Y-179816269D01*
X127814441Y-179582920D01*
X127939625Y-179320099D01*
X127984276Y-179172890D01*
X128708124Y-179172890D01*
X128752775Y-179320099D01*
X128877959Y-179582920D01*
X129052012Y-179816269D01*
X129268245Y-180011178D01*
X129518348Y-180160157D01*
X129792709Y-180257481D01*
X130022600Y-180136814D01*
X130022600Y-178943000D01*
X130276600Y-178943000D01*
X130276600Y-180136814D01*
X130506491Y-180257481D01*
X130780852Y-180160157D01*
X131030955Y-180011178D01*
X131247188Y-179816269D01*
X131421241Y-179582920D01*
X131546425Y-179320099D01*
X131591076Y-179172890D01*
X132314924Y-179172890D01*
X132359575Y-179320099D01*
X132484759Y-179582920D01*
X132658812Y-179816269D01*
X132875045Y-180011178D01*
X133125148Y-180160157D01*
X133399509Y-180257481D01*
X133629400Y-180136814D01*
X133629400Y-178943000D01*
X133883400Y-178943000D01*
X133883400Y-180136814D01*
X134113291Y-180257481D01*
X134387652Y-180160157D01*
X134637755Y-180011178D01*
X134853988Y-179816269D01*
X135028041Y-179582920D01*
X135153225Y-179320099D01*
X135197876Y-179172890D01*
X135191174Y-179160190D01*
X135921724Y-179160190D01*
X135966375Y-179307399D01*
X136091559Y-179570220D01*
X136265612Y-179803569D01*
X136481845Y-179998478D01*
X136731948Y-180147457D01*
X137006309Y-180244781D01*
X137236200Y-180124114D01*
X137236200Y-178930300D01*
X137490200Y-178930300D01*
X137490200Y-180124114D01*
X137720091Y-180244781D01*
X137994452Y-180147457D01*
X138244555Y-179998478D01*
X138460788Y-179803569D01*
X138634841Y-179570220D01*
X138760025Y-179307399D01*
X138804676Y-179160190D01*
X139515824Y-179160190D01*
X139560475Y-179307399D01*
X139685659Y-179570220D01*
X139859712Y-179803569D01*
X140075945Y-179998478D01*
X140326048Y-180147457D01*
X140600409Y-180244781D01*
X140830300Y-180124114D01*
X140830300Y-178930300D01*
X141084300Y-178930300D01*
X141084300Y-180124114D01*
X141314191Y-180244781D01*
X141588552Y-180147457D01*
X141838655Y-179998478D01*
X142054888Y-179803569D01*
X142228941Y-179570220D01*
X142354125Y-179307399D01*
X142398776Y-179160190D01*
X142277455Y-178930300D01*
X141084300Y-178930300D01*
X140830300Y-178930300D01*
X139637145Y-178930300D01*
X139515824Y-179160190D01*
X138804676Y-179160190D01*
X138683355Y-178930300D01*
X137490200Y-178930300D01*
X137236200Y-178930300D01*
X136043045Y-178930300D01*
X135921724Y-179160190D01*
X135191174Y-179160190D01*
X135076555Y-178943000D01*
X133883400Y-178943000D01*
X133629400Y-178943000D01*
X132436245Y-178943000D01*
X132314924Y-179172890D01*
X131591076Y-179172890D01*
X131469755Y-178943000D01*
X130276600Y-178943000D01*
X130022600Y-178943000D01*
X128829445Y-178943000D01*
X128708124Y-179172890D01*
X127984276Y-179172890D01*
X127862955Y-178943000D01*
X126669800Y-178943000D01*
X126415800Y-178943000D01*
X125222645Y-178943000D01*
X125101324Y-179172890D01*
X124415576Y-179172890D01*
X124294255Y-178943000D01*
X123101100Y-178943000D01*
X122847100Y-178943000D01*
X121653945Y-178943000D01*
X121532624Y-179172890D01*
X120821476Y-179172890D01*
X120700155Y-178943000D01*
X119507000Y-178943000D01*
X119253000Y-178943000D01*
X118059845Y-178943000D01*
X117938524Y-179172890D01*
X117220674Y-179172890D01*
X117106055Y-178955700D01*
X115912900Y-178955700D01*
X115658900Y-178955700D01*
X114465745Y-178955700D01*
X114344424Y-179185590D01*
X113629423Y-179185590D01*
X113633276Y-179172890D01*
X113511955Y-178943000D01*
X112318800Y-178943000D01*
X112064800Y-178943000D01*
X110871645Y-178943000D01*
X110750324Y-179172890D01*
X110035323Y-179172890D01*
X110039176Y-179160190D01*
X109917855Y-178930300D01*
X108724700Y-178930300D01*
X108470700Y-178930300D01*
X107277545Y-178930300D01*
X107156224Y-179160190D01*
X106428523Y-179160190D01*
X106432376Y-179147490D01*
X106311055Y-178917600D01*
X105117900Y-178917600D01*
X104863900Y-178917600D01*
X103670745Y-178917600D01*
X103549424Y-179147490D01*
X102850976Y-179147490D01*
X102729655Y-178917600D01*
X101536500Y-178917600D01*
X101282500Y-178917600D01*
X100089345Y-178917600D01*
X99968024Y-179147490D01*
X99237474Y-179147490D01*
X99122855Y-178930300D01*
X97929700Y-178930300D01*
X97675700Y-178930300D01*
X96482545Y-178930300D01*
X96361224Y-179160190D01*
X95650076Y-179160190D01*
X95528755Y-178930300D01*
X94335600Y-178930300D01*
X94081600Y-178930300D01*
X92888445Y-178930300D01*
X92767124Y-179160190D01*
X92055976Y-179160190D01*
X91934655Y-178930300D01*
X90741500Y-178930300D01*
X90487500Y-178930300D01*
X89294345Y-178930300D01*
X89173024Y-179160190D01*
X88474576Y-179160190D01*
X88353255Y-178930300D01*
X87160100Y-178930300D01*
X86906100Y-178930300D01*
X85712945Y-178930300D01*
X85591624Y-179160190D01*
X84893176Y-179160190D01*
X84771855Y-178930300D01*
X83578700Y-178930300D01*
X83324700Y-178930300D01*
X82131545Y-178930300D01*
X82010224Y-179160190D01*
X81299076Y-179160190D01*
X81177755Y-178930300D01*
X79984600Y-178930300D01*
X79730600Y-178930300D01*
X78537445Y-178930300D01*
X78416124Y-179160190D01*
X78049661Y-179160190D01*
X77765181Y-172873300D01*
X78369528Y-172873300D01*
X78369528Y-174573300D01*
X78381788Y-174697782D01*
X78418098Y-174817480D01*
X78477063Y-174927794D01*
X78556415Y-175024485D01*
X78653106Y-175103837D01*
X78763420Y-175162802D01*
X78835980Y-175184813D01*
X78704125Y-175316668D01*
X78541610Y-175559889D01*
X78429668Y-175830142D01*
X78372600Y-176117040D01*
X78372600Y-176409560D01*
X78429668Y-176696458D01*
X78541610Y-176966711D01*
X78704125Y-177209932D01*
X78910968Y-177416775D01*
X79093134Y-177538495D01*
X78976245Y-177608122D01*
X78760012Y-177803031D01*
X78585959Y-178036380D01*
X78460775Y-178299201D01*
X78416124Y-178446410D01*
X78537445Y-178676300D01*
X79730600Y-178676300D01*
X79730600Y-178656300D01*
X79984600Y-178656300D01*
X79984600Y-178676300D01*
X81177755Y-178676300D01*
X81299076Y-178446410D01*
X81254425Y-178299201D01*
X81129241Y-178036380D01*
X80955188Y-177803031D01*
X80738955Y-177608122D01*
X80622066Y-177538495D01*
X80804232Y-177416775D01*
X81011075Y-177209932D01*
X81052256Y-177148300D01*
X82257044Y-177148300D01*
X82298225Y-177209932D01*
X82505068Y-177416775D01*
X82687234Y-177538495D01*
X82570345Y-177608122D01*
X82354112Y-177803031D01*
X82180059Y-178036380D01*
X82054875Y-178299201D01*
X82010224Y-178446410D01*
X82131545Y-178676300D01*
X83324700Y-178676300D01*
X83324700Y-178656300D01*
X83578700Y-178656300D01*
X83578700Y-178676300D01*
X84771855Y-178676300D01*
X84893176Y-178446410D01*
X84848525Y-178299201D01*
X84723341Y-178036380D01*
X84549288Y-177803031D01*
X84333055Y-177608122D01*
X84216166Y-177538495D01*
X84398332Y-177416775D01*
X84605175Y-177209932D01*
X84646356Y-177148300D01*
X85838444Y-177148300D01*
X85879625Y-177209932D01*
X86086468Y-177416775D01*
X86268634Y-177538495D01*
X86151745Y-177608122D01*
X85935512Y-177803031D01*
X85761459Y-178036380D01*
X85636275Y-178299201D01*
X85591624Y-178446410D01*
X85712945Y-178676300D01*
X86906100Y-178676300D01*
X86906100Y-178656300D01*
X87160100Y-178656300D01*
X87160100Y-178676300D01*
X88353255Y-178676300D01*
X88474576Y-178446410D01*
X88429925Y-178299201D01*
X88304741Y-178036380D01*
X88130688Y-177803031D01*
X87914455Y-177608122D01*
X87797566Y-177538495D01*
X87979732Y-177416775D01*
X88186575Y-177209932D01*
X88227756Y-177148300D01*
X89419844Y-177148300D01*
X89461025Y-177209932D01*
X89667868Y-177416775D01*
X89850034Y-177538495D01*
X89733145Y-177608122D01*
X89516912Y-177803031D01*
X89342859Y-178036380D01*
X89217675Y-178299201D01*
X89173024Y-178446410D01*
X89294345Y-178676300D01*
X90487500Y-178676300D01*
X90487500Y-178656300D01*
X90741500Y-178656300D01*
X90741500Y-178676300D01*
X91934655Y-178676300D01*
X92055976Y-178446410D01*
X92011325Y-178299201D01*
X91886141Y-178036380D01*
X91712088Y-177803031D01*
X91495855Y-177608122D01*
X91378966Y-177538495D01*
X91561132Y-177416775D01*
X91767975Y-177209932D01*
X91809156Y-177148300D01*
X93013944Y-177148300D01*
X93055125Y-177209932D01*
X93261968Y-177416775D01*
X93444134Y-177538495D01*
X93327245Y-177608122D01*
X93111012Y-177803031D01*
X92936959Y-178036380D01*
X92811775Y-178299201D01*
X92767124Y-178446410D01*
X92888445Y-178676300D01*
X94081600Y-178676300D01*
X94081600Y-178656300D01*
X94335600Y-178656300D01*
X94335600Y-178676300D01*
X95528755Y-178676300D01*
X95650076Y-178446410D01*
X95605425Y-178299201D01*
X95480241Y-178036380D01*
X95306188Y-177803031D01*
X95089955Y-177608122D01*
X94973066Y-177538495D01*
X95155232Y-177416775D01*
X95362075Y-177209932D01*
X95403256Y-177148300D01*
X96608044Y-177148300D01*
X96649225Y-177209932D01*
X96856068Y-177416775D01*
X97038234Y-177538495D01*
X96921345Y-177608122D01*
X96705112Y-177803031D01*
X96531059Y-178036380D01*
X96405875Y-178299201D01*
X96361224Y-178446410D01*
X96482545Y-178676300D01*
X97675700Y-178676300D01*
X97675700Y-178656300D01*
X97929700Y-178656300D01*
X97929700Y-178676300D01*
X99122855Y-178676300D01*
X99244176Y-178446410D01*
X99199525Y-178299201D01*
X99074341Y-178036380D01*
X98900288Y-177803031D01*
X98684055Y-177608122D01*
X98567166Y-177538495D01*
X98749332Y-177416775D01*
X98956175Y-177209932D01*
X98997356Y-177148300D01*
X100223330Y-177148300D01*
X100256025Y-177197232D01*
X100462868Y-177404075D01*
X100645034Y-177525795D01*
X100528145Y-177595422D01*
X100311912Y-177790331D01*
X100137859Y-178023680D01*
X100012675Y-178286501D01*
X99968024Y-178433710D01*
X100089345Y-178663600D01*
X101282500Y-178663600D01*
X101282500Y-178643600D01*
X101536500Y-178643600D01*
X101536500Y-178663600D01*
X102729655Y-178663600D01*
X102850976Y-178433710D01*
X102806325Y-178286501D01*
X102681141Y-178023680D01*
X102507088Y-177790331D01*
X102290855Y-177595422D01*
X102173966Y-177525795D01*
X102356132Y-177404075D01*
X102562975Y-177197232D01*
X102595670Y-177148300D01*
X103804730Y-177148300D01*
X103837425Y-177197232D01*
X104044268Y-177404075D01*
X104226434Y-177525795D01*
X104109545Y-177595422D01*
X103893312Y-177790331D01*
X103719259Y-178023680D01*
X103594075Y-178286501D01*
X103549424Y-178433710D01*
X103670745Y-178663600D01*
X104863900Y-178663600D01*
X104863900Y-178643600D01*
X105117900Y-178643600D01*
X105117900Y-178663600D01*
X106311055Y-178663600D01*
X106432376Y-178433710D01*
X106387725Y-178286501D01*
X106262541Y-178023680D01*
X106088488Y-177790331D01*
X105872255Y-177595422D01*
X105755366Y-177525795D01*
X105937532Y-177404075D01*
X106144375Y-177197232D01*
X106177070Y-177148300D01*
X107403044Y-177148300D01*
X107444225Y-177209932D01*
X107651068Y-177416775D01*
X107833234Y-177538495D01*
X107716345Y-177608122D01*
X107500112Y-177803031D01*
X107326059Y-178036380D01*
X107200875Y-178299201D01*
X107156224Y-178446410D01*
X107277545Y-178676300D01*
X108470700Y-178676300D01*
X108470700Y-178656300D01*
X108724700Y-178656300D01*
X108724700Y-178676300D01*
X109917855Y-178676300D01*
X110039176Y-178446410D01*
X109994525Y-178299201D01*
X109869341Y-178036380D01*
X109695288Y-177803031D01*
X109479055Y-177608122D01*
X109362166Y-177538495D01*
X109544332Y-177416775D01*
X109751175Y-177209932D01*
X109792356Y-177148300D01*
X110988658Y-177148300D01*
X111038325Y-177222632D01*
X111245168Y-177429475D01*
X111427334Y-177551195D01*
X111310445Y-177620822D01*
X111094212Y-177815731D01*
X110920159Y-178049080D01*
X110794975Y-178311901D01*
X110750324Y-178459110D01*
X110871645Y-178689000D01*
X112064800Y-178689000D01*
X112064800Y-178669000D01*
X112318800Y-178669000D01*
X112318800Y-178689000D01*
X113511955Y-178689000D01*
X113633276Y-178459110D01*
X113588625Y-178311901D01*
X113463441Y-178049080D01*
X113289388Y-177815731D01*
X113073155Y-177620822D01*
X112956266Y-177551195D01*
X113138432Y-177429475D01*
X113345275Y-177222632D01*
X113394942Y-177148300D01*
X114574272Y-177148300D01*
X114632425Y-177235332D01*
X114839268Y-177442175D01*
X115021434Y-177563895D01*
X114904545Y-177633522D01*
X114688312Y-177828431D01*
X114514259Y-178061780D01*
X114389075Y-178324601D01*
X114344424Y-178471810D01*
X114465745Y-178701700D01*
X115658900Y-178701700D01*
X115658900Y-178681700D01*
X115912900Y-178681700D01*
X115912900Y-178701700D01*
X117106055Y-178701700D01*
X117227376Y-178471810D01*
X117182725Y-178324601D01*
X117057541Y-178061780D01*
X116883488Y-177828431D01*
X116667255Y-177633522D01*
X116550366Y-177563895D01*
X116732532Y-177442175D01*
X116939375Y-177235332D01*
X116997528Y-177148300D01*
X118176858Y-177148300D01*
X118226525Y-177222632D01*
X118433368Y-177429475D01*
X118615534Y-177551195D01*
X118498645Y-177620822D01*
X118282412Y-177815731D01*
X118108359Y-178049080D01*
X117983175Y-178311901D01*
X117938524Y-178459110D01*
X118059845Y-178689000D01*
X119253000Y-178689000D01*
X119253000Y-178669000D01*
X119507000Y-178669000D01*
X119507000Y-178689000D01*
X120700155Y-178689000D01*
X120821476Y-178459110D01*
X120776825Y-178311901D01*
X120651641Y-178049080D01*
X120477588Y-177815731D01*
X120261355Y-177620822D01*
X120144466Y-177551195D01*
X120326632Y-177429475D01*
X120533475Y-177222632D01*
X120583142Y-177148300D01*
X121770958Y-177148300D01*
X121820625Y-177222632D01*
X122027468Y-177429475D01*
X122209634Y-177551195D01*
X122092745Y-177620822D01*
X121876512Y-177815731D01*
X121702459Y-178049080D01*
X121577275Y-178311901D01*
X121532624Y-178459110D01*
X121653945Y-178689000D01*
X122847100Y-178689000D01*
X122847100Y-178669000D01*
X123101100Y-178669000D01*
X123101100Y-178689000D01*
X124294255Y-178689000D01*
X124415576Y-178459110D01*
X124370925Y-178311901D01*
X124245741Y-178049080D01*
X124071688Y-177815731D01*
X123855455Y-177620822D01*
X123738566Y-177551195D01*
X123920732Y-177429475D01*
X124127575Y-177222632D01*
X124177242Y-177148300D01*
X125339658Y-177148300D01*
X125389325Y-177222632D01*
X125596168Y-177429475D01*
X125778334Y-177551195D01*
X125661445Y-177620822D01*
X125445212Y-177815731D01*
X125271159Y-178049080D01*
X125145975Y-178311901D01*
X125101324Y-178459110D01*
X125222645Y-178689000D01*
X126415800Y-178689000D01*
X126415800Y-178669000D01*
X126669800Y-178669000D01*
X126669800Y-178689000D01*
X127862955Y-178689000D01*
X127984276Y-178459110D01*
X127939625Y-178311901D01*
X127814441Y-178049080D01*
X127640388Y-177815731D01*
X127424155Y-177620822D01*
X127307266Y-177551195D01*
X127489432Y-177429475D01*
X127696275Y-177222632D01*
X127745942Y-177148300D01*
X128946458Y-177148300D01*
X128996125Y-177222632D01*
X129202968Y-177429475D01*
X129385134Y-177551195D01*
X129268245Y-177620822D01*
X129052012Y-177815731D01*
X128877959Y-178049080D01*
X128752775Y-178311901D01*
X128708124Y-178459110D01*
X128829445Y-178689000D01*
X130022600Y-178689000D01*
X130022600Y-178669000D01*
X130276600Y-178669000D01*
X130276600Y-178689000D01*
X131469755Y-178689000D01*
X131591076Y-178459110D01*
X131546425Y-178311901D01*
X131421241Y-178049080D01*
X131247188Y-177815731D01*
X131030955Y-177620822D01*
X130914066Y-177551195D01*
X131096232Y-177429475D01*
X131303075Y-177222632D01*
X131352742Y-177148300D01*
X132553258Y-177148300D01*
X132602925Y-177222632D01*
X132809768Y-177429475D01*
X132991934Y-177551195D01*
X132875045Y-177620822D01*
X132658812Y-177815731D01*
X132484759Y-178049080D01*
X132359575Y-178311901D01*
X132314924Y-178459110D01*
X132436245Y-178689000D01*
X133629400Y-178689000D01*
X133629400Y-178669000D01*
X133883400Y-178669000D01*
X133883400Y-178689000D01*
X135076555Y-178689000D01*
X135197876Y-178459110D01*
X135153225Y-178311901D01*
X135028041Y-178049080D01*
X134853988Y-177815731D01*
X134637755Y-177620822D01*
X134520866Y-177551195D01*
X134703032Y-177429475D01*
X134909875Y-177222632D01*
X134959542Y-177148300D01*
X136168544Y-177148300D01*
X136209725Y-177209932D01*
X136416568Y-177416775D01*
X136598734Y-177538495D01*
X136481845Y-177608122D01*
X136265612Y-177803031D01*
X136091559Y-178036380D01*
X135966375Y-178299201D01*
X135921724Y-178446410D01*
X136043045Y-178676300D01*
X137236200Y-178676300D01*
X137236200Y-178656300D01*
X137490200Y-178656300D01*
X137490200Y-178676300D01*
X138683355Y-178676300D01*
X138804676Y-178446410D01*
X138760025Y-178299201D01*
X138634841Y-178036380D01*
X138460788Y-177803031D01*
X138244555Y-177608122D01*
X138127666Y-177538495D01*
X138309832Y-177416775D01*
X138516675Y-177209932D01*
X138557856Y-177148300D01*
X139762644Y-177148300D01*
X139803825Y-177209932D01*
X140010668Y-177416775D01*
X140192834Y-177538495D01*
X140075945Y-177608122D01*
X139859712Y-177803031D01*
X139685659Y-178036380D01*
X139560475Y-178299201D01*
X139515824Y-178446410D01*
X139637145Y-178676300D01*
X140830300Y-178676300D01*
X140830300Y-178656300D01*
X141084300Y-178656300D01*
X141084300Y-178676300D01*
X142277455Y-178676300D01*
X142398776Y-178446410D01*
X142354125Y-178299201D01*
X142228941Y-178036380D01*
X142054888Y-177803031D01*
X141838655Y-177608122D01*
X141721766Y-177538495D01*
X141903932Y-177416775D01*
X142110775Y-177209932D01*
X142273290Y-176966711D01*
X142385232Y-176696458D01*
X142442300Y-176409560D01*
X142442300Y-176117040D01*
X142385232Y-175830142D01*
X142273290Y-175559889D01*
X142110775Y-175316668D01*
X141978920Y-175184813D01*
X142051480Y-175162802D01*
X142161794Y-175103837D01*
X142258485Y-175024485D01*
X142337837Y-174927794D01*
X142396802Y-174817480D01*
X142433112Y-174697782D01*
X142445372Y-174573300D01*
X142445372Y-172873300D01*
X142433112Y-172748818D01*
X142396802Y-172629120D01*
X142337837Y-172518806D01*
X142258485Y-172422115D01*
X142161794Y-172342763D01*
X142051480Y-172283798D01*
X141931782Y-172247488D01*
X141807300Y-172235228D01*
X140107300Y-172235228D01*
X139982818Y-172247488D01*
X139863120Y-172283798D01*
X139752806Y-172342763D01*
X139656115Y-172422115D01*
X139576763Y-172518806D01*
X139517798Y-172629120D01*
X139481488Y-172748818D01*
X139469228Y-172873300D01*
X139469228Y-174573300D01*
X139481488Y-174697782D01*
X139517798Y-174817480D01*
X139576763Y-174927794D01*
X139656115Y-175024485D01*
X139752806Y-175103837D01*
X139863120Y-175162802D01*
X139935680Y-175184813D01*
X139803825Y-175316668D01*
X139762644Y-175378300D01*
X138557856Y-175378300D01*
X138516675Y-175316668D01*
X138384820Y-175184813D01*
X138457380Y-175162802D01*
X138567694Y-175103837D01*
X138664385Y-175024485D01*
X138743737Y-174927794D01*
X138802702Y-174817480D01*
X138839012Y-174697782D01*
X138851272Y-174573300D01*
X138851272Y-172873300D01*
X138839012Y-172748818D01*
X138802702Y-172629120D01*
X138743737Y-172518806D01*
X138664385Y-172422115D01*
X138567694Y-172342763D01*
X138457380Y-172283798D01*
X138337682Y-172247488D01*
X138213200Y-172235228D01*
X136513200Y-172235228D01*
X136388718Y-172247488D01*
X136269020Y-172283798D01*
X136158706Y-172342763D01*
X136062015Y-172422115D01*
X135982663Y-172518806D01*
X135923698Y-172629120D01*
X135887388Y-172748818D01*
X135875128Y-172873300D01*
X135875128Y-174573300D01*
X135887388Y-174697782D01*
X135923698Y-174817480D01*
X135982663Y-174927794D01*
X136062015Y-175024485D01*
X136158706Y-175103837D01*
X136269020Y-175162802D01*
X136341580Y-175184813D01*
X136209725Y-175316668D01*
X136168544Y-175378300D01*
X134942570Y-175378300D01*
X134909875Y-175329368D01*
X134778020Y-175197513D01*
X134850580Y-175175502D01*
X134960894Y-175116537D01*
X135057585Y-175037185D01*
X135136937Y-174940494D01*
X135195902Y-174830180D01*
X135232212Y-174710482D01*
X135244472Y-174586000D01*
X135244472Y-172886000D01*
X135232212Y-172761518D01*
X135195902Y-172641820D01*
X135136937Y-172531506D01*
X135057585Y-172434815D01*
X134960894Y-172355463D01*
X134850580Y-172296498D01*
X134730882Y-172260188D01*
X134606400Y-172247928D01*
X132906400Y-172247928D01*
X132781918Y-172260188D01*
X132662220Y-172296498D01*
X132551906Y-172355463D01*
X132455215Y-172434815D01*
X132375863Y-172531506D01*
X132316898Y-172641820D01*
X132280588Y-172761518D01*
X132268328Y-172886000D01*
X132268328Y-174586000D01*
X132280588Y-174710482D01*
X132316898Y-174830180D01*
X132375863Y-174940494D01*
X132455215Y-175037185D01*
X132551906Y-175116537D01*
X132662220Y-175175502D01*
X132734780Y-175197513D01*
X132602925Y-175329368D01*
X132570230Y-175378300D01*
X131335770Y-175378300D01*
X131303075Y-175329368D01*
X131171220Y-175197513D01*
X131243780Y-175175502D01*
X131354094Y-175116537D01*
X131450785Y-175037185D01*
X131530137Y-174940494D01*
X131589102Y-174830180D01*
X131625412Y-174710482D01*
X131637672Y-174586000D01*
X131637672Y-172886000D01*
X131625412Y-172761518D01*
X131589102Y-172641820D01*
X131530137Y-172531506D01*
X131450785Y-172434815D01*
X131354094Y-172355463D01*
X131243780Y-172296498D01*
X131124082Y-172260188D01*
X130999600Y-172247928D01*
X129299600Y-172247928D01*
X129175118Y-172260188D01*
X129055420Y-172296498D01*
X128945106Y-172355463D01*
X128848415Y-172434815D01*
X128769063Y-172531506D01*
X128710098Y-172641820D01*
X128673788Y-172761518D01*
X128661528Y-172886000D01*
X128661528Y-174586000D01*
X128673788Y-174710482D01*
X128710098Y-174830180D01*
X128769063Y-174940494D01*
X128848415Y-175037185D01*
X128945106Y-175116537D01*
X129055420Y-175175502D01*
X129127980Y-175197513D01*
X128996125Y-175329368D01*
X128963430Y-175378300D01*
X127728970Y-175378300D01*
X127696275Y-175329368D01*
X127564420Y-175197513D01*
X127636980Y-175175502D01*
X127747294Y-175116537D01*
X127843985Y-175037185D01*
X127923337Y-174940494D01*
X127982302Y-174830180D01*
X128018612Y-174710482D01*
X128030872Y-174586000D01*
X128030872Y-172886000D01*
X128018612Y-172761518D01*
X127982302Y-172641820D01*
X127923337Y-172531506D01*
X127843985Y-172434815D01*
X127747294Y-172355463D01*
X127636980Y-172296498D01*
X127517282Y-172260188D01*
X127392800Y-172247928D01*
X125692800Y-172247928D01*
X125568318Y-172260188D01*
X125448620Y-172296498D01*
X125338306Y-172355463D01*
X125241615Y-172434815D01*
X125162263Y-172531506D01*
X125103298Y-172641820D01*
X125066988Y-172761518D01*
X125054728Y-172886000D01*
X125054728Y-174586000D01*
X125066988Y-174710482D01*
X125103298Y-174830180D01*
X125162263Y-174940494D01*
X125241615Y-175037185D01*
X125338306Y-175116537D01*
X125448620Y-175175502D01*
X125521180Y-175197513D01*
X125389325Y-175329368D01*
X125356630Y-175378300D01*
X124160270Y-175378300D01*
X124127575Y-175329368D01*
X123995720Y-175197513D01*
X124068280Y-175175502D01*
X124178594Y-175116537D01*
X124275285Y-175037185D01*
X124354637Y-174940494D01*
X124413602Y-174830180D01*
X124449912Y-174710482D01*
X124462172Y-174586000D01*
X124462172Y-172886000D01*
X124449912Y-172761518D01*
X124413602Y-172641820D01*
X124354637Y-172531506D01*
X124275285Y-172434815D01*
X124178594Y-172355463D01*
X124068280Y-172296498D01*
X123948582Y-172260188D01*
X123824100Y-172247928D01*
X122124100Y-172247928D01*
X121999618Y-172260188D01*
X121879920Y-172296498D01*
X121769606Y-172355463D01*
X121672915Y-172434815D01*
X121593563Y-172531506D01*
X121534598Y-172641820D01*
X121498288Y-172761518D01*
X121486028Y-172886000D01*
X121486028Y-174586000D01*
X121498288Y-174710482D01*
X121534598Y-174830180D01*
X121593563Y-174940494D01*
X121672915Y-175037185D01*
X121769606Y-175116537D01*
X121879920Y-175175502D01*
X121952480Y-175197513D01*
X121820625Y-175329368D01*
X121787930Y-175378300D01*
X120566170Y-175378300D01*
X120533475Y-175329368D01*
X120401620Y-175197513D01*
X120474180Y-175175502D01*
X120584494Y-175116537D01*
X120681185Y-175037185D01*
X120760537Y-174940494D01*
X120819502Y-174830180D01*
X120855812Y-174710482D01*
X120868072Y-174586000D01*
X120868072Y-172886000D01*
X120855812Y-172761518D01*
X120819502Y-172641820D01*
X120760537Y-172531506D01*
X120681185Y-172434815D01*
X120584494Y-172355463D01*
X120474180Y-172296498D01*
X120354482Y-172260188D01*
X120230000Y-172247928D01*
X118530000Y-172247928D01*
X118405518Y-172260188D01*
X118285820Y-172296498D01*
X118175506Y-172355463D01*
X118078815Y-172434815D01*
X117999463Y-172531506D01*
X117940498Y-172641820D01*
X117904188Y-172761518D01*
X117891928Y-172886000D01*
X117891928Y-174586000D01*
X117904188Y-174710482D01*
X117940498Y-174830180D01*
X117999463Y-174940494D01*
X118078815Y-175037185D01*
X118175506Y-175116537D01*
X118285820Y-175175502D01*
X118358380Y-175197513D01*
X118226525Y-175329368D01*
X118193830Y-175378300D01*
X116963584Y-175378300D01*
X116939375Y-175342068D01*
X116807520Y-175210213D01*
X116880080Y-175188202D01*
X116990394Y-175129237D01*
X117087085Y-175049885D01*
X117166437Y-174953194D01*
X117225402Y-174842880D01*
X117261712Y-174723182D01*
X117273972Y-174598700D01*
X117273972Y-172898700D01*
X117261712Y-172774218D01*
X117225402Y-172654520D01*
X117166437Y-172544206D01*
X117087085Y-172447515D01*
X116990394Y-172368163D01*
X116880080Y-172309198D01*
X116760382Y-172272888D01*
X116635900Y-172260628D01*
X114935900Y-172260628D01*
X114811418Y-172272888D01*
X114691720Y-172309198D01*
X114581406Y-172368163D01*
X114484715Y-172447515D01*
X114405363Y-172544206D01*
X114346398Y-172654520D01*
X114310088Y-172774218D01*
X114297828Y-172898700D01*
X114297828Y-174598700D01*
X114310088Y-174723182D01*
X114346398Y-174842880D01*
X114405363Y-174953194D01*
X114484715Y-175049885D01*
X114581406Y-175129237D01*
X114691720Y-175188202D01*
X114764280Y-175210213D01*
X114632425Y-175342068D01*
X114608216Y-175378300D01*
X113377970Y-175378300D01*
X113345275Y-175329368D01*
X113213420Y-175197513D01*
X113285980Y-175175502D01*
X113396294Y-175116537D01*
X113492985Y-175037185D01*
X113572337Y-174940494D01*
X113631302Y-174830180D01*
X113667612Y-174710482D01*
X113679872Y-174586000D01*
X113679872Y-172886000D01*
X113667612Y-172761518D01*
X113631302Y-172641820D01*
X113572337Y-172531506D01*
X113492985Y-172434815D01*
X113396294Y-172355463D01*
X113285980Y-172296498D01*
X113166282Y-172260188D01*
X113041800Y-172247928D01*
X111341800Y-172247928D01*
X111217318Y-172260188D01*
X111097620Y-172296498D01*
X110987306Y-172355463D01*
X110890615Y-172434815D01*
X110811263Y-172531506D01*
X110752298Y-172641820D01*
X110715988Y-172761518D01*
X110703728Y-172886000D01*
X110703728Y-174586000D01*
X110715988Y-174710482D01*
X110752298Y-174830180D01*
X110811263Y-174940494D01*
X110890615Y-175037185D01*
X110987306Y-175116537D01*
X111097620Y-175175502D01*
X111170180Y-175197513D01*
X111038325Y-175329368D01*
X111005630Y-175378300D01*
X109792356Y-175378300D01*
X109751175Y-175316668D01*
X109619320Y-175184813D01*
X109691880Y-175162802D01*
X109802194Y-175103837D01*
X109898885Y-175024485D01*
X109978237Y-174927794D01*
X110037202Y-174817480D01*
X110073512Y-174697782D01*
X110085772Y-174573300D01*
X110085772Y-172873300D01*
X110073512Y-172748818D01*
X110037202Y-172629120D01*
X109978237Y-172518806D01*
X109898885Y-172422115D01*
X109802194Y-172342763D01*
X109691880Y-172283798D01*
X109572182Y-172247488D01*
X109447700Y-172235228D01*
X107747700Y-172235228D01*
X107623218Y-172247488D01*
X107503520Y-172283798D01*
X107393206Y-172342763D01*
X107296515Y-172422115D01*
X107217163Y-172518806D01*
X107158198Y-172629120D01*
X107121888Y-172748818D01*
X107109628Y-172873300D01*
X107109628Y-174573300D01*
X107121888Y-174697782D01*
X107158198Y-174817480D01*
X107217163Y-174927794D01*
X107296515Y-175024485D01*
X107393206Y-175103837D01*
X107503520Y-175162802D01*
X107576080Y-175184813D01*
X107444225Y-175316668D01*
X107403044Y-175378300D01*
X106194042Y-175378300D01*
X106144375Y-175303968D01*
X106012520Y-175172113D01*
X106085080Y-175150102D01*
X106195394Y-175091137D01*
X106292085Y-175011785D01*
X106371437Y-174915094D01*
X106430402Y-174804780D01*
X106466712Y-174685082D01*
X106478972Y-174560600D01*
X106478972Y-172860600D01*
X106466712Y-172736118D01*
X106430402Y-172616420D01*
X106371437Y-172506106D01*
X106292085Y-172409415D01*
X106195394Y-172330063D01*
X106085080Y-172271098D01*
X105965382Y-172234788D01*
X105840900Y-172222528D01*
X104140900Y-172222528D01*
X104016418Y-172234788D01*
X103896720Y-172271098D01*
X103786406Y-172330063D01*
X103689715Y-172409415D01*
X103610363Y-172506106D01*
X103551398Y-172616420D01*
X103515088Y-172736118D01*
X103502828Y-172860600D01*
X103502828Y-174560600D01*
X103515088Y-174685082D01*
X103551398Y-174804780D01*
X103610363Y-174915094D01*
X103689715Y-175011785D01*
X103786406Y-175091137D01*
X103896720Y-175150102D01*
X103969280Y-175172113D01*
X103837425Y-175303968D01*
X103787758Y-175378300D01*
X102612642Y-175378300D01*
X102562975Y-175303968D01*
X102431120Y-175172113D01*
X102503680Y-175150102D01*
X102613994Y-175091137D01*
X102710685Y-175011785D01*
X102790037Y-174915094D01*
X102849002Y-174804780D01*
X102885312Y-174685082D01*
X102897572Y-174560600D01*
X102897572Y-172860600D01*
X102885312Y-172736118D01*
X102849002Y-172616420D01*
X102790037Y-172506106D01*
X102710685Y-172409415D01*
X102613994Y-172330063D01*
X102503680Y-172271098D01*
X102383982Y-172234788D01*
X102259500Y-172222528D01*
X100559500Y-172222528D01*
X100435018Y-172234788D01*
X100315320Y-172271098D01*
X100205006Y-172330063D01*
X100108315Y-172409415D01*
X100028963Y-172506106D01*
X99969998Y-172616420D01*
X99933688Y-172736118D01*
X99921428Y-172860600D01*
X99921428Y-174560600D01*
X99933688Y-174685082D01*
X99969998Y-174804780D01*
X100028963Y-174915094D01*
X100108315Y-175011785D01*
X100205006Y-175091137D01*
X100315320Y-175150102D01*
X100387880Y-175172113D01*
X100256025Y-175303968D01*
X100206358Y-175378300D01*
X98997356Y-175378300D01*
X98956175Y-175316668D01*
X98824320Y-175184813D01*
X98896880Y-175162802D01*
X99007194Y-175103837D01*
X99103885Y-175024485D01*
X99183237Y-174927794D01*
X99242202Y-174817480D01*
X99278512Y-174697782D01*
X99290772Y-174573300D01*
X99290772Y-172873300D01*
X99278512Y-172748818D01*
X99242202Y-172629120D01*
X99183237Y-172518806D01*
X99103885Y-172422115D01*
X99007194Y-172342763D01*
X98896880Y-172283798D01*
X98777182Y-172247488D01*
X98652700Y-172235228D01*
X96952700Y-172235228D01*
X96828218Y-172247488D01*
X96708520Y-172283798D01*
X96598206Y-172342763D01*
X96501515Y-172422115D01*
X96422163Y-172518806D01*
X96363198Y-172629120D01*
X96326888Y-172748818D01*
X96314628Y-172873300D01*
X96314628Y-174573300D01*
X96326888Y-174697782D01*
X96363198Y-174817480D01*
X96422163Y-174927794D01*
X96501515Y-175024485D01*
X96598206Y-175103837D01*
X96708520Y-175162802D01*
X96781080Y-175184813D01*
X96649225Y-175316668D01*
X96608044Y-175378300D01*
X95403256Y-175378300D01*
X95362075Y-175316668D01*
X95230220Y-175184813D01*
X95302780Y-175162802D01*
X95413094Y-175103837D01*
X95509785Y-175024485D01*
X95589137Y-174927794D01*
X95648102Y-174817480D01*
X95684412Y-174697782D01*
X95696672Y-174573300D01*
X95696672Y-172873300D01*
X95684412Y-172748818D01*
X95648102Y-172629120D01*
X95589137Y-172518806D01*
X95509785Y-172422115D01*
X95413094Y-172342763D01*
X95302780Y-172283798D01*
X95183082Y-172247488D01*
X95058600Y-172235228D01*
X93358600Y-172235228D01*
X93234118Y-172247488D01*
X93114420Y-172283798D01*
X93004106Y-172342763D01*
X92907415Y-172422115D01*
X92828063Y-172518806D01*
X92769098Y-172629120D01*
X92732788Y-172748818D01*
X92720528Y-172873300D01*
X92720528Y-174573300D01*
X92732788Y-174697782D01*
X92769098Y-174817480D01*
X92828063Y-174927794D01*
X92907415Y-175024485D01*
X93004106Y-175103837D01*
X93114420Y-175162802D01*
X93186980Y-175184813D01*
X93055125Y-175316668D01*
X93013944Y-175378300D01*
X91809156Y-175378300D01*
X91767975Y-175316668D01*
X91636120Y-175184813D01*
X91708680Y-175162802D01*
X91818994Y-175103837D01*
X91915685Y-175024485D01*
X91995037Y-174927794D01*
X92054002Y-174817480D01*
X92090312Y-174697782D01*
X92102572Y-174573300D01*
X92102572Y-172873300D01*
X92090312Y-172748818D01*
X92054002Y-172629120D01*
X91995037Y-172518806D01*
X91915685Y-172422115D01*
X91818994Y-172342763D01*
X91708680Y-172283798D01*
X91588982Y-172247488D01*
X91464500Y-172235228D01*
X89764500Y-172235228D01*
X89640018Y-172247488D01*
X89520320Y-172283798D01*
X89410006Y-172342763D01*
X89313315Y-172422115D01*
X89233963Y-172518806D01*
X89174998Y-172629120D01*
X89138688Y-172748818D01*
X89126428Y-172873300D01*
X89126428Y-174573300D01*
X89138688Y-174697782D01*
X89174998Y-174817480D01*
X89233963Y-174927794D01*
X89313315Y-175024485D01*
X89410006Y-175103837D01*
X89520320Y-175162802D01*
X89592880Y-175184813D01*
X89461025Y-175316668D01*
X89419844Y-175378300D01*
X88227756Y-175378300D01*
X88186575Y-175316668D01*
X88054720Y-175184813D01*
X88127280Y-175162802D01*
X88237594Y-175103837D01*
X88334285Y-175024485D01*
X88413637Y-174927794D01*
X88472602Y-174817480D01*
X88508912Y-174697782D01*
X88521172Y-174573300D01*
X88521172Y-172873300D01*
X88508912Y-172748818D01*
X88472602Y-172629120D01*
X88413637Y-172518806D01*
X88334285Y-172422115D01*
X88237594Y-172342763D01*
X88127280Y-172283798D01*
X88007582Y-172247488D01*
X87883100Y-172235228D01*
X86183100Y-172235228D01*
X86058618Y-172247488D01*
X85938920Y-172283798D01*
X85828606Y-172342763D01*
X85731915Y-172422115D01*
X85652563Y-172518806D01*
X85593598Y-172629120D01*
X85557288Y-172748818D01*
X85545028Y-172873300D01*
X85545028Y-174573300D01*
X85557288Y-174697782D01*
X85593598Y-174817480D01*
X85652563Y-174927794D01*
X85731915Y-175024485D01*
X85828606Y-175103837D01*
X85938920Y-175162802D01*
X86011480Y-175184813D01*
X85879625Y-175316668D01*
X85838444Y-175378300D01*
X84646356Y-175378300D01*
X84605175Y-175316668D01*
X84473320Y-175184813D01*
X84545880Y-175162802D01*
X84656194Y-175103837D01*
X84752885Y-175024485D01*
X84832237Y-174927794D01*
X84891202Y-174817480D01*
X84927512Y-174697782D01*
X84939772Y-174573300D01*
X84939772Y-172873300D01*
X84927512Y-172748818D01*
X84891202Y-172629120D01*
X84832237Y-172518806D01*
X84752885Y-172422115D01*
X84656194Y-172342763D01*
X84545880Y-172283798D01*
X84426182Y-172247488D01*
X84301700Y-172235228D01*
X82601700Y-172235228D01*
X82477218Y-172247488D01*
X82357520Y-172283798D01*
X82247206Y-172342763D01*
X82150515Y-172422115D01*
X82071163Y-172518806D01*
X82012198Y-172629120D01*
X81975888Y-172748818D01*
X81963628Y-172873300D01*
X81963628Y-174573300D01*
X81975888Y-174697782D01*
X82012198Y-174817480D01*
X82071163Y-174927794D01*
X82150515Y-175024485D01*
X82247206Y-175103837D01*
X82357520Y-175162802D01*
X82430080Y-175184813D01*
X82298225Y-175316668D01*
X82257044Y-175378300D01*
X81052256Y-175378300D01*
X81011075Y-175316668D01*
X80879220Y-175184813D01*
X80951780Y-175162802D01*
X81062094Y-175103837D01*
X81158785Y-175024485D01*
X81238137Y-174927794D01*
X81297102Y-174817480D01*
X81333412Y-174697782D01*
X81345672Y-174573300D01*
X81345672Y-172873300D01*
X81333412Y-172748818D01*
X81297102Y-172629120D01*
X81238137Y-172518806D01*
X81158785Y-172422115D01*
X81062094Y-172342763D01*
X80951780Y-172283798D01*
X80832082Y-172247488D01*
X80707600Y-172235228D01*
X79007600Y-172235228D01*
X78883118Y-172247488D01*
X78763420Y-172283798D01*
X78653106Y-172342763D01*
X78556415Y-172422115D01*
X78477063Y-172518806D01*
X78418098Y-172629120D01*
X78381788Y-172748818D01*
X78369528Y-172873300D01*
X77765181Y-172873300D01*
X77056038Y-157201544D01*
X77325103Y-143833640D01*
X102502600Y-143833640D01*
X102502600Y-144126160D01*
X102559668Y-144413058D01*
X102671610Y-144683311D01*
X102834125Y-144926532D01*
X103040968Y-145133375D01*
X103284189Y-145295890D01*
X103554442Y-145407832D01*
X103841340Y-145464900D01*
X104133860Y-145464900D01*
X104420758Y-145407832D01*
X104691011Y-145295890D01*
X104934232Y-145133375D01*
X105066087Y-145001520D01*
X105088098Y-145074080D01*
X105147063Y-145184394D01*
X105226415Y-145281085D01*
X105323106Y-145360437D01*
X105433420Y-145419402D01*
X105553118Y-145455712D01*
X105677600Y-145467972D01*
X107377600Y-145467972D01*
X107502082Y-145455712D01*
X107621780Y-145419402D01*
X107732094Y-145360437D01*
X107828785Y-145281085D01*
X107908137Y-145184394D01*
X107967102Y-145074080D01*
X108003412Y-144954382D01*
X108015672Y-144829900D01*
X108015672Y-143129900D01*
X108003412Y-143005418D01*
X107967102Y-142885720D01*
X107908137Y-142775406D01*
X107828785Y-142678715D01*
X107732094Y-142599363D01*
X107621780Y-142540398D01*
X107502082Y-142504088D01*
X107377600Y-142491828D01*
X105677600Y-142491828D01*
X105553118Y-142504088D01*
X105433420Y-142540398D01*
X105323106Y-142599363D01*
X105226415Y-142678715D01*
X105147063Y-142775406D01*
X105088098Y-142885720D01*
X105066087Y-142958280D01*
X104934232Y-142826425D01*
X104691011Y-142663910D01*
X104420758Y-142551968D01*
X104133860Y-142494900D01*
X103841340Y-142494900D01*
X103554442Y-142551968D01*
X103284189Y-142663910D01*
X103040968Y-142826425D01*
X102834125Y-143033268D01*
X102671610Y-143276489D01*
X102559668Y-143546742D01*
X102502600Y-143833640D01*
X77325103Y-143833640D01*
X77816578Y-119415800D01*
X84264828Y-119415800D01*
X84264828Y-120715800D01*
X84281892Y-120889054D01*
X84332428Y-121055650D01*
X84414495Y-121209186D01*
X84524938Y-121343762D01*
X84659514Y-121454205D01*
X84813050Y-121536272D01*
X84979646Y-121586808D01*
X85152900Y-121603872D01*
X88252900Y-121603872D01*
X88426154Y-121586808D01*
X88592750Y-121536272D01*
X88746286Y-121454205D01*
X88880862Y-121343762D01*
X88991305Y-121209186D01*
X89073372Y-121055650D01*
X89123908Y-120889054D01*
X89140972Y-120715800D01*
X89140972Y-119415800D01*
X89123908Y-119242546D01*
X89073372Y-119075950D01*
X88991305Y-118922414D01*
X88880862Y-118787838D01*
X88746286Y-118677395D01*
X88592750Y-118595328D01*
X88426154Y-118544792D01*
X88252900Y-118527728D01*
X85152900Y-118527728D01*
X84979646Y-118544792D01*
X84813050Y-118595328D01*
X84659514Y-118677395D01*
X84524938Y-118787838D01*
X84414495Y-118922414D01*
X84332428Y-119075950D01*
X84281892Y-119242546D01*
X84264828Y-119415800D01*
X77816578Y-119415800D01*
X77872840Y-116620540D01*
X84311864Y-116620540D01*
X84336145Y-116725887D01*
X84456038Y-117003004D01*
X84627690Y-117251406D01*
X84844504Y-117461548D01*
X85098149Y-117625354D01*
X85378877Y-117736529D01*
X85675900Y-117790800D01*
X86575900Y-117790800D01*
X86575900Y-116382800D01*
X86829900Y-116382800D01*
X86829900Y-117790800D01*
X87729900Y-117790800D01*
X88026923Y-117736529D01*
X88307651Y-117625354D01*
X88561296Y-117461548D01*
X88778110Y-117251406D01*
X88949762Y-117003004D01*
X89069655Y-116725887D01*
X89093936Y-116620540D01*
X88973278Y-116382800D01*
X86829900Y-116382800D01*
X86575900Y-116382800D01*
X84432522Y-116382800D01*
X84311864Y-116620540D01*
X77872840Y-116620540D01*
X77887522Y-115891060D01*
X84311864Y-115891060D01*
X84432522Y-116128800D01*
X86575900Y-116128800D01*
X86575900Y-114720800D01*
X86829900Y-114720800D01*
X86829900Y-116128800D01*
X88973278Y-116128800D01*
X89093936Y-115891060D01*
X89069655Y-115785713D01*
X88949762Y-115508596D01*
X88778110Y-115260194D01*
X88561296Y-115050052D01*
X88307651Y-114886246D01*
X88026923Y-114775071D01*
X87729900Y-114720800D01*
X86829900Y-114720800D01*
X86575900Y-114720800D01*
X85675900Y-114720800D01*
X85378877Y-114775071D01*
X85098149Y-114886246D01*
X84844504Y-115050052D01*
X84627690Y-115260194D01*
X84456038Y-115508596D01*
X84336145Y-115785713D01*
X84311864Y-115891060D01*
X77887522Y-115891060D01*
X78318376Y-94485144D01*
X144032354Y-94317920D01*
X146204732Y-95797089D01*
G37*
G04 #@! TD.AperFunction*
M02*
