G04 #@! TF.GenerationSoftware,KiCad,Pcbnew,(5.1.10)-1*
G04 #@! TF.CreationDate,2023-01-28T17:58:28+01:00*
G04 #@! TF.ProjectId,servo_board,73657276-6f5f-4626-9f61-72642e6b6963,1.0*
G04 #@! TF.SameCoordinates,Original*
G04 #@! TF.FileFunction,Legend,Top*
G04 #@! TF.FilePolarity,Positive*
%FSLAX46Y46*%
G04 Gerber Fmt 4.6, Leading zero omitted, Abs format (unit mm)*
G04 Created by KiCad (PCBNEW (5.1.10)-1) date 2023-01-28 17:58:28*
%MOMM*%
%LPD*%
G01*
G04 APERTURE LIST*
%ADD10C,0.150000*%
%ADD11C,0.100000*%
%ADD12C,0.300000*%
%ADD13C,0.120000*%
%ADD14O,1.700000X1.700000*%
%ADD15R,1.700000X1.700000*%
%ADD16R,0.800000X0.900000*%
%ADD17O,3.600000X1.800000*%
G04 APERTURE END LIST*
D10*
X85340985Y-124061528D02*
X86102890Y-124061528D01*
X85721938Y-124442480D02*
X85721938Y-123680576D01*
X87055271Y-123442480D02*
X86579080Y-123442480D01*
X86531461Y-123918671D01*
X86579080Y-123871052D01*
X86674319Y-123823433D01*
X86912414Y-123823433D01*
X87007652Y-123871052D01*
X87055271Y-123918671D01*
X87102890Y-124013909D01*
X87102890Y-124252004D01*
X87055271Y-124347242D01*
X87007652Y-124394861D01*
X86912414Y-124442480D01*
X86674319Y-124442480D01*
X86579080Y-124394861D01*
X86531461Y-124347242D01*
X87388604Y-123442480D02*
X87721938Y-124442480D01*
X88055271Y-123442480D01*
X86179755Y-111882300D02*
X86084517Y-111834680D01*
X85941660Y-111834680D01*
X85798802Y-111882300D01*
X85703564Y-111977538D01*
X85655945Y-112072776D01*
X85608326Y-112263252D01*
X85608326Y-112406109D01*
X85655945Y-112596585D01*
X85703564Y-112691823D01*
X85798802Y-112787061D01*
X85941660Y-112834680D01*
X86036898Y-112834680D01*
X86179755Y-112787061D01*
X86227374Y-112739442D01*
X86227374Y-112406109D01*
X86036898Y-112406109D01*
X86655945Y-112834680D02*
X86655945Y-111834680D01*
X87227374Y-112834680D01*
X87227374Y-111834680D01*
X87703564Y-112834680D02*
X87703564Y-111834680D01*
X87941660Y-111834680D01*
X88084517Y-111882300D01*
X88179755Y-111977538D01*
X88227374Y-112072776D01*
X88274993Y-112263252D01*
X88274993Y-112406109D01*
X88227374Y-112596585D01*
X88179755Y-112691823D01*
X88084517Y-112787061D01*
X87941660Y-112834680D01*
X87703564Y-112834680D01*
D11*
G36*
X138201400Y-139522200D02*
G01*
X138150600Y-151549100D01*
X114871500Y-151396700D01*
X114907060Y-139245340D01*
X138201400Y-139522200D01*
G37*
X138201400Y-139522200D02*
X138150600Y-151549100D01*
X114871500Y-151396700D01*
X114907060Y-139245340D01*
X138201400Y-139522200D01*
D10*
X148933160Y-123655199D02*
X147933160Y-123655199D01*
X148314113Y-123655199D02*
X148266494Y-123559960D01*
X148266494Y-123369484D01*
X148314113Y-123274246D01*
X148361732Y-123226627D01*
X148456970Y-123179008D01*
X148742684Y-123179008D01*
X148837922Y-123226627D01*
X148885541Y-123274246D01*
X148933160Y-123369484D01*
X148933160Y-123559960D01*
X148885541Y-123655199D01*
X148266494Y-122845675D02*
X148933160Y-122607580D01*
X148266494Y-122369484D02*
X148933160Y-122607580D01*
X149171256Y-122702818D01*
X149218875Y-122750437D01*
X149266494Y-122845675D01*
X147933160Y-120940913D02*
X148647446Y-120940913D01*
X148790303Y-120988532D01*
X148885541Y-121083770D01*
X148933160Y-121226627D01*
X148933160Y-121321865D01*
X148933160Y-120464722D02*
X148266494Y-120464722D01*
X147933160Y-120464722D02*
X147980780Y-120512341D01*
X148028399Y-120464722D01*
X147980780Y-120417103D01*
X147933160Y-120464722D01*
X148028399Y-120464722D01*
X148266494Y-119988532D02*
X149266494Y-119988532D01*
X148314113Y-119988532D02*
X148266494Y-119893294D01*
X148266494Y-119702818D01*
X148314113Y-119607580D01*
X148361732Y-119559960D01*
X148456970Y-119512341D01*
X148742684Y-119512341D01*
X148837922Y-119559960D01*
X148885541Y-119607580D01*
X148933160Y-119702818D01*
X148933160Y-119893294D01*
X148885541Y-119988532D01*
D12*
X147845162Y-170796309D02*
X147845162Y-170129642D01*
X148892781Y-169843928D02*
X148892781Y-170796309D01*
X146892781Y-170796309D01*
X146892781Y-169843928D01*
X148797543Y-169082023D02*
X148892781Y-168796309D01*
X148892781Y-168320119D01*
X148797543Y-168129642D01*
X148702305Y-168034404D01*
X148511829Y-167939166D01*
X148321353Y-167939166D01*
X148130877Y-168034404D01*
X148035639Y-168129642D01*
X147940400Y-168320119D01*
X147845162Y-168701071D01*
X147749924Y-168891547D01*
X147654686Y-168986785D01*
X147464210Y-169082023D01*
X147273734Y-169082023D01*
X147083258Y-168986785D01*
X146988020Y-168891547D01*
X146892781Y-168701071D01*
X146892781Y-168224880D01*
X146988020Y-167939166D01*
X148892781Y-167082023D02*
X146892781Y-167082023D01*
X146892781Y-166320119D01*
X146988020Y-166129642D01*
X147083258Y-166034404D01*
X147273734Y-165939166D01*
X147559448Y-165939166D01*
X147749924Y-166034404D01*
X147845162Y-166129642D01*
X147940400Y-166320119D01*
X147940400Y-167082023D01*
X146892781Y-165272500D02*
X146892781Y-164034404D01*
X147654686Y-164701071D01*
X147654686Y-164415357D01*
X147749924Y-164224880D01*
X147845162Y-164129642D01*
X148035639Y-164034404D01*
X148511829Y-164034404D01*
X148702305Y-164129642D01*
X148797543Y-164224880D01*
X148892781Y-164415357D01*
X148892781Y-164986785D01*
X148797543Y-165177261D01*
X148702305Y-165272500D01*
X147083258Y-163272500D02*
X146988020Y-163177261D01*
X146892781Y-162986785D01*
X146892781Y-162510595D01*
X146988020Y-162320119D01*
X147083258Y-162224880D01*
X147273734Y-162129642D01*
X147464210Y-162129642D01*
X147749924Y-162224880D01*
X148892781Y-163367738D01*
X148892781Y-162129642D01*
X148130877Y-161272500D02*
X148130877Y-159748690D01*
X148892781Y-158796309D02*
X146892781Y-158796309D01*
X146892781Y-158034404D01*
X146988020Y-157843928D01*
X147083258Y-157748690D01*
X147273734Y-157653452D01*
X147559448Y-157653452D01*
X147749924Y-157748690D01*
X147845162Y-157843928D01*
X147940400Y-158034404D01*
X147940400Y-158796309D01*
X148702305Y-155653452D02*
X148797543Y-155748690D01*
X148892781Y-156034404D01*
X148892781Y-156224880D01*
X148797543Y-156510595D01*
X148607067Y-156701071D01*
X148416591Y-156796309D01*
X148035639Y-156891547D01*
X147749924Y-156891547D01*
X147368972Y-156796309D01*
X147178496Y-156701071D01*
X146988020Y-156510595D01*
X146892781Y-156224880D01*
X146892781Y-156034404D01*
X146988020Y-155748690D01*
X147083258Y-155653452D01*
X148321353Y-154891547D02*
X148321353Y-153939166D01*
X148892781Y-155082023D02*
X146892781Y-154415357D01*
X148892781Y-153748690D01*
X148892781Y-150415357D02*
X147940400Y-151082023D01*
X148892781Y-151558214D02*
X146892781Y-151558214D01*
X146892781Y-150796309D01*
X146988020Y-150605833D01*
X147083258Y-150510595D01*
X147273734Y-150415357D01*
X147559448Y-150415357D01*
X147749924Y-150510595D01*
X147845162Y-150605833D01*
X147940400Y-150796309D01*
X147940400Y-151558214D01*
X148892781Y-149272500D02*
X148797543Y-149462976D01*
X148702305Y-149558214D01*
X148511829Y-149653452D01*
X147940400Y-149653452D01*
X147749924Y-149558214D01*
X147654686Y-149462976D01*
X147559448Y-149272500D01*
X147559448Y-148986785D01*
X147654686Y-148796309D01*
X147749924Y-148701071D01*
X147940400Y-148605833D01*
X148511829Y-148605833D01*
X148702305Y-148701071D01*
X148797543Y-148796309D01*
X148892781Y-148986785D01*
X148892781Y-149272500D01*
X148892781Y-147748690D02*
X146892781Y-147748690D01*
X147654686Y-147748690D02*
X147559448Y-147558214D01*
X147559448Y-147177261D01*
X147654686Y-146986785D01*
X147749924Y-146891547D01*
X147940400Y-146796309D01*
X148511829Y-146796309D01*
X148702305Y-146891547D01*
X148797543Y-146986785D01*
X148892781Y-147177261D01*
X148892781Y-147558214D01*
X148797543Y-147748690D01*
X148892781Y-145653452D02*
X148797543Y-145843928D01*
X148702305Y-145939166D01*
X148511829Y-146034404D01*
X147940400Y-146034404D01*
X147749924Y-145939166D01*
X147654686Y-145843928D01*
X147559448Y-145653452D01*
X147559448Y-145367738D01*
X147654686Y-145177261D01*
X147749924Y-145082023D01*
X147940400Y-144986785D01*
X148511829Y-144986785D01*
X148702305Y-145082023D01*
X148797543Y-145177261D01*
X148892781Y-145367738D01*
X148892781Y-145653452D01*
X147559448Y-144415357D02*
X147559448Y-143653452D01*
X146892781Y-144129642D02*
X148607067Y-144129642D01*
X148797543Y-144034404D01*
X148892781Y-143843928D01*
X148892781Y-143653452D01*
X147845162Y-140796309D02*
X147940400Y-140510595D01*
X148035639Y-140415357D01*
X148226115Y-140320119D01*
X148511829Y-140320119D01*
X148702305Y-140415357D01*
X148797543Y-140510595D01*
X148892781Y-140701071D01*
X148892781Y-141462976D01*
X146892781Y-141462976D01*
X146892781Y-140796309D01*
X146988020Y-140605833D01*
X147083258Y-140510595D01*
X147273734Y-140415357D01*
X147464210Y-140415357D01*
X147654686Y-140510595D01*
X147749924Y-140605833D01*
X147845162Y-140796309D01*
X147845162Y-141462976D01*
X148892781Y-139177261D02*
X148797543Y-139367738D01*
X148702305Y-139462976D01*
X148511829Y-139558214D01*
X147940400Y-139558214D01*
X147749924Y-139462976D01*
X147654686Y-139367738D01*
X147559448Y-139177261D01*
X147559448Y-138891547D01*
X147654686Y-138701071D01*
X147749924Y-138605833D01*
X147940400Y-138510595D01*
X148511829Y-138510595D01*
X148702305Y-138605833D01*
X148797543Y-138701071D01*
X148892781Y-138891547D01*
X148892781Y-139177261D01*
X148892781Y-136796309D02*
X147845162Y-136796309D01*
X147654686Y-136891547D01*
X147559448Y-137082023D01*
X147559448Y-137462976D01*
X147654686Y-137653452D01*
X148797543Y-136796309D02*
X148892781Y-136986785D01*
X148892781Y-137462976D01*
X148797543Y-137653452D01*
X148607067Y-137748690D01*
X148416591Y-137748690D01*
X148226115Y-137653452D01*
X148130877Y-137462976D01*
X148130877Y-136986785D01*
X148035639Y-136796309D01*
X148892781Y-135843928D02*
X147559448Y-135843928D01*
X147940400Y-135843928D02*
X147749924Y-135748690D01*
X147654686Y-135653452D01*
X147559448Y-135462976D01*
X147559448Y-135272500D01*
X148892781Y-133748690D02*
X146892781Y-133748690D01*
X148797543Y-133748690D02*
X148892781Y-133939166D01*
X148892781Y-134320119D01*
X148797543Y-134510595D01*
X148702305Y-134605833D01*
X148511829Y-134701071D01*
X147940400Y-134701071D01*
X147749924Y-134605833D01*
X147654686Y-134510595D01*
X147559448Y-134320119D01*
X147559448Y-133939166D01*
X147654686Y-133748690D01*
X146892781Y-131558214D02*
X148892781Y-130891547D01*
X146892781Y-130224880D01*
X146892781Y-129177261D02*
X146892781Y-128986785D01*
X146988020Y-128796309D01*
X147083258Y-128701071D01*
X147273734Y-128605833D01*
X147654686Y-128510595D01*
X148130877Y-128510595D01*
X148511829Y-128605833D01*
X148702305Y-128701071D01*
X148797543Y-128796309D01*
X148892781Y-128986785D01*
X148892781Y-129177261D01*
X148797543Y-129367738D01*
X148702305Y-129462976D01*
X148511829Y-129558214D01*
X148130877Y-129653452D01*
X147654686Y-129653452D01*
X147273734Y-129558214D01*
X147083258Y-129462976D01*
X146988020Y-129367738D01*
X146892781Y-129177261D01*
X148702305Y-127653452D02*
X148797543Y-127558214D01*
X148892781Y-127653452D01*
X148797543Y-127748690D01*
X148702305Y-127653452D01*
X148892781Y-127653452D01*
X148892781Y-125653452D02*
X148892781Y-126796309D01*
X148892781Y-126224880D02*
X146892781Y-126224880D01*
X147178496Y-126415357D01*
X147368972Y-126605833D01*
X147464210Y-126796309D01*
D10*
X109034319Y-106072774D02*
X110034319Y-106072774D01*
X110034319Y-106310869D01*
X109986700Y-106453726D01*
X109891461Y-106548964D01*
X109796223Y-106596583D01*
X109605747Y-106644202D01*
X109462890Y-106644202D01*
X109272414Y-106596583D01*
X109177176Y-106548964D01*
X109081938Y-106453726D01*
X109034319Y-106310869D01*
X109034319Y-106072774D01*
X109939080Y-107025155D02*
X109986700Y-107072774D01*
X110034319Y-107168012D01*
X110034319Y-107406107D01*
X109986700Y-107501345D01*
X109939080Y-107548964D01*
X109843842Y-107596583D01*
X109748604Y-107596583D01*
X109605747Y-107548964D01*
X109034319Y-106977536D01*
X109034319Y-107596583D01*
X110034319Y-107929917D02*
X110034319Y-108548964D01*
X109653366Y-108215631D01*
X109653366Y-108358488D01*
X109605747Y-108453726D01*
X109558128Y-108501345D01*
X109462890Y-108548964D01*
X109224795Y-108548964D01*
X109129557Y-108501345D01*
X109081938Y-108453726D01*
X109034319Y-108358488D01*
X109034319Y-108072774D01*
X109081938Y-107977536D01*
X109129557Y-107929917D01*
X106580679Y-106203524D02*
X107580679Y-106203524D01*
X107580679Y-106441620D01*
X107533060Y-106584477D01*
X107437821Y-106679715D01*
X107342583Y-106727334D01*
X107152107Y-106774953D01*
X107009250Y-106774953D01*
X106818774Y-106727334D01*
X106723536Y-106679715D01*
X106628298Y-106584477D01*
X106580679Y-106441620D01*
X106580679Y-106203524D01*
X107485440Y-107155905D02*
X107533060Y-107203524D01*
X107580679Y-107298762D01*
X107580679Y-107536858D01*
X107533060Y-107632096D01*
X107485440Y-107679715D01*
X107390202Y-107727334D01*
X107294964Y-107727334D01*
X107152107Y-107679715D01*
X106580679Y-107108286D01*
X106580679Y-107727334D01*
X104045759Y-106178124D02*
X105045759Y-106178124D01*
X105045759Y-106416220D01*
X104998140Y-106559077D01*
X104902901Y-106654315D01*
X104807663Y-106701934D01*
X104617187Y-106749553D01*
X104474330Y-106749553D01*
X104283854Y-106701934D01*
X104188616Y-106654315D01*
X104093378Y-106559077D01*
X104045759Y-106416220D01*
X104045759Y-106178124D01*
X104712425Y-107606696D02*
X104045759Y-107606696D01*
X105093378Y-107368600D02*
X104379092Y-107130505D01*
X104379092Y-107749553D01*
X101429559Y-106725482D02*
X101905749Y-106392149D01*
X101429559Y-106154054D02*
X102429559Y-106154054D01*
X102429559Y-106535006D01*
X102381940Y-106630244D01*
X102334320Y-106677863D01*
X102239082Y-106725482D01*
X102096225Y-106725482D01*
X102000987Y-106677863D01*
X101953368Y-106630244D01*
X101905749Y-106535006D01*
X101905749Y-106154054D01*
X102429559Y-107058816D02*
X101429559Y-107725482D01*
X102429559Y-107725482D02*
X101429559Y-107058816D01*
X102334320Y-108058816D02*
X102381940Y-108106435D01*
X102429559Y-108201673D01*
X102429559Y-108439768D01*
X102381940Y-108535006D01*
X102334320Y-108582625D01*
X102239082Y-108630244D01*
X102143844Y-108630244D01*
X102000987Y-108582625D01*
X101429559Y-108011197D01*
X101429559Y-108630244D01*
X99869239Y-106074364D02*
X99869239Y-106645793D01*
X98869239Y-106360079D02*
X99869239Y-106360079D01*
X99869239Y-106883888D02*
X98869239Y-107550555D01*
X99869239Y-107550555D02*
X98869239Y-106883888D01*
X99774000Y-107883888D02*
X99821620Y-107931507D01*
X99869239Y-108026745D01*
X99869239Y-108264840D01*
X99821620Y-108360079D01*
X99774000Y-108407698D01*
X99678762Y-108455317D01*
X99583524Y-108455317D01*
X99440667Y-108407698D01*
X98869239Y-107836269D01*
X98869239Y-108455317D01*
X96334319Y-106127324D02*
X97334319Y-106127324D01*
X97334319Y-106365420D01*
X97286700Y-106508277D01*
X97191461Y-106603515D01*
X97096223Y-106651134D01*
X96905747Y-106698753D01*
X96762890Y-106698753D01*
X96572414Y-106651134D01*
X96477176Y-106603515D01*
X96381938Y-106508277D01*
X96334319Y-106365420D01*
X96334319Y-106127324D01*
X97334319Y-107603515D02*
X97334319Y-107127324D01*
X96858128Y-107079705D01*
X96905747Y-107127324D01*
X96953366Y-107222562D01*
X96953366Y-107460658D01*
X96905747Y-107555896D01*
X96858128Y-107603515D01*
X96762890Y-107651134D01*
X96524795Y-107651134D01*
X96429557Y-107603515D01*
X96381938Y-107555896D01*
X96334319Y-107460658D01*
X96334319Y-107222562D01*
X96381938Y-107127324D01*
X96429557Y-107079705D01*
X93885759Y-106103254D02*
X94885759Y-106103254D01*
X94885759Y-106341349D01*
X94838140Y-106484206D01*
X94742901Y-106579444D01*
X94647663Y-106627063D01*
X94457187Y-106674682D01*
X94314330Y-106674682D01*
X94123854Y-106627063D01*
X94028616Y-106579444D01*
X93933378Y-106484206D01*
X93885759Y-106341349D01*
X93885759Y-106103254D01*
X93885759Y-107627063D02*
X93885759Y-107055635D01*
X93885759Y-107341349D02*
X94885759Y-107341349D01*
X94742901Y-107246111D01*
X94647663Y-107150873D01*
X94600044Y-107055635D01*
X94457187Y-108198492D02*
X94504806Y-108103254D01*
X94552425Y-108055635D01*
X94647663Y-108008016D01*
X94695282Y-108008016D01*
X94790520Y-108055635D01*
X94838140Y-108103254D01*
X94885759Y-108198492D01*
X94885759Y-108388968D01*
X94838140Y-108484206D01*
X94790520Y-108531825D01*
X94695282Y-108579444D01*
X94647663Y-108579444D01*
X94552425Y-108531825D01*
X94504806Y-108484206D01*
X94457187Y-108388968D01*
X94457187Y-108198492D01*
X94409568Y-108103254D01*
X94361949Y-108055635D01*
X94266711Y-108008016D01*
X94076235Y-108008016D01*
X93980997Y-108055635D01*
X93933378Y-108103254D01*
X93885759Y-108198492D01*
X93885759Y-108388968D01*
X93933378Y-108484206D01*
X93980997Y-108531825D01*
X94076235Y-108579444D01*
X94266711Y-108579444D01*
X94361949Y-108531825D01*
X94409568Y-108484206D01*
X94457187Y-108388968D01*
X91350839Y-106128654D02*
X92350839Y-106128654D01*
X92350839Y-106366749D01*
X92303220Y-106509606D01*
X92207981Y-106604844D01*
X92112743Y-106652463D01*
X91922267Y-106700082D01*
X91779410Y-106700082D01*
X91588934Y-106652463D01*
X91493696Y-106604844D01*
X91398458Y-106509606D01*
X91350839Y-106366749D01*
X91350839Y-106128654D01*
X91350839Y-107652463D02*
X91350839Y-107081035D01*
X91350839Y-107366749D02*
X92350839Y-107366749D01*
X92207981Y-107271511D01*
X92112743Y-107176273D01*
X92065124Y-107081035D01*
X91350839Y-108128654D02*
X91350839Y-108319130D01*
X91398458Y-108414368D01*
X91446077Y-108461987D01*
X91588934Y-108557225D01*
X91779410Y-108604844D01*
X92160362Y-108604844D01*
X92255600Y-108557225D01*
X92303220Y-108509606D01*
X92350839Y-108414368D01*
X92350839Y-108223892D01*
X92303220Y-108128654D01*
X92255600Y-108081035D01*
X92160362Y-108033416D01*
X91922267Y-108033416D01*
X91827029Y-108081035D01*
X91779410Y-108128654D01*
X91731791Y-108223892D01*
X91731791Y-108414368D01*
X91779410Y-108509606D01*
X91827029Y-108557225D01*
X91922267Y-108604844D01*
X88820999Y-106700082D02*
X89297189Y-106366749D01*
X88820999Y-106128654D02*
X89820999Y-106128654D01*
X89820999Y-106509606D01*
X89773380Y-106604844D01*
X89725760Y-106652463D01*
X89630522Y-106700082D01*
X89487665Y-106700082D01*
X89392427Y-106652463D01*
X89344808Y-106604844D01*
X89297189Y-106509606D01*
X89297189Y-106128654D01*
X89820999Y-107033416D02*
X88820999Y-107700082D01*
X89820999Y-107700082D02*
X88820999Y-107033416D01*
X89820999Y-108271511D02*
X89820999Y-108366749D01*
X89773380Y-108461987D01*
X89725760Y-108509606D01*
X89630522Y-108557225D01*
X89440046Y-108604844D01*
X89201951Y-108604844D01*
X89011475Y-108557225D01*
X88916237Y-108509606D01*
X88868618Y-108461987D01*
X88820999Y-108366749D01*
X88820999Y-108271511D01*
X88868618Y-108176273D01*
X88916237Y-108128654D01*
X89011475Y-108081035D01*
X89201951Y-108033416D01*
X89440046Y-108033416D01*
X89630522Y-108081035D01*
X89725760Y-108128654D01*
X89773380Y-108176273D01*
X89820999Y-108271511D01*
X87230199Y-106104844D02*
X87230199Y-106676273D01*
X86230199Y-106390559D02*
X87230199Y-106390559D01*
X87230199Y-106914368D02*
X86230199Y-107581035D01*
X87230199Y-107581035D02*
X86230199Y-106914368D01*
X87230199Y-108152463D02*
X87230199Y-108247701D01*
X87182580Y-108342940D01*
X87134960Y-108390559D01*
X87039722Y-108438178D01*
X86849246Y-108485797D01*
X86611151Y-108485797D01*
X86420675Y-108438178D01*
X86325437Y-108390559D01*
X86277818Y-108342940D01*
X86230199Y-108247701D01*
X86230199Y-108152463D01*
X86277818Y-108057225D01*
X86325437Y-108009606D01*
X86420675Y-107961987D01*
X86611151Y-107914368D01*
X86849246Y-107914368D01*
X87039722Y-107961987D01*
X87134960Y-108009606D01*
X87182580Y-108057225D01*
X87230199Y-108152463D01*
X84888319Y-106057486D02*
X83888319Y-106390820D01*
X84888319Y-106724153D01*
X83888319Y-107057486D02*
X84888319Y-107057486D01*
X84888319Y-107438439D01*
X84840700Y-107533677D01*
X84793080Y-107581296D01*
X84697842Y-107628915D01*
X84554985Y-107628915D01*
X84459747Y-107581296D01*
X84412128Y-107533677D01*
X84364509Y-107438439D01*
X84364509Y-107057486D01*
X109096560Y-98324562D02*
X110096560Y-97991229D01*
X109096560Y-97657896D01*
X110096560Y-97324562D02*
X109096560Y-97324562D01*
X110096560Y-96753134D01*
X109096560Y-96753134D01*
X107541320Y-98341345D02*
X106541320Y-98341345D01*
X106541320Y-98103250D01*
X106588940Y-97960393D01*
X106684178Y-97865155D01*
X106779416Y-97817536D01*
X106969892Y-97769917D01*
X107112749Y-97769917D01*
X107303225Y-97817536D01*
X107398463Y-97865155D01*
X107493701Y-97960393D01*
X107541320Y-98103250D01*
X107541320Y-98341345D01*
X106541320Y-97436583D02*
X106541320Y-96817536D01*
X106922273Y-97150869D01*
X106922273Y-97008012D01*
X106969892Y-96912774D01*
X107017511Y-96865155D01*
X107112749Y-96817536D01*
X107350844Y-96817536D01*
X107446082Y-96865155D01*
X107493701Y-96912774D01*
X107541320Y-97008012D01*
X107541320Y-97293726D01*
X107493701Y-97388964D01*
X107446082Y-97436583D01*
X106874654Y-95960393D02*
X107541320Y-95960393D01*
X106493701Y-96198488D02*
X107207987Y-96436583D01*
X107207987Y-95817536D01*
X104818440Y-98371825D02*
X103818440Y-98371825D01*
X103818440Y-98133730D01*
X103866060Y-97990873D01*
X103961298Y-97895635D01*
X104056536Y-97848016D01*
X104247012Y-97800397D01*
X104389869Y-97800397D01*
X104580345Y-97848016D01*
X104675583Y-97895635D01*
X104770821Y-97990873D01*
X104818440Y-98133730D01*
X104818440Y-98371825D01*
X103818440Y-97467063D02*
X103818440Y-96848016D01*
X104199393Y-97181349D01*
X104199393Y-97038492D01*
X104247012Y-96943254D01*
X104294631Y-96895635D01*
X104389869Y-96848016D01*
X104627964Y-96848016D01*
X104723202Y-96895635D01*
X104770821Y-96943254D01*
X104818440Y-97038492D01*
X104818440Y-97324206D01*
X104770821Y-97419444D01*
X104723202Y-97467063D01*
X103818440Y-95943254D02*
X103818440Y-96419444D01*
X104294631Y-96467063D01*
X104247012Y-96419444D01*
X104199393Y-96324206D01*
X104199393Y-96086111D01*
X104247012Y-95990873D01*
X104294631Y-95943254D01*
X104389869Y-95895635D01*
X104627964Y-95895635D01*
X104723202Y-95943254D01*
X104770821Y-95990873D01*
X104818440Y-96086111D01*
X104818440Y-96324206D01*
X104770821Y-96419444D01*
X104723202Y-96467063D01*
X102344480Y-98371825D02*
X101344480Y-98371825D01*
X101344480Y-98133730D01*
X101392100Y-97990873D01*
X101487338Y-97895635D01*
X101582576Y-97848016D01*
X101773052Y-97800397D01*
X101915909Y-97800397D01*
X102106385Y-97848016D01*
X102201623Y-97895635D01*
X102296861Y-97990873D01*
X102344480Y-98133730D01*
X102344480Y-98371825D01*
X101344480Y-97467063D02*
X101344480Y-96848016D01*
X101725433Y-97181349D01*
X101725433Y-97038492D01*
X101773052Y-96943254D01*
X101820671Y-96895635D01*
X101915909Y-96848016D01*
X102154004Y-96848016D01*
X102249242Y-96895635D01*
X102296861Y-96943254D01*
X102344480Y-97038492D01*
X102344480Y-97324206D01*
X102296861Y-97419444D01*
X102249242Y-97467063D01*
X101439719Y-96467063D02*
X101392100Y-96419444D01*
X101344480Y-96324206D01*
X101344480Y-96086111D01*
X101392100Y-95990873D01*
X101439719Y-95943254D01*
X101534957Y-95895635D01*
X101630195Y-95895635D01*
X101773052Y-95943254D01*
X102344480Y-96514682D01*
X102344480Y-95895635D01*
X99916240Y-98402305D02*
X98916240Y-98402305D01*
X98916240Y-98164210D01*
X98963860Y-98021353D01*
X99059098Y-97926115D01*
X99154336Y-97878496D01*
X99344812Y-97830877D01*
X99487669Y-97830877D01*
X99678145Y-97878496D01*
X99773383Y-97926115D01*
X99868621Y-98021353D01*
X99916240Y-98164210D01*
X99916240Y-98402305D01*
X98916240Y-97497543D02*
X98916240Y-96878496D01*
X99297193Y-97211829D01*
X99297193Y-97068972D01*
X99344812Y-96973734D01*
X99392431Y-96926115D01*
X99487669Y-96878496D01*
X99725764Y-96878496D01*
X99821002Y-96926115D01*
X99868621Y-96973734D01*
X99916240Y-97068972D01*
X99916240Y-97354686D01*
X99868621Y-97449924D01*
X99821002Y-97497543D01*
X98916240Y-96545162D02*
X98916240Y-95926115D01*
X99297193Y-96259448D01*
X99297193Y-96116591D01*
X99344812Y-96021353D01*
X99392431Y-95973734D01*
X99487669Y-95926115D01*
X99725764Y-95926115D01*
X99821002Y-95973734D01*
X99868621Y-96021353D01*
X99916240Y-96116591D01*
X99916240Y-96402305D01*
X99868621Y-96497543D01*
X99821002Y-96545162D01*
X97300040Y-98376905D02*
X96300040Y-98376905D01*
X96300040Y-98138810D01*
X96347660Y-97995953D01*
X96442898Y-97900715D01*
X96538136Y-97853096D01*
X96728612Y-97805477D01*
X96871469Y-97805477D01*
X97061945Y-97853096D01*
X97157183Y-97900715D01*
X97252421Y-97995953D01*
X97300040Y-98138810D01*
X97300040Y-98376905D01*
X96395279Y-97424524D02*
X96347660Y-97376905D01*
X96300040Y-97281667D01*
X96300040Y-97043572D01*
X96347660Y-96948334D01*
X96395279Y-96900715D01*
X96490517Y-96853096D01*
X96585755Y-96853096D01*
X96728612Y-96900715D01*
X97300040Y-97472143D01*
X97300040Y-96853096D01*
X96300040Y-95948334D02*
X96300040Y-96424524D01*
X96776231Y-96472143D01*
X96728612Y-96424524D01*
X96680993Y-96329286D01*
X96680993Y-96091191D01*
X96728612Y-95995953D01*
X96776231Y-95948334D01*
X96871469Y-95900715D01*
X97109564Y-95900715D01*
X97204802Y-95948334D01*
X97252421Y-95995953D01*
X97300040Y-96091191D01*
X97300040Y-96329286D01*
X97252421Y-96424524D01*
X97204802Y-96472143D01*
X94749880Y-98366745D02*
X93749880Y-98366745D01*
X93749880Y-98128650D01*
X93797500Y-97985793D01*
X93892738Y-97890555D01*
X93987976Y-97842936D01*
X94178452Y-97795317D01*
X94321309Y-97795317D01*
X94511785Y-97842936D01*
X94607023Y-97890555D01*
X94702261Y-97985793D01*
X94749880Y-98128650D01*
X94749880Y-98366745D01*
X93845119Y-97414364D02*
X93797500Y-97366745D01*
X93749880Y-97271507D01*
X93749880Y-97033412D01*
X93797500Y-96938174D01*
X93845119Y-96890555D01*
X93940357Y-96842936D01*
X94035595Y-96842936D01*
X94178452Y-96890555D01*
X94749880Y-97461983D01*
X94749880Y-96842936D01*
X93749880Y-95985793D02*
X93749880Y-96176269D01*
X93797500Y-96271507D01*
X93845119Y-96319126D01*
X93987976Y-96414364D01*
X94178452Y-96461983D01*
X94559404Y-96461983D01*
X94654642Y-96414364D01*
X94702261Y-96366745D01*
X94749880Y-96271507D01*
X94749880Y-96081031D01*
X94702261Y-95985793D01*
X94654642Y-95938174D01*
X94559404Y-95890555D01*
X94321309Y-95890555D01*
X94226071Y-95938174D01*
X94178452Y-95985793D01*
X94130833Y-96081031D01*
X94130833Y-96271507D01*
X94178452Y-96366745D01*
X94226071Y-96414364D01*
X94321309Y-96461983D01*
X92291160Y-98366745D02*
X91291160Y-98366745D01*
X91291160Y-98128650D01*
X91338780Y-97985793D01*
X91434018Y-97890555D01*
X91529256Y-97842936D01*
X91719732Y-97795317D01*
X91862589Y-97795317D01*
X92053065Y-97842936D01*
X92148303Y-97890555D01*
X92243541Y-97985793D01*
X92291160Y-98128650D01*
X92291160Y-98366745D01*
X91386399Y-97414364D02*
X91338780Y-97366745D01*
X91291160Y-97271507D01*
X91291160Y-97033412D01*
X91338780Y-96938174D01*
X91386399Y-96890555D01*
X91481637Y-96842936D01*
X91576875Y-96842936D01*
X91719732Y-96890555D01*
X92291160Y-97461983D01*
X92291160Y-96842936D01*
X91291160Y-96509602D02*
X91291160Y-95842936D01*
X92291160Y-96271507D01*
X89680040Y-98366745D02*
X88680040Y-98366745D01*
X88680040Y-98128650D01*
X88727660Y-97985793D01*
X88822898Y-97890555D01*
X88918136Y-97842936D01*
X89108612Y-97795317D01*
X89251469Y-97795317D01*
X89441945Y-97842936D01*
X89537183Y-97890555D01*
X89632421Y-97985793D01*
X89680040Y-98128650D01*
X89680040Y-98366745D01*
X89680040Y-96842936D02*
X89680040Y-97414364D01*
X89680040Y-97128650D02*
X88680040Y-97128650D01*
X88822898Y-97223888D01*
X88918136Y-97319126D01*
X88965755Y-97414364D01*
X88775279Y-96461983D02*
X88727660Y-96414364D01*
X88680040Y-96319126D01*
X88680040Y-96081031D01*
X88727660Y-95985793D01*
X88775279Y-95938174D01*
X88870517Y-95890555D01*
X88965755Y-95890555D01*
X89108612Y-95938174D01*
X89680040Y-96509602D01*
X89680040Y-95890555D01*
X87124800Y-98371825D02*
X86124800Y-98371825D01*
X86124800Y-98133730D01*
X86172420Y-97990873D01*
X86267658Y-97895635D01*
X86362896Y-97848016D01*
X86553372Y-97800397D01*
X86696229Y-97800397D01*
X86886705Y-97848016D01*
X86981943Y-97895635D01*
X87077181Y-97990873D01*
X87124800Y-98133730D01*
X87124800Y-98371825D01*
X87124800Y-96848016D02*
X87124800Y-97419444D01*
X87124800Y-97133730D02*
X86124800Y-97133730D01*
X86267658Y-97228968D01*
X86362896Y-97324206D01*
X86410515Y-97419444D01*
X86124800Y-96514682D02*
X86124800Y-95895635D01*
X86505753Y-96228968D01*
X86505753Y-96086111D01*
X86553372Y-95990873D01*
X86600991Y-95943254D01*
X86696229Y-95895635D01*
X86934324Y-95895635D01*
X87029562Y-95943254D01*
X87077181Y-95990873D01*
X87124800Y-96086111D01*
X87124800Y-96371825D01*
X87077181Y-96467063D01*
X87029562Y-96514682D01*
X83711800Y-97840776D02*
X83711800Y-98316966D01*
X84187991Y-98364585D01*
X84140372Y-98316966D01*
X84092753Y-98221728D01*
X84092753Y-97983633D01*
X84140372Y-97888395D01*
X84187991Y-97840776D01*
X84283229Y-97793157D01*
X84521324Y-97793157D01*
X84616562Y-97840776D01*
X84664181Y-97888395D01*
X84711800Y-97983633D01*
X84711800Y-98221728D01*
X84664181Y-98316966D01*
X84616562Y-98364585D01*
X83711800Y-97507442D02*
X84711800Y-97174109D01*
X83711800Y-96840776D01*
X140627123Y-182214780D02*
X140055695Y-182214780D01*
X140341409Y-182214780D02*
X140341409Y-181214780D01*
X140246171Y-181357638D01*
X140150933Y-181452876D01*
X140055695Y-181500495D01*
X140960457Y-181214780D02*
X141627123Y-181214780D01*
X141198552Y-182214780D01*
X137083823Y-182240180D02*
X136512395Y-182240180D01*
X136798109Y-182240180D02*
X136798109Y-181240180D01*
X136702871Y-181383038D01*
X136607633Y-181478276D01*
X136512395Y-181525895D01*
X137940966Y-181240180D02*
X137750490Y-181240180D01*
X137655252Y-181287800D01*
X137607633Y-181335419D01*
X137512395Y-181478276D01*
X137464776Y-181668752D01*
X137464776Y-182049704D01*
X137512395Y-182144942D01*
X137560014Y-182192561D01*
X137655252Y-182240180D01*
X137845728Y-182240180D01*
X137940966Y-182192561D01*
X137988585Y-182144942D01*
X138036204Y-182049704D01*
X138036204Y-181811609D01*
X137988585Y-181716371D01*
X137940966Y-181668752D01*
X137845728Y-181621133D01*
X137655252Y-181621133D01*
X137560014Y-181668752D01*
X137512395Y-181716371D01*
X137464776Y-181811609D01*
X133464323Y-182265580D02*
X132892895Y-182265580D01*
X133178609Y-182265580D02*
X133178609Y-181265580D01*
X133083371Y-181408438D01*
X132988133Y-181503676D01*
X132892895Y-181551295D01*
X134369085Y-181265580D02*
X133892895Y-181265580D01*
X133845276Y-181741771D01*
X133892895Y-181694152D01*
X133988133Y-181646533D01*
X134226228Y-181646533D01*
X134321466Y-181694152D01*
X134369085Y-181741771D01*
X134416704Y-181837009D01*
X134416704Y-182075104D01*
X134369085Y-182170342D01*
X134321466Y-182217961D01*
X134226228Y-182265580D01*
X133988133Y-182265580D01*
X133892895Y-182217961D01*
X133845276Y-182170342D01*
X129959123Y-182265580D02*
X129387695Y-182265580D01*
X129673409Y-182265580D02*
X129673409Y-181265580D01*
X129578171Y-181408438D01*
X129482933Y-181503676D01*
X129387695Y-181551295D01*
X130816266Y-181598914D02*
X130816266Y-182265580D01*
X130578171Y-181217961D02*
X130340076Y-181932247D01*
X130959123Y-181932247D01*
X126352323Y-182329080D02*
X125780895Y-182329080D01*
X126066609Y-182329080D02*
X126066609Y-181329080D01*
X125971371Y-181471938D01*
X125876133Y-181567176D01*
X125780895Y-181614795D01*
X126685657Y-181329080D02*
X127304704Y-181329080D01*
X126971371Y-181710033D01*
X127114228Y-181710033D01*
X127209466Y-181757652D01*
X127257085Y-181805271D01*
X127304704Y-181900509D01*
X127304704Y-182138604D01*
X127257085Y-182233842D01*
X127209466Y-182281461D01*
X127114228Y-182329080D01*
X126828514Y-182329080D01*
X126733276Y-182281461D01*
X126685657Y-182233842D01*
X122758223Y-182329080D02*
X122186795Y-182329080D01*
X122472509Y-182329080D02*
X122472509Y-181329080D01*
X122377271Y-181471938D01*
X122282033Y-181567176D01*
X122186795Y-181614795D01*
X123139176Y-181424319D02*
X123186795Y-181376700D01*
X123282033Y-181329080D01*
X123520128Y-181329080D01*
X123615366Y-181376700D01*
X123662985Y-181424319D01*
X123710604Y-181519557D01*
X123710604Y-181614795D01*
X123662985Y-181757652D01*
X123091557Y-182329080D01*
X123710604Y-182329080D01*
X119202223Y-182265580D02*
X118630795Y-182265580D01*
X118916509Y-182265580D02*
X118916509Y-181265580D01*
X118821271Y-181408438D01*
X118726033Y-181503676D01*
X118630795Y-181551295D01*
X120154604Y-182265580D02*
X119583176Y-182265580D01*
X119868890Y-182265580D02*
X119868890Y-181265580D01*
X119773652Y-181408438D01*
X119678414Y-181503676D01*
X119583176Y-181551295D01*
X115531923Y-182303680D02*
X114960495Y-182303680D01*
X115246209Y-182303680D02*
X115246209Y-181303680D01*
X115150971Y-181446538D01*
X115055733Y-181541776D01*
X114960495Y-181589395D01*
X116150971Y-181303680D02*
X116246209Y-181303680D01*
X116341447Y-181351300D01*
X116389066Y-181398919D01*
X116436685Y-181494157D01*
X116484304Y-181684633D01*
X116484304Y-181922728D01*
X116436685Y-182113204D01*
X116389066Y-182208442D01*
X116341447Y-182256061D01*
X116246209Y-182303680D01*
X116150971Y-182303680D01*
X116055733Y-182256061D01*
X116008114Y-182208442D01*
X115960495Y-182113204D01*
X115912876Y-181922728D01*
X115912876Y-181684633D01*
X115960495Y-181494157D01*
X116008114Y-181398919D01*
X116055733Y-181351300D01*
X116150971Y-181303680D01*
X111975923Y-182329080D02*
X112166400Y-182329080D01*
X112261638Y-182281461D01*
X112309257Y-182233842D01*
X112404495Y-182090985D01*
X112452114Y-181900509D01*
X112452114Y-181519557D01*
X112404495Y-181424319D01*
X112356876Y-181376700D01*
X112261638Y-181329080D01*
X112071161Y-181329080D01*
X111975923Y-181376700D01*
X111928304Y-181424319D01*
X111880685Y-181519557D01*
X111880685Y-181757652D01*
X111928304Y-181852890D01*
X111975923Y-181900509D01*
X112071161Y-181948128D01*
X112261638Y-181948128D01*
X112356876Y-181900509D01*
X112404495Y-181852890D01*
X112452114Y-181757652D01*
X108413561Y-181783052D02*
X108318323Y-181735433D01*
X108270704Y-181687814D01*
X108223085Y-181592576D01*
X108223085Y-181544957D01*
X108270704Y-181449719D01*
X108318323Y-181402100D01*
X108413561Y-181354480D01*
X108604038Y-181354480D01*
X108699276Y-181402100D01*
X108746895Y-181449719D01*
X108794514Y-181544957D01*
X108794514Y-181592576D01*
X108746895Y-181687814D01*
X108699276Y-181735433D01*
X108604038Y-181783052D01*
X108413561Y-181783052D01*
X108318323Y-181830671D01*
X108270704Y-181878290D01*
X108223085Y-181973528D01*
X108223085Y-182164004D01*
X108270704Y-182259242D01*
X108318323Y-182306861D01*
X108413561Y-182354480D01*
X108604038Y-182354480D01*
X108699276Y-182306861D01*
X108746895Y-182259242D01*
X108794514Y-182164004D01*
X108794514Y-181973528D01*
X108746895Y-181878290D01*
X108699276Y-181830671D01*
X108604038Y-181783052D01*
X104759166Y-181379880D02*
X105425833Y-181379880D01*
X104997261Y-182379880D01*
X101663476Y-181354480D02*
X101473000Y-181354480D01*
X101377761Y-181402100D01*
X101330142Y-181449719D01*
X101234904Y-181592576D01*
X101187285Y-181783052D01*
X101187285Y-182164004D01*
X101234904Y-182259242D01*
X101282523Y-182306861D01*
X101377761Y-182354480D01*
X101568238Y-182354480D01*
X101663476Y-182306861D01*
X101711095Y-182259242D01*
X101758714Y-182164004D01*
X101758714Y-181925909D01*
X101711095Y-181830671D01*
X101663476Y-181783052D01*
X101568238Y-181735433D01*
X101377761Y-181735433D01*
X101282523Y-181783052D01*
X101234904Y-181830671D01*
X101187285Y-181925909D01*
X98218595Y-181329080D02*
X97742404Y-181329080D01*
X97694785Y-181805271D01*
X97742404Y-181757652D01*
X97837642Y-181710033D01*
X98075738Y-181710033D01*
X98170976Y-181757652D01*
X98218595Y-181805271D01*
X98266214Y-181900509D01*
X98266214Y-182138604D01*
X98218595Y-182233842D01*
X98170976Y-182281461D01*
X98075738Y-182329080D01*
X97837642Y-182329080D01*
X97742404Y-182281461D01*
X97694785Y-182233842D01*
X94538776Y-181675114D02*
X94538776Y-182341780D01*
X94300680Y-181294161D02*
X94062585Y-182008447D01*
X94681633Y-182008447D01*
X90535166Y-181316380D02*
X91154214Y-181316380D01*
X90820880Y-181697333D01*
X90963738Y-181697333D01*
X91058976Y-181744952D01*
X91106595Y-181792571D01*
X91154214Y-181887809D01*
X91154214Y-182125904D01*
X91106595Y-182221142D01*
X91058976Y-182268761D01*
X90963738Y-182316380D01*
X90678023Y-182316380D01*
X90582785Y-182268761D01*
X90535166Y-182221142D01*
X87128385Y-181411619D02*
X87176004Y-181364000D01*
X87271242Y-181316380D01*
X87509338Y-181316380D01*
X87604576Y-181364000D01*
X87652195Y-181411619D01*
X87699814Y-181506857D01*
X87699814Y-181602095D01*
X87652195Y-181744952D01*
X87080766Y-182316380D01*
X87699814Y-182316380D01*
X84080314Y-182316380D02*
X83508885Y-182316380D01*
X83794600Y-182316380D02*
X83794600Y-181316380D01*
X83699361Y-181459238D01*
X83604123Y-181554476D01*
X83508885Y-181602095D01*
X80051280Y-181341780D02*
X80146519Y-181341780D01*
X80241757Y-181389400D01*
X80289376Y-181437019D01*
X80336995Y-181532257D01*
X80384614Y-181722733D01*
X80384614Y-181960828D01*
X80336995Y-182151304D01*
X80289376Y-182246542D01*
X80241757Y-182294161D01*
X80146519Y-182341780D01*
X80051280Y-182341780D01*
X79956042Y-182294161D01*
X79908423Y-182246542D01*
X79860804Y-182151304D01*
X79813185Y-181960828D01*
X79813185Y-181722733D01*
X79860804Y-181532257D01*
X79908423Y-181437019D01*
X79956042Y-181389400D01*
X80051280Y-181341780D01*
D13*
X110994500Y-98987300D02*
X110994500Y-100317300D01*
X109664500Y-98987300D02*
X110994500Y-98987300D01*
X108394500Y-98987300D02*
X108394500Y-101647300D01*
X108394500Y-101647300D02*
X82934500Y-101647300D01*
X108394500Y-98987300D02*
X82934500Y-98987300D01*
X82934500Y-98987300D02*
X82934500Y-101647300D01*
X140945900Y-160483600D02*
X140945900Y-158133600D01*
X140945900Y-153663600D02*
X140945900Y-156013600D01*
X135190337Y-153663600D02*
X140945900Y-153663600D01*
X135190337Y-160483600D02*
X140945900Y-160483600D01*
X134125900Y-159419163D02*
X134125900Y-158133600D01*
X134125900Y-154728037D02*
X134125900Y-156013600D01*
X134125900Y-154728037D02*
X135190337Y-153663600D01*
X134125900Y-159419163D02*
X135190337Y-160483600D01*
X133098400Y-155226100D02*
X133885900Y-155226100D01*
X133492150Y-154832350D02*
X133492150Y-155619850D01*
X88906400Y-145340000D02*
X86556400Y-145340000D01*
X82086400Y-145340000D02*
X84436400Y-145340000D01*
X82086400Y-151095563D02*
X82086400Y-145340000D01*
X88906400Y-151095563D02*
X88906400Y-145340000D01*
X87841963Y-152160000D02*
X86556400Y-152160000D01*
X83150837Y-152160000D02*
X84436400Y-152160000D01*
X83150837Y-152160000D02*
X82086400Y-151095563D01*
X87841963Y-152160000D02*
X88906400Y-151095563D01*
X83648900Y-153187500D02*
X83648900Y-152400000D01*
X83255150Y-152793750D02*
X84042650Y-152793750D01*
X141918100Y-166302736D02*
X141918100Y-167756864D01*
X140098100Y-166302736D02*
X140098100Y-167756864D01*
X136389700Y-167744764D02*
X136389700Y-166290636D01*
X138209700Y-167744764D02*
X138209700Y-166290636D01*
X96472700Y-174993300D02*
X99132700Y-174993300D01*
X96472700Y-174993300D02*
X96472700Y-180133300D01*
X96472700Y-180133300D02*
X99132700Y-180133300D01*
X99132700Y-174993300D02*
X99132700Y-180133300D01*
X99132700Y-172393300D02*
X99132700Y-173723300D01*
X97802700Y-172393300D02*
X99132700Y-172393300D01*
X114455900Y-175018700D02*
X117115900Y-175018700D01*
X114455900Y-175018700D02*
X114455900Y-180158700D01*
X114455900Y-180158700D02*
X117115900Y-180158700D01*
X117115900Y-175018700D02*
X117115900Y-180158700D01*
X117115900Y-172418700D02*
X117115900Y-173748700D01*
X115785900Y-172418700D02*
X117115900Y-172418700D01*
X107267700Y-174993300D02*
X109927700Y-174993300D01*
X107267700Y-174993300D02*
X107267700Y-180133300D01*
X107267700Y-180133300D02*
X109927700Y-180133300D01*
X109927700Y-174993300D02*
X109927700Y-180133300D01*
X109927700Y-172393300D02*
X109927700Y-173723300D01*
X108597700Y-172393300D02*
X109927700Y-172393300D01*
X118050000Y-175006000D02*
X120710000Y-175006000D01*
X118050000Y-175006000D02*
X118050000Y-180146000D01*
X118050000Y-180146000D02*
X120710000Y-180146000D01*
X120710000Y-175006000D02*
X120710000Y-180146000D01*
X120710000Y-172406000D02*
X120710000Y-173736000D01*
X119380000Y-172406000D02*
X120710000Y-172406000D01*
X103660900Y-174980600D02*
X106320900Y-174980600D01*
X103660900Y-174980600D02*
X103660900Y-180120600D01*
X103660900Y-180120600D02*
X106320900Y-180120600D01*
X106320900Y-174980600D02*
X106320900Y-180120600D01*
X106320900Y-172380600D02*
X106320900Y-173710600D01*
X104990900Y-172380600D02*
X106320900Y-172380600D01*
X92878600Y-174993300D02*
X95538600Y-174993300D01*
X92878600Y-174993300D02*
X92878600Y-180133300D01*
X92878600Y-180133300D02*
X95538600Y-180133300D01*
X95538600Y-174993300D02*
X95538600Y-180133300D01*
X95538600Y-172393300D02*
X95538600Y-173723300D01*
X94208600Y-172393300D02*
X95538600Y-172393300D01*
X139627300Y-174993300D02*
X142287300Y-174993300D01*
X139627300Y-174993300D02*
X139627300Y-180133300D01*
X139627300Y-180133300D02*
X142287300Y-180133300D01*
X142287300Y-174993300D02*
X142287300Y-180133300D01*
X142287300Y-172393300D02*
X142287300Y-173723300D01*
X140957300Y-172393300D02*
X142287300Y-172393300D01*
X136033200Y-174993300D02*
X138693200Y-174993300D01*
X136033200Y-174993300D02*
X136033200Y-180133300D01*
X136033200Y-180133300D02*
X138693200Y-180133300D01*
X138693200Y-174993300D02*
X138693200Y-180133300D01*
X138693200Y-172393300D02*
X138693200Y-173723300D01*
X137363200Y-172393300D02*
X138693200Y-172393300D01*
X82121700Y-174993300D02*
X84781700Y-174993300D01*
X82121700Y-174993300D02*
X82121700Y-180133300D01*
X82121700Y-180133300D02*
X84781700Y-180133300D01*
X84781700Y-174993300D02*
X84781700Y-180133300D01*
X84781700Y-172393300D02*
X84781700Y-173723300D01*
X83451700Y-172393300D02*
X84781700Y-172393300D01*
X110861800Y-175006000D02*
X113521800Y-175006000D01*
X110861800Y-175006000D02*
X110861800Y-180146000D01*
X110861800Y-180146000D02*
X113521800Y-180146000D01*
X113521800Y-175006000D02*
X113521800Y-180146000D01*
X113521800Y-172406000D02*
X113521800Y-173736000D01*
X112191800Y-172406000D02*
X113521800Y-172406000D01*
X121644100Y-175006000D02*
X124304100Y-175006000D01*
X121644100Y-175006000D02*
X121644100Y-180146000D01*
X121644100Y-180146000D02*
X124304100Y-180146000D01*
X124304100Y-175006000D02*
X124304100Y-180146000D01*
X124304100Y-172406000D02*
X124304100Y-173736000D01*
X122974100Y-172406000D02*
X124304100Y-172406000D01*
X100079500Y-174980600D02*
X102739500Y-174980600D01*
X100079500Y-174980600D02*
X100079500Y-180120600D01*
X100079500Y-180120600D02*
X102739500Y-180120600D01*
X102739500Y-174980600D02*
X102739500Y-180120600D01*
X102739500Y-172380600D02*
X102739500Y-173710600D01*
X101409500Y-172380600D02*
X102739500Y-172380600D01*
X89284500Y-174993300D02*
X91944500Y-174993300D01*
X89284500Y-174993300D02*
X89284500Y-180133300D01*
X89284500Y-180133300D02*
X91944500Y-180133300D01*
X91944500Y-174993300D02*
X91944500Y-180133300D01*
X91944500Y-172393300D02*
X91944500Y-173723300D01*
X90614500Y-172393300D02*
X91944500Y-172393300D01*
X125212800Y-175006000D02*
X127872800Y-175006000D01*
X125212800Y-175006000D02*
X125212800Y-180146000D01*
X125212800Y-180146000D02*
X127872800Y-180146000D01*
X127872800Y-175006000D02*
X127872800Y-180146000D01*
X127872800Y-172406000D02*
X127872800Y-173736000D01*
X126542800Y-172406000D02*
X127872800Y-172406000D01*
X128819600Y-175006000D02*
X131479600Y-175006000D01*
X128819600Y-175006000D02*
X128819600Y-180146000D01*
X128819600Y-180146000D02*
X131479600Y-180146000D01*
X131479600Y-175006000D02*
X131479600Y-180146000D01*
X131479600Y-172406000D02*
X131479600Y-173736000D01*
X130149600Y-172406000D02*
X131479600Y-172406000D01*
X132426400Y-175006000D02*
X135086400Y-175006000D01*
X132426400Y-175006000D02*
X132426400Y-180146000D01*
X132426400Y-180146000D02*
X135086400Y-180146000D01*
X135086400Y-175006000D02*
X135086400Y-180146000D01*
X135086400Y-172406000D02*
X135086400Y-173736000D01*
X133756400Y-172406000D02*
X135086400Y-172406000D01*
X78527600Y-174993300D02*
X81187600Y-174993300D01*
X78527600Y-174993300D02*
X78527600Y-180133300D01*
X78527600Y-180133300D02*
X81187600Y-180133300D01*
X81187600Y-174993300D02*
X81187600Y-180133300D01*
X81187600Y-172393300D02*
X81187600Y-173723300D01*
X79857600Y-172393300D02*
X81187600Y-172393300D01*
X85703100Y-174993300D02*
X88363100Y-174993300D01*
X85703100Y-174993300D02*
X85703100Y-180133300D01*
X85703100Y-180133300D02*
X88363100Y-180133300D01*
X88363100Y-174993300D02*
X88363100Y-180133300D01*
X88363100Y-172393300D02*
X88363100Y-173723300D01*
X87033100Y-172393300D02*
X88363100Y-172393300D01*
X108054840Y-116025720D02*
X108054840Y-115400720D01*
X108367340Y-115713220D02*
X107742340Y-115713220D01*
X107502340Y-112332657D02*
X106437903Y-111268220D01*
X107502340Y-115723783D02*
X106437903Y-116788220D01*
X107502340Y-115723783D02*
X107502340Y-115088220D01*
X107502340Y-112332657D02*
X107502340Y-112968220D01*
X106437903Y-111268220D02*
X101982340Y-111268220D01*
X106437903Y-116788220D02*
X101982340Y-116788220D01*
X101982340Y-116788220D02*
X101982340Y-115088220D01*
X101982340Y-111268220D02*
X101982340Y-112968220D01*
X99835400Y-118304100D02*
X99835400Y-117679100D01*
X100147900Y-117991600D02*
X99522900Y-117991600D01*
X99282900Y-114611037D02*
X98218463Y-113546600D01*
X99282900Y-118002163D02*
X98218463Y-119066600D01*
X99282900Y-118002163D02*
X99282900Y-117366600D01*
X99282900Y-114611037D02*
X99282900Y-115246600D01*
X98218463Y-113546600D02*
X93762900Y-113546600D01*
X98218463Y-119066600D02*
X93762900Y-119066600D01*
X93762900Y-119066600D02*
X93762900Y-117366600D01*
X93762900Y-113546600D02*
X93762900Y-115246600D01*
X107857600Y-142649900D02*
X107857600Y-143979900D01*
X106527600Y-142649900D02*
X107857600Y-142649900D01*
X105257600Y-142649900D02*
X105257600Y-145309900D01*
X105257600Y-145309900D02*
X102657600Y-145309900D01*
X105257600Y-142649900D02*
X102657600Y-142649900D01*
X102657600Y-142649900D02*
X102657600Y-145309900D01*
X110994500Y-102657600D02*
X110994500Y-103987600D01*
X109664500Y-102657600D02*
X110994500Y-102657600D01*
X108394500Y-102657600D02*
X108394500Y-105317600D01*
X108394500Y-105317600D02*
X82934500Y-105317600D01*
X108394500Y-102657600D02*
X82934500Y-102657600D01*
X82934500Y-102657600D02*
X82934500Y-105317600D01*
X138420800Y-100143000D02*
X139750800Y-100143000D01*
X138420800Y-101473000D02*
X138420800Y-100143000D01*
X138420800Y-102743000D02*
X141080800Y-102743000D01*
X141080800Y-102743000D02*
X141080800Y-138363000D01*
X138420800Y-102743000D02*
X138420800Y-138363000D01*
X138420800Y-138363000D02*
X141080800Y-138363000D01*
X113185900Y-138401100D02*
X115845900Y-138401100D01*
X113185900Y-102781100D02*
X113185900Y-138401100D01*
X115845900Y-102781100D02*
X115845900Y-138401100D01*
X113185900Y-102781100D02*
X115845900Y-102781100D01*
X113185900Y-101511100D02*
X113185900Y-100181100D01*
X113185900Y-100181100D02*
X114515900Y-100181100D01*
X104106300Y-166493236D02*
X104106300Y-167947364D01*
X105926300Y-166493236D02*
X105926300Y-167947364D01*
X107638900Y-150858200D02*
X106348900Y-150858200D01*
X107638900Y-150583200D02*
X107638900Y-150858200D01*
X109948900Y-150583200D02*
X107638900Y-150583200D01*
X112258900Y-150583200D02*
X112258900Y-150858200D01*
X109948900Y-150583200D02*
X112258900Y-150583200D01*
X107638900Y-160503200D02*
X107638900Y-160228200D01*
X109948900Y-160503200D02*
X107638900Y-160503200D01*
X112258900Y-160503200D02*
X112258900Y-160228200D01*
X109948900Y-160503200D02*
X112258900Y-160503200D01*
X93819300Y-144700036D02*
X93819300Y-146154164D01*
X95639300Y-144700036D02*
X95639300Y-146154164D01*
X94929936Y-122220400D02*
X96384064Y-122220400D01*
X94929936Y-120400400D02*
X96384064Y-120400400D01*
X93817464Y-148759500D02*
X92363336Y-148759500D01*
X93817464Y-150579500D02*
X92363336Y-150579500D01*
X105820800Y-138197636D02*
X105820800Y-139651764D01*
X107640800Y-138197636D02*
X107640800Y-139651764D01*
X102861700Y-138172236D02*
X102861700Y-139626364D01*
X104681700Y-138172236D02*
X104681700Y-139626364D01*
X132744800Y-166391636D02*
X132744800Y-167845764D01*
X134564800Y-166391636D02*
X134564800Y-167845764D01*
X111434200Y-166544036D02*
X111434200Y-167998164D01*
X113254200Y-166544036D02*
X113254200Y-167998164D01*
X118470000Y-166582136D02*
X118470000Y-168036264D01*
X120290000Y-166582136D02*
X120290000Y-168036264D01*
X122051400Y-166570036D02*
X122051400Y-168024164D01*
X123871400Y-166570036D02*
X123871400Y-168024164D01*
X125696300Y-166544036D02*
X125696300Y-167998164D01*
X127516300Y-166544036D02*
X127516300Y-167998164D01*
X114825100Y-166620236D02*
X114825100Y-168074364D01*
X116645100Y-166620236D02*
X116645100Y-168074364D01*
X100537600Y-166493236D02*
X100537600Y-167947364D01*
X102357600Y-166493236D02*
X102357600Y-167947364D01*
X107675000Y-166505936D02*
X107675000Y-167960064D01*
X109495000Y-166505936D02*
X109495000Y-167960064D01*
X78973000Y-166772636D02*
X78973000Y-168226764D01*
X80793000Y-166772636D02*
X80793000Y-168226764D01*
X93438300Y-166723036D02*
X93438300Y-168177164D01*
X95258300Y-166723036D02*
X95258300Y-168177164D01*
X97045100Y-166607536D02*
X97045100Y-168061664D01*
X98865100Y-166607536D02*
X98865100Y-168061664D01*
X129201500Y-166505936D02*
X129201500Y-167960064D01*
X131021500Y-166505936D02*
X131021500Y-167960064D01*
X82554400Y-166798636D02*
X82554400Y-168252764D01*
X84374400Y-166798636D02*
X84374400Y-168252764D01*
X89742600Y-166671036D02*
X89742600Y-168125164D01*
X91562600Y-166671036D02*
X91562600Y-168125164D01*
X86123100Y-166671036D02*
X86123100Y-168125164D01*
X87943100Y-166671036D02*
X87943100Y-168125164D01*
X90317200Y-126874300D02*
X90317200Y-125414300D01*
X93477200Y-126874300D02*
X93477200Y-124714300D01*
X93477200Y-126874300D02*
X92547200Y-126874300D01*
X90317200Y-126874300D02*
X91247200Y-126874300D01*
X81952900Y-123165800D02*
X81952900Y-121165800D01*
X83202900Y-123165800D02*
X81952900Y-123165800D01*
X88952900Y-114755800D02*
X88952900Y-115505800D01*
X84652900Y-114755800D02*
X88952900Y-114755800D01*
X84652900Y-115505800D02*
X84652900Y-114755800D01*
X84302900Y-115505800D02*
X84652900Y-115505800D01*
X84302900Y-115005800D02*
X84302900Y-115505800D01*
X83302900Y-114755800D02*
X84302900Y-115005800D01*
X83302900Y-117755800D02*
X83302900Y-114755800D01*
X84302900Y-117505800D02*
X83302900Y-117755800D01*
X84302900Y-117005800D02*
X84302900Y-117505800D01*
X84652900Y-117005800D02*
X84302900Y-117005800D01*
X84652900Y-117755800D02*
X84652900Y-117005800D01*
X88952900Y-117755800D02*
X84652900Y-117755800D01*
X88952900Y-117005800D02*
X88952900Y-117755800D01*
X88952900Y-118565800D02*
X88952900Y-119315800D01*
X84652900Y-118565800D02*
X88952900Y-118565800D01*
X84652900Y-119315800D02*
X84652900Y-118565800D01*
X84302900Y-119315800D02*
X84652900Y-119315800D01*
X84302900Y-118815800D02*
X84302900Y-119315800D01*
X83302900Y-118565800D02*
X84302900Y-118815800D01*
X83302900Y-121565800D02*
X83302900Y-118565800D01*
X84302900Y-121315800D02*
X83302900Y-121565800D01*
X84302900Y-120815800D02*
X84302900Y-121315800D01*
X84652900Y-120815800D02*
X84302900Y-120815800D01*
X84652900Y-121565800D02*
X84652900Y-120815800D01*
X88952900Y-121565800D02*
X84652900Y-121565800D01*
X88952900Y-120815800D02*
X88952900Y-121565800D01*
X82342900Y-113545800D02*
X82342900Y-122775800D01*
X89812900Y-113545800D02*
X82342900Y-113545800D01*
X89812900Y-122775800D02*
X89812900Y-113545800D01*
X82342900Y-122775800D02*
X89812900Y-122775800D01*
X88952745Y-115506153D02*
G75*
G03*
X88952900Y-117005800I1700155J-749647D01*
G01*
X88952745Y-119316153D02*
G75*
G03*
X88952900Y-120815800I1700155J-749647D01*
G01*
X98756200Y-122407300D02*
X102641200Y-122407300D01*
X98756200Y-120137300D02*
X98756200Y-122407300D01*
X102641200Y-120137300D02*
X98756200Y-120137300D01*
X95322200Y-152674700D02*
X91437200Y-152674700D01*
X95322200Y-154944700D02*
X95322200Y-152674700D01*
X91437200Y-154944700D02*
X95322200Y-154944700D01*
D10*
X79883736Y-99647760D02*
X79883736Y-100362046D01*
X79836117Y-100504903D01*
X79740879Y-100600141D01*
X79598021Y-100647760D01*
X79502783Y-100647760D01*
X80883736Y-100647760D02*
X80312307Y-100647760D01*
X80598021Y-100647760D02*
X80598021Y-99647760D01*
X80502783Y-99790618D01*
X80407545Y-99885856D01*
X80312307Y-99933475D01*
X81217069Y-99647760D02*
X81883736Y-99647760D01*
X81455164Y-100647760D01*
X137369233Y-153080742D02*
X137321614Y-153128361D01*
X137178757Y-153175980D01*
X137083519Y-153175980D01*
X136940661Y-153128361D01*
X136845423Y-153033123D01*
X136797804Y-152937885D01*
X136750185Y-152747409D01*
X136750185Y-152604552D01*
X136797804Y-152414076D01*
X136845423Y-152318838D01*
X136940661Y-152223600D01*
X137083519Y-152175980D01*
X137178757Y-152175980D01*
X137321614Y-152223600D01*
X137369233Y-152271219D01*
X138226376Y-152509314D02*
X138226376Y-153175980D01*
X137988280Y-152128361D02*
X137750185Y-152842647D01*
X138369233Y-152842647D01*
X81503542Y-148916666D02*
X81551161Y-148964285D01*
X81598780Y-149107142D01*
X81598780Y-149202380D01*
X81551161Y-149345238D01*
X81455923Y-149440476D01*
X81360685Y-149488095D01*
X81170209Y-149535714D01*
X81027352Y-149535714D01*
X80836876Y-149488095D01*
X80741638Y-149440476D01*
X80646400Y-149345238D01*
X80598780Y-149202380D01*
X80598780Y-149107142D01*
X80646400Y-148964285D01*
X80694019Y-148916666D01*
X81598780Y-147964285D02*
X81598780Y-148535714D01*
X81598780Y-148250000D02*
X80598780Y-148250000D01*
X80741638Y-148345238D01*
X80836876Y-148440476D01*
X80884495Y-148535714D01*
X140225542Y-164142680D02*
X139892209Y-163666490D01*
X139654114Y-164142680D02*
X139654114Y-163142680D01*
X140035066Y-163142680D01*
X140130304Y-163190300D01*
X140177923Y-163237919D01*
X140225542Y-163333157D01*
X140225542Y-163476014D01*
X140177923Y-163571252D01*
X140130304Y-163618871D01*
X140035066Y-163666490D01*
X139654114Y-163666490D01*
X140606495Y-163237919D02*
X140654114Y-163190300D01*
X140749352Y-163142680D01*
X140987447Y-163142680D01*
X141082685Y-163190300D01*
X141130304Y-163237919D01*
X141177923Y-163333157D01*
X141177923Y-163428395D01*
X141130304Y-163571252D01*
X140558876Y-164142680D01*
X141177923Y-164142680D01*
X141511257Y-163142680D02*
X142130304Y-163142680D01*
X141796971Y-163523633D01*
X141939828Y-163523633D01*
X142035066Y-163571252D01*
X142082685Y-163618871D01*
X142130304Y-163714109D01*
X142130304Y-163952204D01*
X142082685Y-164047442D01*
X142035066Y-164095061D01*
X141939828Y-164142680D01*
X141654114Y-164142680D01*
X141558876Y-164095061D01*
X141511257Y-164047442D01*
X136707642Y-164180780D02*
X136374309Y-163704590D01*
X136136214Y-164180780D02*
X136136214Y-163180780D01*
X136517166Y-163180780D01*
X136612404Y-163228400D01*
X136660023Y-163276019D01*
X136707642Y-163371257D01*
X136707642Y-163514114D01*
X136660023Y-163609352D01*
X136612404Y-163656971D01*
X136517166Y-163704590D01*
X136136214Y-163704590D01*
X137088595Y-163276019D02*
X137136214Y-163228400D01*
X137231452Y-163180780D01*
X137469547Y-163180780D01*
X137564785Y-163228400D01*
X137612404Y-163276019D01*
X137660023Y-163371257D01*
X137660023Y-163466495D01*
X137612404Y-163609352D01*
X137040976Y-164180780D01*
X137660023Y-164180780D01*
X138040976Y-163276019D02*
X138088595Y-163228400D01*
X138183833Y-163180780D01*
X138421928Y-163180780D01*
X138517166Y-163228400D01*
X138564785Y-163276019D01*
X138612404Y-163371257D01*
X138612404Y-163466495D01*
X138564785Y-163609352D01*
X137993357Y-164180780D01*
X138612404Y-164180780D01*
X104057153Y-110666802D02*
X104009534Y-110714421D01*
X103866677Y-110762040D01*
X103771439Y-110762040D01*
X103628581Y-110714421D01*
X103533343Y-110619183D01*
X103485724Y-110523945D01*
X103438105Y-110333469D01*
X103438105Y-110190612D01*
X103485724Y-110000136D01*
X103533343Y-109904898D01*
X103628581Y-109809660D01*
X103771439Y-109762040D01*
X103866677Y-109762040D01*
X104009534Y-109809660D01*
X104057153Y-109857279D01*
X104390486Y-109762040D02*
X105009534Y-109762040D01*
X104676200Y-110142993D01*
X104819058Y-110142993D01*
X104914296Y-110190612D01*
X104961915Y-110238231D01*
X105009534Y-110333469D01*
X105009534Y-110571564D01*
X104961915Y-110666802D01*
X104914296Y-110714421D01*
X104819058Y-110762040D01*
X104533343Y-110762040D01*
X104438105Y-110714421D01*
X104390486Y-110666802D01*
X95939313Y-113049322D02*
X95891694Y-113096941D01*
X95748837Y-113144560D01*
X95653599Y-113144560D01*
X95510741Y-113096941D01*
X95415503Y-113001703D01*
X95367884Y-112906465D01*
X95320265Y-112715989D01*
X95320265Y-112573132D01*
X95367884Y-112382656D01*
X95415503Y-112287418D01*
X95510741Y-112192180D01*
X95653599Y-112144560D01*
X95748837Y-112144560D01*
X95891694Y-112192180D01*
X95939313Y-112239799D01*
X96320265Y-112239799D02*
X96367884Y-112192180D01*
X96463122Y-112144560D01*
X96701218Y-112144560D01*
X96796456Y-112192180D01*
X96844075Y-112239799D01*
X96891694Y-112335037D01*
X96891694Y-112430275D01*
X96844075Y-112573132D01*
X96272646Y-113144560D01*
X96891694Y-113144560D01*
X108291380Y-144776723D02*
X109005666Y-144776723D01*
X109148523Y-144824342D01*
X109243761Y-144919580D01*
X109291380Y-145062438D01*
X109291380Y-145157676D01*
X109291380Y-143776723D02*
X109291380Y-144348152D01*
X109291380Y-144062438D02*
X108291380Y-144062438D01*
X108434238Y-144157676D01*
X108529476Y-144252914D01*
X108577095Y-144348152D01*
X108719952Y-143205295D02*
X108672333Y-143300533D01*
X108624714Y-143348152D01*
X108529476Y-143395771D01*
X108481857Y-143395771D01*
X108386619Y-143348152D01*
X108339000Y-143300533D01*
X108291380Y-143205295D01*
X108291380Y-143014819D01*
X108339000Y-142919580D01*
X108386619Y-142871961D01*
X108481857Y-142824342D01*
X108529476Y-142824342D01*
X108624714Y-142871961D01*
X108672333Y-142919580D01*
X108719952Y-143014819D01*
X108719952Y-143205295D01*
X108767571Y-143300533D01*
X108815190Y-143348152D01*
X108910428Y-143395771D01*
X109100904Y-143395771D01*
X109196142Y-143348152D01*
X109243761Y-143300533D01*
X109291380Y-143205295D01*
X109291380Y-143014819D01*
X109243761Y-142919580D01*
X109196142Y-142871961D01*
X109100904Y-142824342D01*
X108910428Y-142824342D01*
X108815190Y-142871961D01*
X108767571Y-142919580D01*
X108719952Y-143014819D01*
X79812616Y-103330760D02*
X79812616Y-104045046D01*
X79764997Y-104187903D01*
X79669759Y-104283141D01*
X79526901Y-104330760D01*
X79431663Y-104330760D01*
X80812616Y-104330760D02*
X80241187Y-104330760D01*
X80526901Y-104330760D02*
X80526901Y-103330760D01*
X80431663Y-103473618D01*
X80336425Y-103568856D01*
X80241187Y-103616475D01*
X81669759Y-103330760D02*
X81479282Y-103330760D01*
X81384044Y-103378380D01*
X81336425Y-103425999D01*
X81241187Y-103568856D01*
X81193568Y-103759332D01*
X81193568Y-104140284D01*
X81241187Y-104235522D01*
X81288806Y-104283141D01*
X81384044Y-104330760D01*
X81574520Y-104330760D01*
X81669759Y-104283141D01*
X81717378Y-104235522D01*
X81764997Y-104140284D01*
X81764997Y-103902189D01*
X81717378Y-103806951D01*
X81669759Y-103759332D01*
X81574520Y-103711713D01*
X81384044Y-103711713D01*
X81288806Y-103759332D01*
X81241187Y-103806951D01*
X81193568Y-103902189D01*
X138941276Y-98595380D02*
X138941276Y-99309666D01*
X138893657Y-99452523D01*
X138798419Y-99547761D01*
X138655561Y-99595380D01*
X138560323Y-99595380D01*
X139941276Y-99595380D02*
X139369847Y-99595380D01*
X139655561Y-99595380D02*
X139655561Y-98595380D01*
X139560323Y-98738238D01*
X139465085Y-98833476D01*
X139369847Y-98881095D01*
X140846038Y-98595380D02*
X140369847Y-98595380D01*
X140322228Y-99071571D01*
X140369847Y-99023952D01*
X140465085Y-98976333D01*
X140703180Y-98976333D01*
X140798419Y-99023952D01*
X140846038Y-99071571D01*
X140893657Y-99166809D01*
X140893657Y-99404904D01*
X140846038Y-99500142D01*
X140798419Y-99547761D01*
X140703180Y-99595380D01*
X140465085Y-99595380D01*
X140369847Y-99547761D01*
X140322228Y-99500142D01*
X113706376Y-98633480D02*
X113706376Y-99347766D01*
X113658757Y-99490623D01*
X113563519Y-99585861D01*
X113420661Y-99633480D01*
X113325423Y-99633480D01*
X114706376Y-99633480D02*
X114134947Y-99633480D01*
X114420661Y-99633480D02*
X114420661Y-98633480D01*
X114325423Y-98776338D01*
X114230185Y-98871576D01*
X114134947Y-98919195D01*
X115563519Y-98966814D02*
X115563519Y-99633480D01*
X115325423Y-98585861D02*
X115087328Y-99300147D01*
X115706376Y-99300147D01*
X104322642Y-164446880D02*
X103989309Y-163970690D01*
X103751214Y-164446880D02*
X103751214Y-163446880D01*
X104132166Y-163446880D01*
X104227404Y-163494500D01*
X104275023Y-163542119D01*
X104322642Y-163637357D01*
X104322642Y-163780214D01*
X104275023Y-163875452D01*
X104227404Y-163923071D01*
X104132166Y-163970690D01*
X103751214Y-163970690D01*
X105275023Y-164446880D02*
X104703595Y-164446880D01*
X104989309Y-164446880D02*
X104989309Y-163446880D01*
X104894071Y-163589738D01*
X104798833Y-163684976D01*
X104703595Y-163732595D01*
X105608357Y-163446880D02*
X106227404Y-163446880D01*
X105894071Y-163827833D01*
X106036928Y-163827833D01*
X106132166Y-163875452D01*
X106179785Y-163923071D01*
X106227404Y-164018309D01*
X106227404Y-164256404D01*
X106179785Y-164351642D01*
X106132166Y-164399261D01*
X106036928Y-164446880D01*
X105751214Y-164446880D01*
X105655976Y-164399261D01*
X105608357Y-164351642D01*
X109186995Y-149195580D02*
X109186995Y-150005104D01*
X109234614Y-150100342D01*
X109282233Y-150147961D01*
X109377471Y-150195580D01*
X109567947Y-150195580D01*
X109663185Y-150147961D01*
X109710804Y-150100342D01*
X109758423Y-150005104D01*
X109758423Y-149195580D01*
X110758423Y-150195580D02*
X110186995Y-150195580D01*
X110472709Y-150195580D02*
X110472709Y-149195580D01*
X110377471Y-149338438D01*
X110282233Y-149433676D01*
X110186995Y-149481295D01*
X97001680Y-146069957D02*
X96525490Y-146403290D01*
X97001680Y-146641385D02*
X96001680Y-146641385D01*
X96001680Y-146260433D01*
X96049300Y-146165195D01*
X96096919Y-146117576D01*
X96192157Y-146069957D01*
X96335014Y-146069957D01*
X96430252Y-146117576D01*
X96477871Y-146165195D01*
X96525490Y-146260433D01*
X96525490Y-146641385D01*
X96096919Y-145689004D02*
X96049300Y-145641385D01*
X96001680Y-145546147D01*
X96001680Y-145308052D01*
X96049300Y-145212814D01*
X96096919Y-145165195D01*
X96192157Y-145117576D01*
X96287395Y-145117576D01*
X96430252Y-145165195D01*
X97001680Y-145736623D01*
X97001680Y-145117576D01*
X97001680Y-144165195D02*
X97001680Y-144736623D01*
X97001680Y-144450909D02*
X96001680Y-144450909D01*
X96144538Y-144546147D01*
X96239776Y-144641385D01*
X96287395Y-144736623D01*
X94657942Y-123832880D02*
X94324609Y-123356690D01*
X94086514Y-123832880D02*
X94086514Y-122832880D01*
X94467466Y-122832880D01*
X94562704Y-122880500D01*
X94610323Y-122928119D01*
X94657942Y-123023357D01*
X94657942Y-123166214D01*
X94610323Y-123261452D01*
X94562704Y-123309071D01*
X94467466Y-123356690D01*
X94086514Y-123356690D01*
X95038895Y-122928119D02*
X95086514Y-122880500D01*
X95181752Y-122832880D01*
X95419847Y-122832880D01*
X95515085Y-122880500D01*
X95562704Y-122928119D01*
X95610323Y-123023357D01*
X95610323Y-123118595D01*
X95562704Y-123261452D01*
X94991276Y-123832880D01*
X95610323Y-123832880D01*
X96229371Y-122832880D02*
X96324609Y-122832880D01*
X96419847Y-122880500D01*
X96467466Y-122928119D01*
X96515085Y-123023357D01*
X96562704Y-123213833D01*
X96562704Y-123451928D01*
X96515085Y-123642404D01*
X96467466Y-123737642D01*
X96419847Y-123785261D01*
X96324609Y-123832880D01*
X96229371Y-123832880D01*
X96134133Y-123785261D01*
X96086514Y-123737642D01*
X96038895Y-123642404D01*
X95991276Y-123451928D01*
X95991276Y-123213833D01*
X96038895Y-123023357D01*
X96086514Y-122928119D01*
X96134133Y-122880500D01*
X96229371Y-122832880D01*
X92447542Y-151941880D02*
X92114209Y-151465690D01*
X91876114Y-151941880D02*
X91876114Y-150941880D01*
X92257066Y-150941880D01*
X92352304Y-150989500D01*
X92399923Y-151037119D01*
X92447542Y-151132357D01*
X92447542Y-151275214D01*
X92399923Y-151370452D01*
X92352304Y-151418071D01*
X92257066Y-151465690D01*
X91876114Y-151465690D01*
X93399923Y-151941880D02*
X92828495Y-151941880D01*
X93114209Y-151941880D02*
X93114209Y-150941880D01*
X93018971Y-151084738D01*
X92923733Y-151179976D01*
X92828495Y-151227595D01*
X93876114Y-151941880D02*
X94066590Y-151941880D01*
X94161828Y-151894261D01*
X94209447Y-151846642D01*
X94304685Y-151703785D01*
X94352304Y-151513309D01*
X94352304Y-151132357D01*
X94304685Y-151037119D01*
X94257066Y-150989500D01*
X94161828Y-150941880D01*
X93971352Y-150941880D01*
X93876114Y-150989500D01*
X93828495Y-151037119D01*
X93780876Y-151132357D01*
X93780876Y-151370452D01*
X93828495Y-151465690D01*
X93876114Y-151513309D01*
X93971352Y-151560928D01*
X94161828Y-151560928D01*
X94257066Y-151513309D01*
X94304685Y-151465690D01*
X94352304Y-151370452D01*
X102242880Y-139745957D02*
X101766690Y-140079290D01*
X102242880Y-140317385D02*
X101242880Y-140317385D01*
X101242880Y-139936433D01*
X101290500Y-139841195D01*
X101338119Y-139793576D01*
X101433357Y-139745957D01*
X101576214Y-139745957D01*
X101671452Y-139793576D01*
X101719071Y-139841195D01*
X101766690Y-139936433D01*
X101766690Y-140317385D01*
X102242880Y-138793576D02*
X102242880Y-139365004D01*
X102242880Y-139079290D02*
X101242880Y-139079290D01*
X101385738Y-139174528D01*
X101480976Y-139269766D01*
X101528595Y-139365004D01*
X101671452Y-138222147D02*
X101623833Y-138317385D01*
X101576214Y-138365004D01*
X101480976Y-138412623D01*
X101433357Y-138412623D01*
X101338119Y-138365004D01*
X101290500Y-138317385D01*
X101242880Y-138222147D01*
X101242880Y-138031671D01*
X101290500Y-137936433D01*
X101338119Y-137888814D01*
X101433357Y-137841195D01*
X101480976Y-137841195D01*
X101576214Y-137888814D01*
X101623833Y-137936433D01*
X101671452Y-138031671D01*
X101671452Y-138222147D01*
X101719071Y-138317385D01*
X101766690Y-138365004D01*
X101861928Y-138412623D01*
X102052404Y-138412623D01*
X102147642Y-138365004D01*
X102195261Y-138317385D01*
X102242880Y-138222147D01*
X102242880Y-138031671D01*
X102195261Y-137936433D01*
X102147642Y-137888814D01*
X102052404Y-137841195D01*
X101861928Y-137841195D01*
X101766690Y-137888814D01*
X101719071Y-137936433D01*
X101671452Y-138031671D01*
X109456480Y-139745957D02*
X108980290Y-140079290D01*
X109456480Y-140317385D02*
X108456480Y-140317385D01*
X108456480Y-139936433D01*
X108504100Y-139841195D01*
X108551719Y-139793576D01*
X108646957Y-139745957D01*
X108789814Y-139745957D01*
X108885052Y-139793576D01*
X108932671Y-139841195D01*
X108980290Y-139936433D01*
X108980290Y-140317385D01*
X109456480Y-138793576D02*
X109456480Y-139365004D01*
X109456480Y-139079290D02*
X108456480Y-139079290D01*
X108599338Y-139174528D01*
X108694576Y-139269766D01*
X108742195Y-139365004D01*
X108456480Y-138460242D02*
X108456480Y-137793576D01*
X109456480Y-138222147D01*
X132923042Y-164116680D02*
X132589709Y-163640490D01*
X132351614Y-164116680D02*
X132351614Y-163116680D01*
X132732566Y-163116680D01*
X132827804Y-163164300D01*
X132875423Y-163211919D01*
X132923042Y-163307157D01*
X132923042Y-163450014D01*
X132875423Y-163545252D01*
X132827804Y-163592871D01*
X132732566Y-163640490D01*
X132351614Y-163640490D01*
X133875423Y-164116680D02*
X133303995Y-164116680D01*
X133589709Y-164116680D02*
X133589709Y-163116680D01*
X133494471Y-163259538D01*
X133399233Y-163354776D01*
X133303995Y-163402395D01*
X134732566Y-163116680D02*
X134542090Y-163116680D01*
X134446852Y-163164300D01*
X134399233Y-163211919D01*
X134303995Y-163354776D01*
X134256376Y-163545252D01*
X134256376Y-163926204D01*
X134303995Y-164021442D01*
X134351614Y-164069061D01*
X134446852Y-164116680D01*
X134637328Y-164116680D01*
X134732566Y-164069061D01*
X134780185Y-164021442D01*
X134827804Y-163926204D01*
X134827804Y-163688109D01*
X134780185Y-163592871D01*
X134732566Y-163545252D01*
X134637328Y-163497633D01*
X134446852Y-163497633D01*
X134351614Y-163545252D01*
X134303995Y-163592871D01*
X134256376Y-163688109D01*
X111714042Y-164319280D02*
X111380709Y-163843090D01*
X111142614Y-164319280D02*
X111142614Y-163319280D01*
X111523566Y-163319280D01*
X111618804Y-163366900D01*
X111666423Y-163414519D01*
X111714042Y-163509757D01*
X111714042Y-163652614D01*
X111666423Y-163747852D01*
X111618804Y-163795471D01*
X111523566Y-163843090D01*
X111142614Y-163843090D01*
X112666423Y-164319280D02*
X112094995Y-164319280D01*
X112380709Y-164319280D02*
X112380709Y-163319280D01*
X112285471Y-163462138D01*
X112190233Y-163557376D01*
X112094995Y-163604995D01*
X113571185Y-163319280D02*
X113094995Y-163319280D01*
X113047376Y-163795471D01*
X113094995Y-163747852D01*
X113190233Y-163700233D01*
X113428328Y-163700233D01*
X113523566Y-163747852D01*
X113571185Y-163795471D01*
X113618804Y-163890709D01*
X113618804Y-164128804D01*
X113571185Y-164224042D01*
X113523566Y-164271661D01*
X113428328Y-164319280D01*
X113190233Y-164319280D01*
X113094995Y-164271661D01*
X113047376Y-164224042D01*
X118838742Y-164383980D02*
X118505409Y-163907790D01*
X118267314Y-164383980D02*
X118267314Y-163383980D01*
X118648266Y-163383980D01*
X118743504Y-163431600D01*
X118791123Y-163479219D01*
X118838742Y-163574457D01*
X118838742Y-163717314D01*
X118791123Y-163812552D01*
X118743504Y-163860171D01*
X118648266Y-163907790D01*
X118267314Y-163907790D01*
X119791123Y-164383980D02*
X119219695Y-164383980D01*
X119505409Y-164383980D02*
X119505409Y-163383980D01*
X119410171Y-163526838D01*
X119314933Y-163622076D01*
X119219695Y-163669695D01*
X120648266Y-163717314D02*
X120648266Y-164383980D01*
X120410171Y-163336361D02*
X120172076Y-164050647D01*
X120791123Y-164050647D01*
X122356642Y-164460780D02*
X122023309Y-163984590D01*
X121785214Y-164460780D02*
X121785214Y-163460780D01*
X122166166Y-163460780D01*
X122261404Y-163508400D01*
X122309023Y-163556019D01*
X122356642Y-163651257D01*
X122356642Y-163794114D01*
X122309023Y-163889352D01*
X122261404Y-163936971D01*
X122166166Y-163984590D01*
X121785214Y-163984590D01*
X123309023Y-164460780D02*
X122737595Y-164460780D01*
X123023309Y-164460780D02*
X123023309Y-163460780D01*
X122928071Y-163603638D01*
X122832833Y-163698876D01*
X122737595Y-163746495D01*
X123689976Y-163556019D02*
X123737595Y-163508400D01*
X123832833Y-163460780D01*
X124070928Y-163460780D01*
X124166166Y-163508400D01*
X124213785Y-163556019D01*
X124261404Y-163651257D01*
X124261404Y-163746495D01*
X124213785Y-163889352D01*
X123642357Y-164460780D01*
X124261404Y-164460780D01*
X126344442Y-164383980D02*
X126011109Y-163907790D01*
X125773014Y-164383980D02*
X125773014Y-163383980D01*
X126153966Y-163383980D01*
X126249204Y-163431600D01*
X126296823Y-163479219D01*
X126344442Y-163574457D01*
X126344442Y-163717314D01*
X126296823Y-163812552D01*
X126249204Y-163860171D01*
X126153966Y-163907790D01*
X125773014Y-163907790D01*
X127296823Y-164383980D02*
X126725395Y-164383980D01*
X127011109Y-164383980D02*
X127011109Y-163383980D01*
X126915871Y-163526838D01*
X126820633Y-163622076D01*
X126725395Y-163669695D01*
X128249204Y-164383980D02*
X127677776Y-164383980D01*
X127963490Y-164383980D02*
X127963490Y-163383980D01*
X127868252Y-163526838D01*
X127773014Y-163622076D01*
X127677776Y-163669695D01*
X115181142Y-164358580D02*
X114847809Y-163882390D01*
X114609714Y-164358580D02*
X114609714Y-163358580D01*
X114990666Y-163358580D01*
X115085904Y-163406200D01*
X115133523Y-163453819D01*
X115181142Y-163549057D01*
X115181142Y-163691914D01*
X115133523Y-163787152D01*
X115085904Y-163834771D01*
X114990666Y-163882390D01*
X114609714Y-163882390D01*
X116133523Y-164358580D02*
X115562095Y-164358580D01*
X115847809Y-164358580D02*
X115847809Y-163358580D01*
X115752571Y-163501438D01*
X115657333Y-163596676D01*
X115562095Y-163644295D01*
X116752571Y-163358580D02*
X116847809Y-163358580D01*
X116943047Y-163406200D01*
X116990666Y-163453819D01*
X117038285Y-163549057D01*
X117085904Y-163739533D01*
X117085904Y-163977628D01*
X117038285Y-164168104D01*
X116990666Y-164263342D01*
X116943047Y-164310961D01*
X116847809Y-164358580D01*
X116752571Y-164358580D01*
X116657333Y-164310961D01*
X116609714Y-164263342D01*
X116562095Y-164168104D01*
X116514476Y-163977628D01*
X116514476Y-163739533D01*
X116562095Y-163549057D01*
X116609714Y-163453819D01*
X116657333Y-163406200D01*
X116752571Y-163358580D01*
X101217433Y-164396680D02*
X100884100Y-163920490D01*
X100646004Y-164396680D02*
X100646004Y-163396680D01*
X101026957Y-163396680D01*
X101122195Y-163444300D01*
X101169814Y-163491919D01*
X101217433Y-163587157D01*
X101217433Y-163730014D01*
X101169814Y-163825252D01*
X101122195Y-163872871D01*
X101026957Y-163920490D01*
X100646004Y-163920490D01*
X101693623Y-164396680D02*
X101884100Y-164396680D01*
X101979338Y-164349061D01*
X102026957Y-164301442D01*
X102122195Y-164158585D01*
X102169814Y-163968109D01*
X102169814Y-163587157D01*
X102122195Y-163491919D01*
X102074576Y-163444300D01*
X101979338Y-163396680D01*
X101788861Y-163396680D01*
X101693623Y-163444300D01*
X101646004Y-163491919D01*
X101598385Y-163587157D01*
X101598385Y-163825252D01*
X101646004Y-163920490D01*
X101693623Y-163968109D01*
X101788861Y-164015728D01*
X101979338Y-164015728D01*
X102074576Y-163968109D01*
X102122195Y-163920490D01*
X102169814Y-163825252D01*
X108380233Y-164471680D02*
X108046900Y-163995490D01*
X107808804Y-164471680D02*
X107808804Y-163471680D01*
X108189757Y-163471680D01*
X108284995Y-163519300D01*
X108332614Y-163566919D01*
X108380233Y-163662157D01*
X108380233Y-163805014D01*
X108332614Y-163900252D01*
X108284995Y-163947871D01*
X108189757Y-163995490D01*
X107808804Y-163995490D01*
X108951661Y-163900252D02*
X108856423Y-163852633D01*
X108808804Y-163805014D01*
X108761185Y-163709776D01*
X108761185Y-163662157D01*
X108808804Y-163566919D01*
X108856423Y-163519300D01*
X108951661Y-163471680D01*
X109142138Y-163471680D01*
X109237376Y-163519300D01*
X109284995Y-163566919D01*
X109332614Y-163662157D01*
X109332614Y-163709776D01*
X109284995Y-163805014D01*
X109237376Y-163852633D01*
X109142138Y-163900252D01*
X108951661Y-163900252D01*
X108856423Y-163947871D01*
X108808804Y-163995490D01*
X108761185Y-164090728D01*
X108761185Y-164281204D01*
X108808804Y-164376442D01*
X108856423Y-164424061D01*
X108951661Y-164471680D01*
X109142138Y-164471680D01*
X109237376Y-164424061D01*
X109284995Y-164376442D01*
X109332614Y-164281204D01*
X109332614Y-164090728D01*
X109284995Y-163995490D01*
X109237376Y-163947871D01*
X109142138Y-163900252D01*
X79500433Y-164574480D02*
X79167100Y-164098290D01*
X78929004Y-164574480D02*
X78929004Y-163574480D01*
X79309957Y-163574480D01*
X79405195Y-163622100D01*
X79452814Y-163669719D01*
X79500433Y-163764957D01*
X79500433Y-163907814D01*
X79452814Y-164003052D01*
X79405195Y-164050671D01*
X79309957Y-164098290D01*
X78929004Y-164098290D01*
X79833766Y-163574480D02*
X80500433Y-163574480D01*
X80071861Y-164574480D01*
X94181633Y-164689980D02*
X93848300Y-164213790D01*
X93610204Y-164689980D02*
X93610204Y-163689980D01*
X93991157Y-163689980D01*
X94086395Y-163737600D01*
X94134014Y-163785219D01*
X94181633Y-163880457D01*
X94181633Y-164023314D01*
X94134014Y-164118552D01*
X94086395Y-164166171D01*
X93991157Y-164213790D01*
X93610204Y-164213790D01*
X95038776Y-163689980D02*
X94848300Y-163689980D01*
X94753061Y-163737600D01*
X94705442Y-163785219D01*
X94610204Y-163928076D01*
X94562585Y-164118552D01*
X94562585Y-164499504D01*
X94610204Y-164594742D01*
X94657823Y-164642361D01*
X94753061Y-164689980D01*
X94943538Y-164689980D01*
X95038776Y-164642361D01*
X95086395Y-164594742D01*
X95134014Y-164499504D01*
X95134014Y-164261409D01*
X95086395Y-164166171D01*
X95038776Y-164118552D01*
X94943538Y-164070933D01*
X94753061Y-164070933D01*
X94657823Y-164118552D01*
X94610204Y-164166171D01*
X94562585Y-164261409D01*
X97851933Y-164574480D02*
X97518600Y-164098290D01*
X97280504Y-164574480D02*
X97280504Y-163574480D01*
X97661457Y-163574480D01*
X97756695Y-163622100D01*
X97804314Y-163669719D01*
X97851933Y-163764957D01*
X97851933Y-163907814D01*
X97804314Y-164003052D01*
X97756695Y-164050671D01*
X97661457Y-164098290D01*
X97280504Y-164098290D01*
X98756695Y-163574480D02*
X98280504Y-163574480D01*
X98232885Y-164050671D01*
X98280504Y-164003052D01*
X98375742Y-163955433D01*
X98613838Y-163955433D01*
X98709076Y-164003052D01*
X98756695Y-164050671D01*
X98804314Y-164145909D01*
X98804314Y-164384004D01*
X98756695Y-164479242D01*
X98709076Y-164526861D01*
X98613838Y-164574480D01*
X98375742Y-164574480D01*
X98280504Y-164526861D01*
X98232885Y-164479242D01*
X129919433Y-164281780D02*
X129586100Y-163805590D01*
X129348004Y-164281780D02*
X129348004Y-163281780D01*
X129728957Y-163281780D01*
X129824195Y-163329400D01*
X129871814Y-163377019D01*
X129919433Y-163472257D01*
X129919433Y-163615114D01*
X129871814Y-163710352D01*
X129824195Y-163757971D01*
X129728957Y-163805590D01*
X129348004Y-163805590D01*
X130776576Y-163615114D02*
X130776576Y-164281780D01*
X130538480Y-163234161D02*
X130300385Y-163948447D01*
X130919433Y-163948447D01*
X83335833Y-164764980D02*
X83002500Y-164288790D01*
X82764404Y-164764980D02*
X82764404Y-163764980D01*
X83145357Y-163764980D01*
X83240595Y-163812600D01*
X83288214Y-163860219D01*
X83335833Y-163955457D01*
X83335833Y-164098314D01*
X83288214Y-164193552D01*
X83240595Y-164241171D01*
X83145357Y-164288790D01*
X82764404Y-164288790D01*
X83669166Y-163764980D02*
X84288214Y-163764980D01*
X83954880Y-164145933D01*
X84097738Y-164145933D01*
X84192976Y-164193552D01*
X84240595Y-164241171D01*
X84288214Y-164336409D01*
X84288214Y-164574504D01*
X84240595Y-164669742D01*
X84192976Y-164717361D01*
X84097738Y-164764980D01*
X83812023Y-164764980D01*
X83716785Y-164717361D01*
X83669166Y-164669742D01*
X90549433Y-164701480D02*
X90216100Y-164225290D01*
X89978004Y-164701480D02*
X89978004Y-163701480D01*
X90358957Y-163701480D01*
X90454195Y-163749100D01*
X90501814Y-163796719D01*
X90549433Y-163891957D01*
X90549433Y-164034814D01*
X90501814Y-164130052D01*
X90454195Y-164177671D01*
X90358957Y-164225290D01*
X89978004Y-164225290D01*
X90930385Y-163796719D02*
X90978004Y-163749100D01*
X91073242Y-163701480D01*
X91311338Y-163701480D01*
X91406576Y-163749100D01*
X91454195Y-163796719D01*
X91501814Y-163891957D01*
X91501814Y-163987195D01*
X91454195Y-164130052D01*
X90882766Y-164701480D01*
X91501814Y-164701480D01*
X86802933Y-164701480D02*
X86469600Y-164225290D01*
X86231504Y-164701480D02*
X86231504Y-163701480D01*
X86612457Y-163701480D01*
X86707695Y-163749100D01*
X86755314Y-163796719D01*
X86802933Y-163891957D01*
X86802933Y-164034814D01*
X86755314Y-164130052D01*
X86707695Y-164177671D01*
X86612457Y-164225290D01*
X86231504Y-164225290D01*
X87755314Y-164701480D02*
X87183885Y-164701480D01*
X87469600Y-164701480D02*
X87469600Y-163701480D01*
X87374361Y-163844338D01*
X87279123Y-163939576D01*
X87183885Y-163987195D01*
X94766141Y-126447799D02*
X94670903Y-126400180D01*
X94575665Y-126304941D01*
X94432808Y-126162084D01*
X94337570Y-126114465D01*
X94242332Y-126114465D01*
X94289951Y-126352560D02*
X94194713Y-126304941D01*
X94099475Y-126209703D01*
X94051856Y-126019227D01*
X94051856Y-125685894D01*
X94099475Y-125495418D01*
X94194713Y-125400180D01*
X94289951Y-125352560D01*
X94480427Y-125352560D01*
X94575665Y-125400180D01*
X94670903Y-125495418D01*
X94718522Y-125685894D01*
X94718522Y-126019227D01*
X94670903Y-126209703D01*
X94575665Y-126304941D01*
X94480427Y-126352560D01*
X94289951Y-126352560D01*
X95670903Y-126352560D02*
X95099475Y-126352560D01*
X95385189Y-126352560D02*
X95385189Y-125352560D01*
X95289951Y-125495418D01*
X95194713Y-125590656D01*
X95099475Y-125638275D01*
X82180180Y-112480623D02*
X82894466Y-112480623D01*
X83037323Y-112528242D01*
X83132561Y-112623480D01*
X83180180Y-112766338D01*
X83180180Y-112861576D01*
X83180180Y-111480623D02*
X83180180Y-112052052D01*
X83180180Y-111766338D02*
X82180180Y-111766338D01*
X82323038Y-111861576D01*
X82418276Y-111956814D01*
X82465895Y-112052052D01*
X82275419Y-111099671D02*
X82227800Y-111052052D01*
X82180180Y-110956814D01*
X82180180Y-110718719D01*
X82227800Y-110623480D01*
X82275419Y-110575861D01*
X82370657Y-110528242D01*
X82465895Y-110528242D01*
X82608752Y-110575861D01*
X83180180Y-111147290D01*
X83180180Y-110528242D01*
X103564004Y-121572280D02*
X103564004Y-120572280D01*
X103802100Y-120572280D01*
X103944957Y-120619900D01*
X104040195Y-120715138D01*
X104087814Y-120810376D01*
X104135433Y-121000852D01*
X104135433Y-121143709D01*
X104087814Y-121334185D01*
X104040195Y-121429423D01*
X103944957Y-121524661D01*
X103802100Y-121572280D01*
X103564004Y-121572280D01*
X104516385Y-120667519D02*
X104564004Y-120619900D01*
X104659242Y-120572280D01*
X104897338Y-120572280D01*
X104992576Y-120619900D01*
X105040195Y-120667519D01*
X105087814Y-120762757D01*
X105087814Y-120857995D01*
X105040195Y-121000852D01*
X104468766Y-121572280D01*
X105087814Y-121572280D01*
X91013404Y-156141680D02*
X91013404Y-155141680D01*
X91251500Y-155141680D01*
X91394357Y-155189300D01*
X91489595Y-155284538D01*
X91537214Y-155379776D01*
X91584833Y-155570252D01*
X91584833Y-155713109D01*
X91537214Y-155903585D01*
X91489595Y-155998823D01*
X91394357Y-156094061D01*
X91251500Y-156141680D01*
X91013404Y-156141680D01*
X92537214Y-156141680D02*
X91965785Y-156141680D01*
X92251500Y-156141680D02*
X92251500Y-155141680D01*
X92156261Y-155284538D01*
X92061023Y-155379776D01*
X91965785Y-155427395D01*
%LPC*%
D14*
X84264500Y-100317300D03*
X86804500Y-100317300D03*
X89344500Y-100317300D03*
X91884500Y-100317300D03*
X94424500Y-100317300D03*
X96964500Y-100317300D03*
X99504500Y-100317300D03*
X102044500Y-100317300D03*
X104584500Y-100317300D03*
X107124500Y-100317300D03*
D15*
X109664500Y-100317300D03*
G36*
G01*
X138485900Y-157623600D02*
X138485900Y-156523600D01*
G75*
G02*
X138735900Y-156273600I250000J0D01*
G01*
X141735900Y-156273600D01*
G75*
G02*
X141985900Y-156523600I0J-250000D01*
G01*
X141985900Y-157623600D01*
G75*
G02*
X141735900Y-157873600I-250000J0D01*
G01*
X138735900Y-157873600D01*
G75*
G02*
X138485900Y-157623600I0J250000D01*
G01*
G37*
G36*
G01*
X133085900Y-157623600D02*
X133085900Y-156523600D01*
G75*
G02*
X133335900Y-156273600I250000J0D01*
G01*
X136335900Y-156273600D01*
G75*
G02*
X136585900Y-156523600I0J-250000D01*
G01*
X136585900Y-157623600D01*
G75*
G02*
X136335900Y-157873600I-250000J0D01*
G01*
X133335900Y-157873600D01*
G75*
G02*
X133085900Y-157623600I0J250000D01*
G01*
G37*
G36*
G01*
X86046400Y-147800000D02*
X84946400Y-147800000D01*
G75*
G02*
X84696400Y-147550000I0J250000D01*
G01*
X84696400Y-144550000D01*
G75*
G02*
X84946400Y-144300000I250000J0D01*
G01*
X86046400Y-144300000D01*
G75*
G02*
X86296400Y-144550000I0J-250000D01*
G01*
X86296400Y-147550000D01*
G75*
G02*
X86046400Y-147800000I-250000J0D01*
G01*
G37*
G36*
G01*
X86046400Y-153200000D02*
X84946400Y-153200000D01*
G75*
G02*
X84696400Y-152950000I0J250000D01*
G01*
X84696400Y-149950000D01*
G75*
G02*
X84946400Y-149700000I250000J0D01*
G01*
X86046400Y-149700000D01*
G75*
G02*
X86296400Y-149950000I0J-250000D01*
G01*
X86296400Y-152950000D01*
G75*
G02*
X86046400Y-153200000I-250000J0D01*
G01*
G37*
G36*
G01*
X140383100Y-167929800D02*
X141633100Y-167929800D01*
G75*
G02*
X141883100Y-168179800I0J-250000D01*
G01*
X141883100Y-168979800D01*
G75*
G02*
X141633100Y-169229800I-250000J0D01*
G01*
X140383100Y-169229800D01*
G75*
G02*
X140133100Y-168979800I0J250000D01*
G01*
X140133100Y-168179800D01*
G75*
G02*
X140383100Y-167929800I250000J0D01*
G01*
G37*
G36*
G01*
X140383100Y-164829800D02*
X141633100Y-164829800D01*
G75*
G02*
X141883100Y-165079800I0J-250000D01*
G01*
X141883100Y-165879800D01*
G75*
G02*
X141633100Y-166129800I-250000J0D01*
G01*
X140383100Y-166129800D01*
G75*
G02*
X140133100Y-165879800I0J250000D01*
G01*
X140133100Y-165079800D01*
G75*
G02*
X140383100Y-164829800I250000J0D01*
G01*
G37*
G36*
G01*
X137924700Y-166117700D02*
X136674700Y-166117700D01*
G75*
G02*
X136424700Y-165867700I0J250000D01*
G01*
X136424700Y-165067700D01*
G75*
G02*
X136674700Y-164817700I250000J0D01*
G01*
X137924700Y-164817700D01*
G75*
G02*
X138174700Y-165067700I0J-250000D01*
G01*
X138174700Y-165867700D01*
G75*
G02*
X137924700Y-166117700I-250000J0D01*
G01*
G37*
G36*
G01*
X137924700Y-169217700D02*
X136674700Y-169217700D01*
G75*
G02*
X136424700Y-168967700I0J250000D01*
G01*
X136424700Y-168167700D01*
G75*
G02*
X136674700Y-167917700I250000J0D01*
G01*
X137924700Y-167917700D01*
G75*
G02*
X138174700Y-168167700I0J-250000D01*
G01*
X138174700Y-168967700D01*
G75*
G02*
X137924700Y-169217700I-250000J0D01*
G01*
G37*
D14*
X97802700Y-178803300D03*
X97802700Y-176263300D03*
D15*
X97802700Y-173723300D03*
D14*
X115785900Y-178828700D03*
X115785900Y-176288700D03*
D15*
X115785900Y-173748700D03*
D14*
X108597700Y-178803300D03*
X108597700Y-176263300D03*
D15*
X108597700Y-173723300D03*
D14*
X119380000Y-178816000D03*
X119380000Y-176276000D03*
D15*
X119380000Y-173736000D03*
D14*
X104990900Y-178790600D03*
X104990900Y-176250600D03*
D15*
X104990900Y-173710600D03*
D14*
X94208600Y-178803300D03*
X94208600Y-176263300D03*
D15*
X94208600Y-173723300D03*
D14*
X140957300Y-178803300D03*
X140957300Y-176263300D03*
D15*
X140957300Y-173723300D03*
D14*
X137363200Y-178803300D03*
X137363200Y-176263300D03*
D15*
X137363200Y-173723300D03*
D14*
X83451700Y-178803300D03*
X83451700Y-176263300D03*
D15*
X83451700Y-173723300D03*
D14*
X112191800Y-178816000D03*
X112191800Y-176276000D03*
D15*
X112191800Y-173736000D03*
D14*
X122974100Y-178816000D03*
X122974100Y-176276000D03*
D15*
X122974100Y-173736000D03*
D14*
X101409500Y-178790600D03*
X101409500Y-176250600D03*
D15*
X101409500Y-173710600D03*
D14*
X90614500Y-178803300D03*
X90614500Y-176263300D03*
D15*
X90614500Y-173723300D03*
D14*
X126542800Y-178816000D03*
X126542800Y-176276000D03*
D15*
X126542800Y-173736000D03*
D14*
X130149600Y-178816000D03*
X130149600Y-176276000D03*
D15*
X130149600Y-173736000D03*
D14*
X133756400Y-178816000D03*
X133756400Y-176276000D03*
D15*
X133756400Y-173736000D03*
D14*
X79857600Y-178803300D03*
X79857600Y-176263300D03*
D15*
X79857600Y-173723300D03*
D14*
X87033100Y-178803300D03*
X87033100Y-176263300D03*
D15*
X87033100Y-173723300D03*
G36*
G01*
X104042340Y-113478220D02*
X104042340Y-114578220D01*
G75*
G02*
X103792340Y-114828220I-250000J0D01*
G01*
X101292340Y-114828220D01*
G75*
G02*
X101042340Y-114578220I0J250000D01*
G01*
X101042340Y-113478220D01*
G75*
G02*
X101292340Y-113228220I250000J0D01*
G01*
X103792340Y-113228220D01*
G75*
G02*
X104042340Y-113478220I0J-250000D01*
G01*
G37*
G36*
G01*
X108442340Y-113478220D02*
X108442340Y-114578220D01*
G75*
G02*
X108192340Y-114828220I-250000J0D01*
G01*
X105692340Y-114828220D01*
G75*
G02*
X105442340Y-114578220I0J250000D01*
G01*
X105442340Y-113478220D01*
G75*
G02*
X105692340Y-113228220I250000J0D01*
G01*
X108192340Y-113228220D01*
G75*
G02*
X108442340Y-113478220I0J-250000D01*
G01*
G37*
G36*
G01*
X95822900Y-115756600D02*
X95822900Y-116856600D01*
G75*
G02*
X95572900Y-117106600I-250000J0D01*
G01*
X93072900Y-117106600D01*
G75*
G02*
X92822900Y-116856600I0J250000D01*
G01*
X92822900Y-115756600D01*
G75*
G02*
X93072900Y-115506600I250000J0D01*
G01*
X95572900Y-115506600D01*
G75*
G02*
X95822900Y-115756600I0J-250000D01*
G01*
G37*
G36*
G01*
X100222900Y-115756600D02*
X100222900Y-116856600D01*
G75*
G02*
X99972900Y-117106600I-250000J0D01*
G01*
X97472900Y-117106600D01*
G75*
G02*
X97222900Y-116856600I0J250000D01*
G01*
X97222900Y-115756600D01*
G75*
G02*
X97472900Y-115506600I250000J0D01*
G01*
X99972900Y-115506600D01*
G75*
G02*
X100222900Y-115756600I0J-250000D01*
G01*
G37*
D14*
X103987600Y-143979900D03*
D15*
X106527600Y-143979900D03*
D14*
X84264500Y-103987600D03*
X86804500Y-103987600D03*
X89344500Y-103987600D03*
X91884500Y-103987600D03*
X94424500Y-103987600D03*
X96964500Y-103987600D03*
X99504500Y-103987600D03*
X102044500Y-103987600D03*
X104584500Y-103987600D03*
X107124500Y-103987600D03*
D15*
X109664500Y-103987600D03*
D14*
X139750800Y-137033000D03*
X139750800Y-134493000D03*
X139750800Y-131953000D03*
X139750800Y-129413000D03*
X139750800Y-126873000D03*
X139750800Y-124333000D03*
X139750800Y-121793000D03*
X139750800Y-119253000D03*
X139750800Y-116713000D03*
X139750800Y-114173000D03*
X139750800Y-111633000D03*
X139750800Y-109093000D03*
X139750800Y-106553000D03*
X139750800Y-104013000D03*
D15*
X139750800Y-101473000D03*
X114515900Y-101511100D03*
D14*
X114515900Y-104051100D03*
X114515900Y-106591100D03*
X114515900Y-109131100D03*
X114515900Y-111671100D03*
X114515900Y-114211100D03*
X114515900Y-116751100D03*
X114515900Y-119291100D03*
X114515900Y-121831100D03*
X114515900Y-124371100D03*
X114515900Y-126911100D03*
X114515900Y-129451100D03*
X114515900Y-131991100D03*
X114515900Y-134531100D03*
X114515900Y-137071100D03*
G36*
G01*
X104391300Y-168120300D02*
X105641300Y-168120300D01*
G75*
G02*
X105891300Y-168370300I0J-250000D01*
G01*
X105891300Y-169170300D01*
G75*
G02*
X105641300Y-169420300I-250000J0D01*
G01*
X104391300Y-169420300D01*
G75*
G02*
X104141300Y-169170300I0J250000D01*
G01*
X104141300Y-168370300D01*
G75*
G02*
X104391300Y-168120300I250000J0D01*
G01*
G37*
G36*
G01*
X104391300Y-165020300D02*
X105641300Y-165020300D01*
G75*
G02*
X105891300Y-165270300I0J-250000D01*
G01*
X105891300Y-166070300D01*
G75*
G02*
X105641300Y-166320300I-250000J0D01*
G01*
X104391300Y-166320300D01*
G75*
G02*
X104141300Y-166070300I0J250000D01*
G01*
X104141300Y-165270300D01*
G75*
G02*
X104391300Y-165020300I250000J0D01*
G01*
G37*
G36*
G01*
X112073900Y-151418200D02*
X112073900Y-151218200D01*
G75*
G02*
X112173900Y-151118200I100000J0D01*
G01*
X113448900Y-151118200D01*
G75*
G02*
X113548900Y-151218200I0J-100000D01*
G01*
X113548900Y-151418200D01*
G75*
G02*
X113448900Y-151518200I-100000J0D01*
G01*
X112173900Y-151518200D01*
G75*
G02*
X112073900Y-151418200I0J100000D01*
G01*
G37*
G36*
G01*
X112073900Y-152068200D02*
X112073900Y-151868200D01*
G75*
G02*
X112173900Y-151768200I100000J0D01*
G01*
X113448900Y-151768200D01*
G75*
G02*
X113548900Y-151868200I0J-100000D01*
G01*
X113548900Y-152068200D01*
G75*
G02*
X113448900Y-152168200I-100000J0D01*
G01*
X112173900Y-152168200D01*
G75*
G02*
X112073900Y-152068200I0J100000D01*
G01*
G37*
G36*
G01*
X112073900Y-152718200D02*
X112073900Y-152518200D01*
G75*
G02*
X112173900Y-152418200I100000J0D01*
G01*
X113448900Y-152418200D01*
G75*
G02*
X113548900Y-152518200I0J-100000D01*
G01*
X113548900Y-152718200D01*
G75*
G02*
X113448900Y-152818200I-100000J0D01*
G01*
X112173900Y-152818200D01*
G75*
G02*
X112073900Y-152718200I0J100000D01*
G01*
G37*
G36*
G01*
X112073900Y-153368200D02*
X112073900Y-153168200D01*
G75*
G02*
X112173900Y-153068200I100000J0D01*
G01*
X113448900Y-153068200D01*
G75*
G02*
X113548900Y-153168200I0J-100000D01*
G01*
X113548900Y-153368200D01*
G75*
G02*
X113448900Y-153468200I-100000J0D01*
G01*
X112173900Y-153468200D01*
G75*
G02*
X112073900Y-153368200I0J100000D01*
G01*
G37*
G36*
G01*
X112073900Y-154018200D02*
X112073900Y-153818200D01*
G75*
G02*
X112173900Y-153718200I100000J0D01*
G01*
X113448900Y-153718200D01*
G75*
G02*
X113548900Y-153818200I0J-100000D01*
G01*
X113548900Y-154018200D01*
G75*
G02*
X113448900Y-154118200I-100000J0D01*
G01*
X112173900Y-154118200D01*
G75*
G02*
X112073900Y-154018200I0J100000D01*
G01*
G37*
G36*
G01*
X112073900Y-154668200D02*
X112073900Y-154468200D01*
G75*
G02*
X112173900Y-154368200I100000J0D01*
G01*
X113448900Y-154368200D01*
G75*
G02*
X113548900Y-154468200I0J-100000D01*
G01*
X113548900Y-154668200D01*
G75*
G02*
X113448900Y-154768200I-100000J0D01*
G01*
X112173900Y-154768200D01*
G75*
G02*
X112073900Y-154668200I0J100000D01*
G01*
G37*
G36*
G01*
X112073900Y-155318200D02*
X112073900Y-155118200D01*
G75*
G02*
X112173900Y-155018200I100000J0D01*
G01*
X113448900Y-155018200D01*
G75*
G02*
X113548900Y-155118200I0J-100000D01*
G01*
X113548900Y-155318200D01*
G75*
G02*
X113448900Y-155418200I-100000J0D01*
G01*
X112173900Y-155418200D01*
G75*
G02*
X112073900Y-155318200I0J100000D01*
G01*
G37*
G36*
G01*
X112073900Y-155968200D02*
X112073900Y-155768200D01*
G75*
G02*
X112173900Y-155668200I100000J0D01*
G01*
X113448900Y-155668200D01*
G75*
G02*
X113548900Y-155768200I0J-100000D01*
G01*
X113548900Y-155968200D01*
G75*
G02*
X113448900Y-156068200I-100000J0D01*
G01*
X112173900Y-156068200D01*
G75*
G02*
X112073900Y-155968200I0J100000D01*
G01*
G37*
G36*
G01*
X112073900Y-156618200D02*
X112073900Y-156418200D01*
G75*
G02*
X112173900Y-156318200I100000J0D01*
G01*
X113448900Y-156318200D01*
G75*
G02*
X113548900Y-156418200I0J-100000D01*
G01*
X113548900Y-156618200D01*
G75*
G02*
X113448900Y-156718200I-100000J0D01*
G01*
X112173900Y-156718200D01*
G75*
G02*
X112073900Y-156618200I0J100000D01*
G01*
G37*
G36*
G01*
X112073900Y-157268200D02*
X112073900Y-157068200D01*
G75*
G02*
X112173900Y-156968200I100000J0D01*
G01*
X113448900Y-156968200D01*
G75*
G02*
X113548900Y-157068200I0J-100000D01*
G01*
X113548900Y-157268200D01*
G75*
G02*
X113448900Y-157368200I-100000J0D01*
G01*
X112173900Y-157368200D01*
G75*
G02*
X112073900Y-157268200I0J100000D01*
G01*
G37*
G36*
G01*
X112073900Y-157918200D02*
X112073900Y-157718200D01*
G75*
G02*
X112173900Y-157618200I100000J0D01*
G01*
X113448900Y-157618200D01*
G75*
G02*
X113548900Y-157718200I0J-100000D01*
G01*
X113548900Y-157918200D01*
G75*
G02*
X113448900Y-158018200I-100000J0D01*
G01*
X112173900Y-158018200D01*
G75*
G02*
X112073900Y-157918200I0J100000D01*
G01*
G37*
G36*
G01*
X112073900Y-158568200D02*
X112073900Y-158368200D01*
G75*
G02*
X112173900Y-158268200I100000J0D01*
G01*
X113448900Y-158268200D01*
G75*
G02*
X113548900Y-158368200I0J-100000D01*
G01*
X113548900Y-158568200D01*
G75*
G02*
X113448900Y-158668200I-100000J0D01*
G01*
X112173900Y-158668200D01*
G75*
G02*
X112073900Y-158568200I0J100000D01*
G01*
G37*
G36*
G01*
X112073900Y-159218200D02*
X112073900Y-159018200D01*
G75*
G02*
X112173900Y-158918200I100000J0D01*
G01*
X113448900Y-158918200D01*
G75*
G02*
X113548900Y-159018200I0J-100000D01*
G01*
X113548900Y-159218200D01*
G75*
G02*
X113448900Y-159318200I-100000J0D01*
G01*
X112173900Y-159318200D01*
G75*
G02*
X112073900Y-159218200I0J100000D01*
G01*
G37*
G36*
G01*
X112073900Y-159868200D02*
X112073900Y-159668200D01*
G75*
G02*
X112173900Y-159568200I100000J0D01*
G01*
X113448900Y-159568200D01*
G75*
G02*
X113548900Y-159668200I0J-100000D01*
G01*
X113548900Y-159868200D01*
G75*
G02*
X113448900Y-159968200I-100000J0D01*
G01*
X112173900Y-159968200D01*
G75*
G02*
X112073900Y-159868200I0J100000D01*
G01*
G37*
G36*
G01*
X106348900Y-159868200D02*
X106348900Y-159668200D01*
G75*
G02*
X106448900Y-159568200I100000J0D01*
G01*
X107723900Y-159568200D01*
G75*
G02*
X107823900Y-159668200I0J-100000D01*
G01*
X107823900Y-159868200D01*
G75*
G02*
X107723900Y-159968200I-100000J0D01*
G01*
X106448900Y-159968200D01*
G75*
G02*
X106348900Y-159868200I0J100000D01*
G01*
G37*
G36*
G01*
X106348900Y-159218200D02*
X106348900Y-159018200D01*
G75*
G02*
X106448900Y-158918200I100000J0D01*
G01*
X107723900Y-158918200D01*
G75*
G02*
X107823900Y-159018200I0J-100000D01*
G01*
X107823900Y-159218200D01*
G75*
G02*
X107723900Y-159318200I-100000J0D01*
G01*
X106448900Y-159318200D01*
G75*
G02*
X106348900Y-159218200I0J100000D01*
G01*
G37*
G36*
G01*
X106348900Y-158568200D02*
X106348900Y-158368200D01*
G75*
G02*
X106448900Y-158268200I100000J0D01*
G01*
X107723900Y-158268200D01*
G75*
G02*
X107823900Y-158368200I0J-100000D01*
G01*
X107823900Y-158568200D01*
G75*
G02*
X107723900Y-158668200I-100000J0D01*
G01*
X106448900Y-158668200D01*
G75*
G02*
X106348900Y-158568200I0J100000D01*
G01*
G37*
G36*
G01*
X106348900Y-157918200D02*
X106348900Y-157718200D01*
G75*
G02*
X106448900Y-157618200I100000J0D01*
G01*
X107723900Y-157618200D01*
G75*
G02*
X107823900Y-157718200I0J-100000D01*
G01*
X107823900Y-157918200D01*
G75*
G02*
X107723900Y-158018200I-100000J0D01*
G01*
X106448900Y-158018200D01*
G75*
G02*
X106348900Y-157918200I0J100000D01*
G01*
G37*
G36*
G01*
X106348900Y-157268200D02*
X106348900Y-157068200D01*
G75*
G02*
X106448900Y-156968200I100000J0D01*
G01*
X107723900Y-156968200D01*
G75*
G02*
X107823900Y-157068200I0J-100000D01*
G01*
X107823900Y-157268200D01*
G75*
G02*
X107723900Y-157368200I-100000J0D01*
G01*
X106448900Y-157368200D01*
G75*
G02*
X106348900Y-157268200I0J100000D01*
G01*
G37*
G36*
G01*
X106348900Y-156618200D02*
X106348900Y-156418200D01*
G75*
G02*
X106448900Y-156318200I100000J0D01*
G01*
X107723900Y-156318200D01*
G75*
G02*
X107823900Y-156418200I0J-100000D01*
G01*
X107823900Y-156618200D01*
G75*
G02*
X107723900Y-156718200I-100000J0D01*
G01*
X106448900Y-156718200D01*
G75*
G02*
X106348900Y-156618200I0J100000D01*
G01*
G37*
G36*
G01*
X106348900Y-155968200D02*
X106348900Y-155768200D01*
G75*
G02*
X106448900Y-155668200I100000J0D01*
G01*
X107723900Y-155668200D01*
G75*
G02*
X107823900Y-155768200I0J-100000D01*
G01*
X107823900Y-155968200D01*
G75*
G02*
X107723900Y-156068200I-100000J0D01*
G01*
X106448900Y-156068200D01*
G75*
G02*
X106348900Y-155968200I0J100000D01*
G01*
G37*
G36*
G01*
X106348900Y-155318200D02*
X106348900Y-155118200D01*
G75*
G02*
X106448900Y-155018200I100000J0D01*
G01*
X107723900Y-155018200D01*
G75*
G02*
X107823900Y-155118200I0J-100000D01*
G01*
X107823900Y-155318200D01*
G75*
G02*
X107723900Y-155418200I-100000J0D01*
G01*
X106448900Y-155418200D01*
G75*
G02*
X106348900Y-155318200I0J100000D01*
G01*
G37*
G36*
G01*
X106348900Y-154668200D02*
X106348900Y-154468200D01*
G75*
G02*
X106448900Y-154368200I100000J0D01*
G01*
X107723900Y-154368200D01*
G75*
G02*
X107823900Y-154468200I0J-100000D01*
G01*
X107823900Y-154668200D01*
G75*
G02*
X107723900Y-154768200I-100000J0D01*
G01*
X106448900Y-154768200D01*
G75*
G02*
X106348900Y-154668200I0J100000D01*
G01*
G37*
G36*
G01*
X106348900Y-154018200D02*
X106348900Y-153818200D01*
G75*
G02*
X106448900Y-153718200I100000J0D01*
G01*
X107723900Y-153718200D01*
G75*
G02*
X107823900Y-153818200I0J-100000D01*
G01*
X107823900Y-154018200D01*
G75*
G02*
X107723900Y-154118200I-100000J0D01*
G01*
X106448900Y-154118200D01*
G75*
G02*
X106348900Y-154018200I0J100000D01*
G01*
G37*
G36*
G01*
X106348900Y-153368200D02*
X106348900Y-153168200D01*
G75*
G02*
X106448900Y-153068200I100000J0D01*
G01*
X107723900Y-153068200D01*
G75*
G02*
X107823900Y-153168200I0J-100000D01*
G01*
X107823900Y-153368200D01*
G75*
G02*
X107723900Y-153468200I-100000J0D01*
G01*
X106448900Y-153468200D01*
G75*
G02*
X106348900Y-153368200I0J100000D01*
G01*
G37*
G36*
G01*
X106348900Y-152718200D02*
X106348900Y-152518200D01*
G75*
G02*
X106448900Y-152418200I100000J0D01*
G01*
X107723900Y-152418200D01*
G75*
G02*
X107823900Y-152518200I0J-100000D01*
G01*
X107823900Y-152718200D01*
G75*
G02*
X107723900Y-152818200I-100000J0D01*
G01*
X106448900Y-152818200D01*
G75*
G02*
X106348900Y-152718200I0J100000D01*
G01*
G37*
G36*
G01*
X106348900Y-152068200D02*
X106348900Y-151868200D01*
G75*
G02*
X106448900Y-151768200I100000J0D01*
G01*
X107723900Y-151768200D01*
G75*
G02*
X107823900Y-151868200I0J-100000D01*
G01*
X107823900Y-152068200D01*
G75*
G02*
X107723900Y-152168200I-100000J0D01*
G01*
X106448900Y-152168200D01*
G75*
G02*
X106348900Y-152068200I0J100000D01*
G01*
G37*
G36*
G01*
X106348900Y-151418200D02*
X106348900Y-151218200D01*
G75*
G02*
X106448900Y-151118200I100000J0D01*
G01*
X107723900Y-151118200D01*
G75*
G02*
X107823900Y-151218200I0J-100000D01*
G01*
X107823900Y-151418200D01*
G75*
G02*
X107723900Y-151518200I-100000J0D01*
G01*
X106448900Y-151518200D01*
G75*
G02*
X106348900Y-151418200I0J100000D01*
G01*
G37*
G36*
G01*
X94104300Y-146327100D02*
X95354300Y-146327100D01*
G75*
G02*
X95604300Y-146577100I0J-250000D01*
G01*
X95604300Y-147377100D01*
G75*
G02*
X95354300Y-147627100I-250000J0D01*
G01*
X94104300Y-147627100D01*
G75*
G02*
X93854300Y-147377100I0J250000D01*
G01*
X93854300Y-146577100D01*
G75*
G02*
X94104300Y-146327100I250000J0D01*
G01*
G37*
G36*
G01*
X94104300Y-143227100D02*
X95354300Y-143227100D01*
G75*
G02*
X95604300Y-143477100I0J-250000D01*
G01*
X95604300Y-144277100D01*
G75*
G02*
X95354300Y-144527100I-250000J0D01*
G01*
X94104300Y-144527100D01*
G75*
G02*
X93854300Y-144277100I0J250000D01*
G01*
X93854300Y-143477100D01*
G75*
G02*
X94104300Y-143227100I250000J0D01*
G01*
G37*
G36*
G01*
X96557000Y-121935400D02*
X96557000Y-120685400D01*
G75*
G02*
X96807000Y-120435400I250000J0D01*
G01*
X97607000Y-120435400D01*
G75*
G02*
X97857000Y-120685400I0J-250000D01*
G01*
X97857000Y-121935400D01*
G75*
G02*
X97607000Y-122185400I-250000J0D01*
G01*
X96807000Y-122185400D01*
G75*
G02*
X96557000Y-121935400I0J250000D01*
G01*
G37*
G36*
G01*
X93457000Y-121935400D02*
X93457000Y-120685400D01*
G75*
G02*
X93707000Y-120435400I250000J0D01*
G01*
X94507000Y-120435400D01*
G75*
G02*
X94757000Y-120685400I0J-250000D01*
G01*
X94757000Y-121935400D01*
G75*
G02*
X94507000Y-122185400I-250000J0D01*
G01*
X93707000Y-122185400D01*
G75*
G02*
X93457000Y-121935400I0J250000D01*
G01*
G37*
G36*
G01*
X92190400Y-149044500D02*
X92190400Y-150294500D01*
G75*
G02*
X91940400Y-150544500I-250000J0D01*
G01*
X91140400Y-150544500D01*
G75*
G02*
X90890400Y-150294500I0J250000D01*
G01*
X90890400Y-149044500D01*
G75*
G02*
X91140400Y-148794500I250000J0D01*
G01*
X91940400Y-148794500D01*
G75*
G02*
X92190400Y-149044500I0J-250000D01*
G01*
G37*
G36*
G01*
X95290400Y-149044500D02*
X95290400Y-150294500D01*
G75*
G02*
X95040400Y-150544500I-250000J0D01*
G01*
X94240400Y-150544500D01*
G75*
G02*
X93990400Y-150294500I0J250000D01*
G01*
X93990400Y-149044500D01*
G75*
G02*
X94240400Y-148794500I250000J0D01*
G01*
X95040400Y-148794500D01*
G75*
G02*
X95290400Y-149044500I0J-250000D01*
G01*
G37*
G36*
G01*
X106105800Y-139824700D02*
X107355800Y-139824700D01*
G75*
G02*
X107605800Y-140074700I0J-250000D01*
G01*
X107605800Y-140874700D01*
G75*
G02*
X107355800Y-141124700I-250000J0D01*
G01*
X106105800Y-141124700D01*
G75*
G02*
X105855800Y-140874700I0J250000D01*
G01*
X105855800Y-140074700D01*
G75*
G02*
X106105800Y-139824700I250000J0D01*
G01*
G37*
G36*
G01*
X106105800Y-136724700D02*
X107355800Y-136724700D01*
G75*
G02*
X107605800Y-136974700I0J-250000D01*
G01*
X107605800Y-137774700D01*
G75*
G02*
X107355800Y-138024700I-250000J0D01*
G01*
X106105800Y-138024700D01*
G75*
G02*
X105855800Y-137774700I0J250000D01*
G01*
X105855800Y-136974700D01*
G75*
G02*
X106105800Y-136724700I250000J0D01*
G01*
G37*
G36*
G01*
X103146700Y-139799300D02*
X104396700Y-139799300D01*
G75*
G02*
X104646700Y-140049300I0J-250000D01*
G01*
X104646700Y-140849300D01*
G75*
G02*
X104396700Y-141099300I-250000J0D01*
G01*
X103146700Y-141099300D01*
G75*
G02*
X102896700Y-140849300I0J250000D01*
G01*
X102896700Y-140049300D01*
G75*
G02*
X103146700Y-139799300I250000J0D01*
G01*
G37*
G36*
G01*
X103146700Y-136699300D02*
X104396700Y-136699300D01*
G75*
G02*
X104646700Y-136949300I0J-250000D01*
G01*
X104646700Y-137749300D01*
G75*
G02*
X104396700Y-137999300I-250000J0D01*
G01*
X103146700Y-137999300D01*
G75*
G02*
X102896700Y-137749300I0J250000D01*
G01*
X102896700Y-136949300D01*
G75*
G02*
X103146700Y-136699300I250000J0D01*
G01*
G37*
G36*
G01*
X133029800Y-168018700D02*
X134279800Y-168018700D01*
G75*
G02*
X134529800Y-168268700I0J-250000D01*
G01*
X134529800Y-169068700D01*
G75*
G02*
X134279800Y-169318700I-250000J0D01*
G01*
X133029800Y-169318700D01*
G75*
G02*
X132779800Y-169068700I0J250000D01*
G01*
X132779800Y-168268700D01*
G75*
G02*
X133029800Y-168018700I250000J0D01*
G01*
G37*
G36*
G01*
X133029800Y-164918700D02*
X134279800Y-164918700D01*
G75*
G02*
X134529800Y-165168700I0J-250000D01*
G01*
X134529800Y-165968700D01*
G75*
G02*
X134279800Y-166218700I-250000J0D01*
G01*
X133029800Y-166218700D01*
G75*
G02*
X132779800Y-165968700I0J250000D01*
G01*
X132779800Y-165168700D01*
G75*
G02*
X133029800Y-164918700I250000J0D01*
G01*
G37*
G36*
G01*
X111719200Y-168171100D02*
X112969200Y-168171100D01*
G75*
G02*
X113219200Y-168421100I0J-250000D01*
G01*
X113219200Y-169221100D01*
G75*
G02*
X112969200Y-169471100I-250000J0D01*
G01*
X111719200Y-169471100D01*
G75*
G02*
X111469200Y-169221100I0J250000D01*
G01*
X111469200Y-168421100D01*
G75*
G02*
X111719200Y-168171100I250000J0D01*
G01*
G37*
G36*
G01*
X111719200Y-165071100D02*
X112969200Y-165071100D01*
G75*
G02*
X113219200Y-165321100I0J-250000D01*
G01*
X113219200Y-166121100D01*
G75*
G02*
X112969200Y-166371100I-250000J0D01*
G01*
X111719200Y-166371100D01*
G75*
G02*
X111469200Y-166121100I0J250000D01*
G01*
X111469200Y-165321100D01*
G75*
G02*
X111719200Y-165071100I250000J0D01*
G01*
G37*
G36*
G01*
X118755000Y-168209200D02*
X120005000Y-168209200D01*
G75*
G02*
X120255000Y-168459200I0J-250000D01*
G01*
X120255000Y-169259200D01*
G75*
G02*
X120005000Y-169509200I-250000J0D01*
G01*
X118755000Y-169509200D01*
G75*
G02*
X118505000Y-169259200I0J250000D01*
G01*
X118505000Y-168459200D01*
G75*
G02*
X118755000Y-168209200I250000J0D01*
G01*
G37*
G36*
G01*
X118755000Y-165109200D02*
X120005000Y-165109200D01*
G75*
G02*
X120255000Y-165359200I0J-250000D01*
G01*
X120255000Y-166159200D01*
G75*
G02*
X120005000Y-166409200I-250000J0D01*
G01*
X118755000Y-166409200D01*
G75*
G02*
X118505000Y-166159200I0J250000D01*
G01*
X118505000Y-165359200D01*
G75*
G02*
X118755000Y-165109200I250000J0D01*
G01*
G37*
G36*
G01*
X122336400Y-168197100D02*
X123586400Y-168197100D01*
G75*
G02*
X123836400Y-168447100I0J-250000D01*
G01*
X123836400Y-169247100D01*
G75*
G02*
X123586400Y-169497100I-250000J0D01*
G01*
X122336400Y-169497100D01*
G75*
G02*
X122086400Y-169247100I0J250000D01*
G01*
X122086400Y-168447100D01*
G75*
G02*
X122336400Y-168197100I250000J0D01*
G01*
G37*
G36*
G01*
X122336400Y-165097100D02*
X123586400Y-165097100D01*
G75*
G02*
X123836400Y-165347100I0J-250000D01*
G01*
X123836400Y-166147100D01*
G75*
G02*
X123586400Y-166397100I-250000J0D01*
G01*
X122336400Y-166397100D01*
G75*
G02*
X122086400Y-166147100I0J250000D01*
G01*
X122086400Y-165347100D01*
G75*
G02*
X122336400Y-165097100I250000J0D01*
G01*
G37*
G36*
G01*
X125981300Y-168171100D02*
X127231300Y-168171100D01*
G75*
G02*
X127481300Y-168421100I0J-250000D01*
G01*
X127481300Y-169221100D01*
G75*
G02*
X127231300Y-169471100I-250000J0D01*
G01*
X125981300Y-169471100D01*
G75*
G02*
X125731300Y-169221100I0J250000D01*
G01*
X125731300Y-168421100D01*
G75*
G02*
X125981300Y-168171100I250000J0D01*
G01*
G37*
G36*
G01*
X125981300Y-165071100D02*
X127231300Y-165071100D01*
G75*
G02*
X127481300Y-165321100I0J-250000D01*
G01*
X127481300Y-166121100D01*
G75*
G02*
X127231300Y-166371100I-250000J0D01*
G01*
X125981300Y-166371100D01*
G75*
G02*
X125731300Y-166121100I0J250000D01*
G01*
X125731300Y-165321100D01*
G75*
G02*
X125981300Y-165071100I250000J0D01*
G01*
G37*
G36*
G01*
X115110100Y-168247300D02*
X116360100Y-168247300D01*
G75*
G02*
X116610100Y-168497300I0J-250000D01*
G01*
X116610100Y-169297300D01*
G75*
G02*
X116360100Y-169547300I-250000J0D01*
G01*
X115110100Y-169547300D01*
G75*
G02*
X114860100Y-169297300I0J250000D01*
G01*
X114860100Y-168497300D01*
G75*
G02*
X115110100Y-168247300I250000J0D01*
G01*
G37*
G36*
G01*
X115110100Y-165147300D02*
X116360100Y-165147300D01*
G75*
G02*
X116610100Y-165397300I0J-250000D01*
G01*
X116610100Y-166197300D01*
G75*
G02*
X116360100Y-166447300I-250000J0D01*
G01*
X115110100Y-166447300D01*
G75*
G02*
X114860100Y-166197300I0J250000D01*
G01*
X114860100Y-165397300D01*
G75*
G02*
X115110100Y-165147300I250000J0D01*
G01*
G37*
G36*
G01*
X100822600Y-168120300D02*
X102072600Y-168120300D01*
G75*
G02*
X102322600Y-168370300I0J-250000D01*
G01*
X102322600Y-169170300D01*
G75*
G02*
X102072600Y-169420300I-250000J0D01*
G01*
X100822600Y-169420300D01*
G75*
G02*
X100572600Y-169170300I0J250000D01*
G01*
X100572600Y-168370300D01*
G75*
G02*
X100822600Y-168120300I250000J0D01*
G01*
G37*
G36*
G01*
X100822600Y-165020300D02*
X102072600Y-165020300D01*
G75*
G02*
X102322600Y-165270300I0J-250000D01*
G01*
X102322600Y-166070300D01*
G75*
G02*
X102072600Y-166320300I-250000J0D01*
G01*
X100822600Y-166320300D01*
G75*
G02*
X100572600Y-166070300I0J250000D01*
G01*
X100572600Y-165270300D01*
G75*
G02*
X100822600Y-165020300I250000J0D01*
G01*
G37*
G36*
G01*
X107960000Y-168133000D02*
X109210000Y-168133000D01*
G75*
G02*
X109460000Y-168383000I0J-250000D01*
G01*
X109460000Y-169183000D01*
G75*
G02*
X109210000Y-169433000I-250000J0D01*
G01*
X107960000Y-169433000D01*
G75*
G02*
X107710000Y-169183000I0J250000D01*
G01*
X107710000Y-168383000D01*
G75*
G02*
X107960000Y-168133000I250000J0D01*
G01*
G37*
G36*
G01*
X107960000Y-165033000D02*
X109210000Y-165033000D01*
G75*
G02*
X109460000Y-165283000I0J-250000D01*
G01*
X109460000Y-166083000D01*
G75*
G02*
X109210000Y-166333000I-250000J0D01*
G01*
X107960000Y-166333000D01*
G75*
G02*
X107710000Y-166083000I0J250000D01*
G01*
X107710000Y-165283000D01*
G75*
G02*
X107960000Y-165033000I250000J0D01*
G01*
G37*
G36*
G01*
X79258000Y-168399700D02*
X80508000Y-168399700D01*
G75*
G02*
X80758000Y-168649700I0J-250000D01*
G01*
X80758000Y-169449700D01*
G75*
G02*
X80508000Y-169699700I-250000J0D01*
G01*
X79258000Y-169699700D01*
G75*
G02*
X79008000Y-169449700I0J250000D01*
G01*
X79008000Y-168649700D01*
G75*
G02*
X79258000Y-168399700I250000J0D01*
G01*
G37*
G36*
G01*
X79258000Y-165299700D02*
X80508000Y-165299700D01*
G75*
G02*
X80758000Y-165549700I0J-250000D01*
G01*
X80758000Y-166349700D01*
G75*
G02*
X80508000Y-166599700I-250000J0D01*
G01*
X79258000Y-166599700D01*
G75*
G02*
X79008000Y-166349700I0J250000D01*
G01*
X79008000Y-165549700D01*
G75*
G02*
X79258000Y-165299700I250000J0D01*
G01*
G37*
G36*
G01*
X93723300Y-168350100D02*
X94973300Y-168350100D01*
G75*
G02*
X95223300Y-168600100I0J-250000D01*
G01*
X95223300Y-169400100D01*
G75*
G02*
X94973300Y-169650100I-250000J0D01*
G01*
X93723300Y-169650100D01*
G75*
G02*
X93473300Y-169400100I0J250000D01*
G01*
X93473300Y-168600100D01*
G75*
G02*
X93723300Y-168350100I250000J0D01*
G01*
G37*
G36*
G01*
X93723300Y-165250100D02*
X94973300Y-165250100D01*
G75*
G02*
X95223300Y-165500100I0J-250000D01*
G01*
X95223300Y-166300100D01*
G75*
G02*
X94973300Y-166550100I-250000J0D01*
G01*
X93723300Y-166550100D01*
G75*
G02*
X93473300Y-166300100I0J250000D01*
G01*
X93473300Y-165500100D01*
G75*
G02*
X93723300Y-165250100I250000J0D01*
G01*
G37*
G36*
G01*
X97330100Y-168234600D02*
X98580100Y-168234600D01*
G75*
G02*
X98830100Y-168484600I0J-250000D01*
G01*
X98830100Y-169284600D01*
G75*
G02*
X98580100Y-169534600I-250000J0D01*
G01*
X97330100Y-169534600D01*
G75*
G02*
X97080100Y-169284600I0J250000D01*
G01*
X97080100Y-168484600D01*
G75*
G02*
X97330100Y-168234600I250000J0D01*
G01*
G37*
G36*
G01*
X97330100Y-165134600D02*
X98580100Y-165134600D01*
G75*
G02*
X98830100Y-165384600I0J-250000D01*
G01*
X98830100Y-166184600D01*
G75*
G02*
X98580100Y-166434600I-250000J0D01*
G01*
X97330100Y-166434600D01*
G75*
G02*
X97080100Y-166184600I0J250000D01*
G01*
X97080100Y-165384600D01*
G75*
G02*
X97330100Y-165134600I250000J0D01*
G01*
G37*
G36*
G01*
X129486500Y-168133000D02*
X130736500Y-168133000D01*
G75*
G02*
X130986500Y-168383000I0J-250000D01*
G01*
X130986500Y-169183000D01*
G75*
G02*
X130736500Y-169433000I-250000J0D01*
G01*
X129486500Y-169433000D01*
G75*
G02*
X129236500Y-169183000I0J250000D01*
G01*
X129236500Y-168383000D01*
G75*
G02*
X129486500Y-168133000I250000J0D01*
G01*
G37*
G36*
G01*
X129486500Y-165033000D02*
X130736500Y-165033000D01*
G75*
G02*
X130986500Y-165283000I0J-250000D01*
G01*
X130986500Y-166083000D01*
G75*
G02*
X130736500Y-166333000I-250000J0D01*
G01*
X129486500Y-166333000D01*
G75*
G02*
X129236500Y-166083000I0J250000D01*
G01*
X129236500Y-165283000D01*
G75*
G02*
X129486500Y-165033000I250000J0D01*
G01*
G37*
G36*
G01*
X82839400Y-168425700D02*
X84089400Y-168425700D01*
G75*
G02*
X84339400Y-168675700I0J-250000D01*
G01*
X84339400Y-169475700D01*
G75*
G02*
X84089400Y-169725700I-250000J0D01*
G01*
X82839400Y-169725700D01*
G75*
G02*
X82589400Y-169475700I0J250000D01*
G01*
X82589400Y-168675700D01*
G75*
G02*
X82839400Y-168425700I250000J0D01*
G01*
G37*
G36*
G01*
X82839400Y-165325700D02*
X84089400Y-165325700D01*
G75*
G02*
X84339400Y-165575700I0J-250000D01*
G01*
X84339400Y-166375700D01*
G75*
G02*
X84089400Y-166625700I-250000J0D01*
G01*
X82839400Y-166625700D01*
G75*
G02*
X82589400Y-166375700I0J250000D01*
G01*
X82589400Y-165575700D01*
G75*
G02*
X82839400Y-165325700I250000J0D01*
G01*
G37*
G36*
G01*
X90027600Y-168298100D02*
X91277600Y-168298100D01*
G75*
G02*
X91527600Y-168548100I0J-250000D01*
G01*
X91527600Y-169348100D01*
G75*
G02*
X91277600Y-169598100I-250000J0D01*
G01*
X90027600Y-169598100D01*
G75*
G02*
X89777600Y-169348100I0J250000D01*
G01*
X89777600Y-168548100D01*
G75*
G02*
X90027600Y-168298100I250000J0D01*
G01*
G37*
G36*
G01*
X90027600Y-165198100D02*
X91277600Y-165198100D01*
G75*
G02*
X91527600Y-165448100I0J-250000D01*
G01*
X91527600Y-166248100D01*
G75*
G02*
X91277600Y-166498100I-250000J0D01*
G01*
X90027600Y-166498100D01*
G75*
G02*
X89777600Y-166248100I0J250000D01*
G01*
X89777600Y-165448100D01*
G75*
G02*
X90027600Y-165198100I250000J0D01*
G01*
G37*
G36*
G01*
X86408100Y-168298100D02*
X87658100Y-168298100D01*
G75*
G02*
X87908100Y-168548100I0J-250000D01*
G01*
X87908100Y-169348100D01*
G75*
G02*
X87658100Y-169598100I-250000J0D01*
G01*
X86408100Y-169598100D01*
G75*
G02*
X86158100Y-169348100I0J250000D01*
G01*
X86158100Y-168548100D01*
G75*
G02*
X86408100Y-168298100I250000J0D01*
G01*
G37*
G36*
G01*
X86408100Y-165198100D02*
X87658100Y-165198100D01*
G75*
G02*
X87908100Y-165448100I0J-250000D01*
G01*
X87908100Y-166248100D01*
G75*
G02*
X87658100Y-166498100I-250000J0D01*
G01*
X86408100Y-166498100D01*
G75*
G02*
X86158100Y-166248100I0J250000D01*
G01*
X86158100Y-165448100D01*
G75*
G02*
X86408100Y-165198100I250000J0D01*
G01*
G37*
D16*
X91897200Y-127114300D03*
X90947200Y-125114300D03*
X92847200Y-125114300D03*
D17*
X86702900Y-116255800D03*
G36*
G01*
X88252900Y-120965800D02*
X85152900Y-120965800D01*
G75*
G02*
X84902900Y-120715800I0J250000D01*
G01*
X84902900Y-119415800D01*
G75*
G02*
X85152900Y-119165800I250000J0D01*
G01*
X88252900Y-119165800D01*
G75*
G02*
X88502900Y-119415800I0J-250000D01*
G01*
X88502900Y-120715800D01*
G75*
G02*
X88252900Y-120965800I-250000J0D01*
G01*
G37*
G36*
G01*
X101816200Y-121897300D02*
X101816200Y-120647300D01*
G75*
G02*
X102066200Y-120397300I250000J0D01*
G01*
X102816200Y-120397300D01*
G75*
G02*
X103066200Y-120647300I0J-250000D01*
G01*
X103066200Y-121897300D01*
G75*
G02*
X102816200Y-122147300I-250000J0D01*
G01*
X102066200Y-122147300D01*
G75*
G02*
X101816200Y-121897300I0J250000D01*
G01*
G37*
G36*
G01*
X99016200Y-121897300D02*
X99016200Y-120647300D01*
G75*
G02*
X99266200Y-120397300I250000J0D01*
G01*
X100016200Y-120397300D01*
G75*
G02*
X100266200Y-120647300I0J-250000D01*
G01*
X100266200Y-121897300D01*
G75*
G02*
X100016200Y-122147300I-250000J0D01*
G01*
X99266200Y-122147300D01*
G75*
G02*
X99016200Y-121897300I0J250000D01*
G01*
G37*
G36*
G01*
X92262200Y-153184700D02*
X92262200Y-154434700D01*
G75*
G02*
X92012200Y-154684700I-250000J0D01*
G01*
X91262200Y-154684700D01*
G75*
G02*
X91012200Y-154434700I0J250000D01*
G01*
X91012200Y-153184700D01*
G75*
G02*
X91262200Y-152934700I250000J0D01*
G01*
X92012200Y-152934700D01*
G75*
G02*
X92262200Y-153184700I0J-250000D01*
G01*
G37*
G36*
G01*
X95062200Y-153184700D02*
X95062200Y-154434700D01*
G75*
G02*
X94812200Y-154684700I-250000J0D01*
G01*
X94062200Y-154684700D01*
G75*
G02*
X93812200Y-154434700I0J250000D01*
G01*
X93812200Y-153184700D01*
G75*
G02*
X94062200Y-152934700I250000J0D01*
G01*
X94812200Y-152934700D01*
G75*
G02*
X95062200Y-153184700I0J-250000D01*
G01*
G37*
M02*
